SplineFontDB: 3.0
FontName: NATS
FullName: NATS
FamilyName: NATS
OS2StyleName: "regular"
Weight: Regular
Copyright: This font is copyright of SiliconAndhra, USA.
Version: 1.0
FONDName: NATS
ItalicAngle: 0
UnderlinePosition: 0
UnderlineWidth: 0
Ascent: 776
Descent: 194
InvalidEm: 1
UFOAscent: 800
UFODescent: -250
LayerCount: 2
Layer: 0 0 "Back" 1
Layer: 1 0 "Fore" 0
PreferredKerning: 1
FSType: 0
OS2Version: 0
OS2_WeightWidthSlopeOnly: 0
OS2_UseTypoMetrics: 0
CreationTime: 1417779472
ModificationTime: 1417779472
PfmFamily: 16
TTFWeight: 400
TTFWidth: 5
LineGap: 0
VLineGap: 0
Panose: 0 0 0 0 0 0 0 0 0 0
OS2TypoAscent: 0
OS2TypoAOffset: 1
OS2TypoDescent: 0
OS2TypoDOffset: 1
OS2TypoLinegap: 0
OS2WinAscent: 0
OS2WinAOffset: 1
OS2WinDescent: 0
OS2WinDOffset: 1
HheadAscent: 0
HheadAOffset: 1
HheadDescent: 0
HheadDOffset: 1
OS2SubXSize: 700
OS2SubYSize: 650
OS2SubXOff: 0
OS2SubYOff: 140
OS2SupXSize: 700
OS2SupYSize: 650
OS2SupXOff: 0
OS2SupYOff: 477
OS2StrikeYSize: 50
OS2StrikeYPos: 250
OS2CapHeight: 596
OS2XHeight: 410
OS2Vendor: 'pyrs'
Lookup: 4 0 0 "'nukt' Nukta Forms in Telugu lookup 0" { "'nukt' Nukta Forms in Telugu lookup 0 subtable"  } ['nukt' ('telu' <'dflt' > ) ]
Lookup: 4 0 0 "'akhn' Akhand in Telugu lookup 1" { "'akhn' Akhand in Telugu lookup 1 subtable"  } ['akhn' ('telu' <'dflt' > ) ]
Lookup: 4 0 0 "'blwf' Below Base Forms in Telugu lookup 2" { "'blwf' Below Base Forms in Telugu lookup 2 subtable"  } ['blwf' ('telu' <'dflt' > ) ]
Lookup: 4 0 0 "'blws' Below Base Substitutions in Telugu lookup 3" { "'blws' Below Base Substitutions in Telugu lookup 3 subtable"  } ['blws' ('telu' <'dflt' > ) ]
Lookup: 6 0 0 "'blws' Below Base Substitutions in Telugu lookup 4" { "'blws' Below Base Substitutions in Telugu lookup 4 contextual 0"  "'blws' Below Base Substitutions in Telugu lookup 4 contextual 1"  "'blws' Below Base Substitutions in Telugu lookup 4 contextual 2"  } ['blws' ('telu' <'dflt' > ) ]

StartChar: A
Encoding: 1 65 1
GlifName: A_
Width: 519
VWidth: 0
Flags: W
LayerCount: 2
Back
Fore
SplineSet
137 111 m 257
 88 0 l 257
 0 0 l 257
 216 489 l 257
 304 489 l 257
 519 0 l 257
 431 0 l 257
 382 111 l 257
 137 111 l 257
349 188 m 257
 260 389 l 257
 171 188 l 257
 349 188 l 257
EndSplineSet
EndChar

StartChar: AA
Encoding: 2 3078 2
GlifName: A_A_
Width: 600
VWidth: 0
Flags: W
LayerCount: 2
Back
Fore
SplineSet
468 274 m 256
NamedP: "hr00"
 455 274 443 279 433 288 c 256
 424 297 419 308 419 321 c 256
 419 333 424 343 433 351 c 256
 443 360 455 364 468 364 c 256
 481 364 493 360 503 351 c 256
 512 343 516 333 516 321 c 256
 516 308 512 297 503 288 c 256
 493 279 481 274 468 274 c 256
NamedP: "hr00"
188 279 m 256
 173 279 160 283 150 291 c 256
 139 300 134 310 134 321 c 256
 134 334 139 346 150 356 c 256
 160 365 173 370 188 370 c 256
 201 370 213 365 223 356 c 257
 232 346 236 334 236 321 c 256
 236 310 232 300 223 291 c 257
 213 283 201 279 188 279 c 256
334 0 m 256
 409 0 469 13 515 40 c 256
 560 67 583 102 583 146 c 256
 583 165 580 183 573 199 c 256
 567 214 558 226 546 236 c 257
 556 246 564 259 569 274 c 256
 574 288 576 304 576 321 c 256
 576 350 565 375 543 395 c 256
 520 416 493 425 461 425 c 256
 433 425 409 415 388 396 c 256
 368 377 358 355 358 328 c 256
 358 307 363 287 373 270 c 256
 383 253 396 240 413 231 c 257
 261 231 l 257
 261 170 l 257
 425 170 l 258
 441 170 455 172 468 176 c 257
 480 181 490 187 498 194 c 257
 505 191 511 185 516 176 c 256
 521 169 523 160 523 151 c 256
 523 122 504 99 466 81 c 256
 428 64 378 55 315 55 c 256
 254 55 201 72 158 105 c 256
 113 138 91 178 91 225 c 256
 91 234 92 242 93 249 c 256
 94 255 96 259 98 261 c 257
 103 248 115 237 133 230 c 256
 150 223 171 219 194 219 c 256
 222 219 248 229 268 250 c 256
 289 272 298 298 298 328 c 256
 298 356 289 380 268 401 c 256
 247 422 222 431 194 431 c 256
 145 431 105 414 75 380 c 256
 45 346 30 300 30 243 c 256
 30 170 58 111 113 66 c 256
 168 22 242 0 334 0 c 256
EndSplineSet
EndChar

StartChar: AAMatra
Encoding: 3 3134 3
GlifName: A_A_M_atra
Width: 604
VWidth: 0
Flags: W
LayerCount: 2
Back
Fore
SplineSet
456 146 m 256
NamedP: "hr00"
 443 146 431 151 421 160 c 256
 412 169 407 181 407 194 c 256
 407 207 412 219 421 229 c 257
 431 238 443 243 456 243 c 256
 469 243 481 238 491 229 c 257
 500 219 505 207 505 194 c 256
 505 181 500 169 491 160 c 256
 481 151 469 146 456 146 c 256
NamedP: "hr00"
347 194 m 256
 347 164 356 138 378 116 c 256
 400 94 426 85 456 85 c 256
 489 85 519 99 542 126 c 256
 566 154 577 187 577 225 c 256
 577 280 560 327 527 366 c 256
 494 405 454 425 407 425 c 258
 -248 425 l 257
 -248 364 l 257
 407 364 l 258
 432 364 454 358 472 343 c 256
 489 329 498 311 498 291 c 257
 484 300 468 304 450 304 c 256
 421 304 397 293 377 271 c 256
 357 250 347 224 347 194 c 256
EndSplineSet
EndChar

StartChar: AE
Encoding: 4 198 4
GlifName: A_E_
Width: 728
VWidth: 0
Flags: W
LayerCount: 2
Back
Fore
SplineSet
682 489 m 257
 682 412 l 257
 421 412 l 257
 421 278 l 257
 655 278 l 257
 655 206 l 257
 421 206 l 257
 421 77 l 257
 690 77 l 257
 690 0 l 257
 330 0 l 257
 330 111 l 257
 153 111 l 257
 94 0 l 257
 -8 0 l 257
 248 489 l 257
 682 489 l 257
330 190 m 257
 330 412 l 257
 310 412 l 257
 193 190 l 257
 330 190 l 257
EndSplineSet
EndChar

StartChar: AI
Encoding: 5 3088 5
GlifName: A_I_
Width: 582
VWidth: 0
Flags: W
LayerCount: 2
Back
Fore
SplineSet
406 0 m 256
NamedP: "hr00"
 451 0 488 21 519 63 c 256
 550 104 565 154 565 213 c 256
 565 271 548 321 515 363 c 256
 482 404 442 425 395 425 c 256
 370 425 348 421 328 413 c 256
 308 404 294 391 285 376 c 257
 277 391 263 404 243 413 c 256
 224 421 201 425 176 425 c 256
 139 425 107 414 81 390 c 256
 55 367 43 337 43 304 c 257
 103 304 l 257
 103 321 110 335 124 346 c 256
 139 358 156 364 176 364 c 256
 198 364 216 359 229 348 c 256
 242 337 249 322 249 304 c 257
 310 304 l 257
 310 322 317 337 331 348 c 256
 346 359 365 364 389 364 c 256
 420 364 447 349 470 320 c 256
 493 290 504 254 504 213 c 256
 504 171 494 135 475 105 c 256
 456 76 433 61 406 61 c 256
 383 61 363 69 346 84 c 256
 329 100 321 119 321 140 c 258
 321 183 l 257
 261 183 l 257
 261 146 l 258
 261 123 252 103 235 86 c 256
 217 69 195 61 170 61 c 256
 149 61 130 68 114 83 c 256
 99 97 91 114 91 134 c 256
 91 147 96 159 105 169 c 257
 115 178 127 183 140 183 c 256
 147 183 152 180 156 175 c 256
 161 170 164 165 164 158 c 257
 225 158 l 257
 225 181 216 201 199 218 c 256
 180 236 159 243 134 243 c 256
 105 243 81 232 60 211 c 256
 40 190 30 164 30 134 c 256
 30 97 43 66 68 39 c 256
 93 13 123 0 158 0 c 256
 189 0 217 5 241 15 c 256
 264 25 281 38 291 55 c 257
 303 38 319 24 339 15 c 256
 360 5 382 0 406 0 c 256
NamedP: "hr00"
EndSplineSet
EndChar

StartChar: AIMatra
Encoding: 6 3144 6
GlifName: A_I_M_atra
Width: 540
VWidth: 0
Flags: W
LayerCount: 2
Back
Fore
SplineSet
171 -206 m 256
NamedP: "hr00"
 156 -206 143 -202 133 -194 c 256
 122 -185 117 -175 117 -164 c 256
 117 -149 122 -136 131 -125 c 256
 141 -114 153 -109 166 -109 c 256
 179 -109 191 -114 200 -125 c 256
 209 -136 213 -149 213 -164 c 256
 213 -175 209 -185 201 -194 c 257
 192 -202 182 -206 171 -206 c 256
NamedP: "hr00"
481 -206 m 257
 251 -206 l 257
 254 -203 257 -196 260 -187 c 257
 261 -177 262 -165 262 -151 c 256
 262 -126 252 -105 232 -87 c 256
 212 -70 188 -61 160 -61 c 256
 133 -61 110 -71 91 -90 c 256
 72 -108 62 -130 62 -157 c 256
 62 -184 72 -207 92 -226 c 256
 113 -245 137 -255 166 -255 c 258
 481 -255 l 257
 481 -206 l 257
378 364 m 258
 401 364 421 374 438 393 c 256
 455 412 463 434 463 461 c 256
 463 488 455 511 438 530 c 256
 421 549 401 559 378 559 c 258
 62 559 l 257
 62 498 l 257
 366 498 l 258
 376 498 385 495 392 488 c 256
 399 480 402 471 402 461 c 256
 402 451 399 442 392 435 c 256
 385 428 376 425 366 425 c 258
 135 425 l 257
 135 364 l 257
 378 364 l 258
EndSplineSet
EndChar

StartChar: AU
Encoding: 7 3092 7
GlifName: A_U_
Width: 800
VWidth: 0
Flags: W
LayerCount: 2
Back
Fore
SplineSet
661 243 m 256
NamedP: "hr00"
 648 243 636 248 626 259 c 256
 617 270 613 283 613 298 c 256
 613 311 617 323 626 333 c 257
 636 342 648 346 661 346 c 256
 674 346 686 342 696 333 c 257
 705 323 710 311 710 298 c 256
 710 283 705 270 696 259 c 256
 686 248 674 243 661 243 c 256
NamedP: "hr00"
170 0 m 256
 203 0 231 6 255 15 c 256
 280 25 299 38 310 55 c 257
 322 38 340 24 363 15 c 256
 386 5 413 0 443 0 c 256
 481 0 513 13 539 38 c 256
 564 63 576 95 576 134 c 256
 576 150 574 164 571 176 c 257
 569 189 565 199 559 206 c 257
 491 206 l 257
 500 198 506 189 510 179 c 256
 514 168 516 157 516 146 c 256
 516 123 508 103 491 86 c 256
 474 69 454 61 431 61 c 256
 408 61 388 69 371 86 c 256
 354 103 346 123 346 146 c 258
 346 183 l 257
 285 183 l 257
 285 146 l 258
 285 123 275 103 256 86 c 256
 237 69 215 61 188 61 c 256
 161 61 139 68 120 83 c 256
 101 97 91 114 91 134 c 256
 91 153 98 171 111 186 c 256
 124 202 142 213 164 219 c 256
 193 227 216 241 234 259 c 256
 251 277 261 295 261 316 c 256
 261 336 258 354 251 369 c 256
 244 384 236 394 225 401 c 257
 232 407 238 413 243 419 c 257
 247 426 249 432 249 438 c 256
 249 442 248 446 245 450 c 257
 244 454 241 458 236 461 c 257
 601 461 l 258
 626 461 647 455 665 443 c 256
 684 430 695 414 698 395 c 257
 695 397 689 399 681 400 c 256
 674 401 665 401 655 401 c 256
 627 401 603 392 583 373 c 256
 563 354 553 331 553 304 c 256
 553 272 565 245 588 223 c 256
 612 200 641 189 674 189 c 256
 704 189 730 201 751 226 c 256
 772 251 783 281 783 316 c 256
 783 373 766 422 730 463 c 256
 695 503 651 523 601 523 c 258
 43 523 l 257
 43 461 l 257
 164 461 l 258
 169 461 173 459 178 456 c 256
 181 453 183 449 183 444 c 256
 183 439 180 434 174 430 c 257
 167 427 160 425 151 425 c 256
 121 425 95 415 74 396 c 256
 53 377 43 355 43 328 c 258
 43 304 l 257
 103 304 l 257
 103 316 l 258
 103 329 108 341 119 350 c 256
 130 359 143 364 158 364 c 256
 169 364 179 361 188 354 c 256
 196 347 200 338 200 328 c 256
 200 315 195 302 184 291 c 256
 172 280 157 272 140 268 c 256
 107 259 81 243 61 220 c 256
 40 196 30 169 30 140 c 256
 30 102 43 69 71 41 c 256
 99 13 132 0 170 0 c 256
EndSplineSet
EndChar

StartChar: Aacute
Encoding: 8 193 8
GlifName: A_acute
Width: 519
VWidth: 0
Flags: W
LayerCount: 2
Back
Fore
SplineSet
137 111 m 257
 88 0 l 257
 0 0 l 257
 216 489 l 257
 304 489 l 257
 519 0 l 257
 431 0 l 257
 382 111 l 257
 137 111 l 257
349 188 m 257
 260 389 l 257
 171 188 l 257
 349 188 l 257
298 531 m 257
 226 531 l 257
 300 632 l 257
 383 598 l 257
 298 531 l 257
EndSplineSet
EndChar

StartChar: Acircumflex
Encoding: 9 194 9
GlifName: A_circumflex
Width: 511
VWidth: 0
Flags: W
LayerCount: 2
Back
Fore
SplineSet
295 489 m 257
 511 0 l 257
 420 0 l 257
 370 111 l 257
 136 111 l 257
 88 0 l 257
 0 0 l 257
 216 489 l 257
 295 489 l 257
337 188 m 257
 253 376 l 257
 170 188 l 257
 337 188 l 257
216 624 m 257
 289 624 l 257
 375 530 l 257
 307 530 l 257
 253 569 l 257
 199 530 l 257
 131 530 l 257
 216 624 l 257
EndSplineSet
EndChar

StartChar: Adieresis
Encoding: 10 196 10
GlifName: A_dieresis
Width: 511
VWidth: 0
Flags: W
LayerCount: 2
Back
Fore
SplineSet
295 489 m 257
 511 0 l 257
 420 0 l 257
 370 111 l 257
 136 111 l 257
 88 0 l 257
 0 0 l 257
 216 489 l 257
 295 489 l 257
337 188 m 257
 253 376 l 257
 170 188 l 257
 337 188 l 257
148 571 m 256
 148 594 166 613 190 613 c 256
 215 613 234 595 234 571 c 256
 234 547 215 527 190 527 c 256
 166 527 148 547 148 571 c 256
  PathStart: -2
277 571 m 256
 277 594 297 613 321 613 c 256
 344 613 363 595 363 571 c 256
 363 547 343 527 320 527 c 256
 297 527 277 547 277 571 c 256
  PathStart: -2
EndSplineSet
EndChar

StartChar: Agrave
Encoding: 11 192 11
GlifName: A_grave
Width: 511
VWidth: 0
Flags: W
LayerCount: 2
Back
Fore
SplineSet
295 489 m 257
 511 0 l 257
 420 0 l 257
 370 111 l 257
 136 111 l 257
 88 0 l 257
 0 0 l 257
 216 489 l 257
 295 489 l 257
337 188 m 257
 253 376 l 257
 170 188 l 257
 337 188 l 257
294 530 m 257
 223 530 l 257
 137 597 l 257
 220 631 l 257
 294 530 l 257
EndSplineSet
EndChar

StartChar: Anudatta
Encoding: 12 2386 12
GlifName: A_nudatta
Width: 0
VWidth: 0
Flags: W
LayerCount: 2
Back
Fore
SplineSet
121 -516 m 257
NamedP: "hr00"
 523 -516 l 257
 523 -425 l 257
 121 -425 l 257
 121 -516 l 257
NamedP: "hr00"
EndSplineSet
EndChar

StartChar: Anusvara
Encoding: 13 3074 13
GlifName: A_nusvara
Width: 530
VWidth: 0
Flags: W
LayerCount: 2
Back
Fore
SplineSet
268 61 m 256
NamedP: "hr00"
 219 61 178 76 143 105 c 256
 108 135 91 171 91 213 c 256
 91 256 108 293 143 324 c 256
 178 355 219 370 268 370 c 256
 316 370 358 355 393 324 c 256
 427 293 444 256 444 213 c 256
 444 171 427 134 393 105 c 256
 358 75 316 61 268 61 c 256
NamedP: "hr00"
268 0 m 256
 333 0 388 21 435 63 c 256
 481 104 504 154 504 213 c 256
 504 271 481 322 435 363 c 256
 388 405 333 425 268 425 c 256
 202 425 146 404 100 363 c 256
 53 321 30 271 30 213 c 256
 30 154 53 105 100 63 c 256
 146 22 202 0 268 0 c 256
EndSplineSet
EndChar

StartChar: Arasunna
Encoding: 14 3073 14
GlifName: A_rasunna
Width: 287
VWidth: 0
Flags: W
LayerCount: 2
Back
Fore
SplineSet
276 0 m 257
NamedP: "hr00"
 276 61 l 257
 233 61 l 258
 195 61 163 76 136 105 c 256
 108 135 94 171 94 213 c 256
 94 254 106 290 133 320 c 256
 159 349 191 364 228 364 c 258
 252 364 l 257
 252 425 l 257
 209 425 l 258
 161 425 118 404 84 363 c 256
 49 321 33 271 33 213 c 256
 33 154 50 104 84 63 c 256
 119 21 161 0 209 0 c 258
 276 0 l 257
NamedP: "hr00"
EndSplineSet
EndChar

StartChar: Aring
Encoding: 15 197 15
GlifName: A_ring
Width: 511
VWidth: 0
Flags: W
LayerCount: 2
Back
Fore
SplineSet
332 536 m 256
 332 514 321 495 299 480 c 257
 511 0 l 257
 420 0 l 257
 370 111 l 257
 136 111 l 257
 88 0 l 257
 0 0 l 257
 211 481 l 257
 190 496 180 515 180 536 c 256
 180 580 216 613 255 613 c 256
 295 613 332 580 332 536 c 256
  PathStart: -2
337 188 m 257
 253 376 l 257
 170 188 l 257
 337 188 l 257
294 540 m 256
 294 563 279 579 256 579 c 256
 233 579 217 563 217 540 c 256
 217 517 233 501 256 501 c 256
 279 501 294 517 294 540 c 256
  PathStart: -2
EndSplineSet
EndChar

StartChar: Atilde
Encoding: 16 195 16
GlifName: A_tilde
Width: 511
VWidth: 0
Flags: W
LayerCount: 2
Back
Fore
SplineSet
295 489 m 257
 511 0 l 257
 420 0 l 257
 370 111 l 257
 136 111 l 257
 88 0 l 257
 0 0 l 257
 216 489 l 257
 295 489 l 257
337 188 m 257
 253 376 l 257
 170 188 l 257
 337 188 l 257
256 545 m 256
 234 555 221 561 214 561 c 256
 199 561 191 550 190 530 c 257
 139 530 l 257
 139 584 162 621 201 621 c 256
 214 621 231 615 253 605 c 256
 276 594 291 588 298 588 c 256
 312 588 319 599 319 619 c 257
 371 619 l 257
 370 558 348 528 307 528 c 256
 295 528 278 533 256 545 c 256
  PathStart: -2
EndSplineSet
EndChar

StartChar: AuMatra
Encoding: 17 3148 17
GlifName: A_uM_atra
Width: 604
VWidth: 0
Flags: W
LayerCount: 2
Back
Fore
SplineSet
456 243 m 256
NamedP: "hr00"
 443 243 431 248 421 259 c 256
 412 270 407 283 407 298 c 256
 407 311 412 323 421 333 c 257
 431 342 443 346 456 346 c 256
 469 346 481 342 491 333 c 257
 500 323 505 311 505 298 c 256
 505 283 500 270 491 259 c 256
 481 248 469 243 456 243 c 256
NamedP: "hr00"
347 298 m 256
 347 268 356 242 378 220 c 256
 400 198 426 189 456 189 c 256
 489 189 518 201 542 226 c 256
 565 251 577 281 577 316 c 256
 577 373 561 422 525 463 c 256
 490 503 446 523 396 523 c 258
 -168 523 l 257
 -168 461 l 257
 111 461 l 258
 116 461 120 459 125 456 c 256
 128 453 130 449 130 444 c 256
 130 439 127 434 122 430 c 256
 117 427 112 425 105 425 c 258
 -104 425 l 257
 -104 364 l 257
 105 364 l 258
 130 364 151 371 170 385 c 257
 187 400 196 418 196 438 c 256
 196 442 195 446 192 450 c 257
 191 454 188 458 183 461 c 257
 396 461 l 258
 424 461 448 454 468 441 c 256
 488 429 498 414 498 395 c 257
 495 397 489 399 481 400 c 256
 472 401 462 401 450 401 c 256
 421 401 397 391 377 371 c 256
 357 350 347 326 347 298 c 256
EndSplineSet
EndChar

StartChar: Avagraha
Encoding: 18 3133 18
GlifName: A_vagraha
Width: 710
VWidth: 0
Flags: W
LayerCount: 2
Back
Fore
SplineSet
693 75 m 257
NamedP: "hr00"
 192 75 l 258
 163 75 140 83 122 94 c 256
 103 105 94 118 94 133 c 256
 95 154 102 171 117 185 c 256
 130 198 149 204 172 205 c 256
 235 207 288 222 330 249 c 256
 373 278 395 314 395 356 c 256
 395 409 377 454 339 488 c 256
 298 524 249 541 195 541 c 256
 152 541 115 528 86 502 c 256
 57 477 42 445 42 407 c 256
 42 380 55 358 77 339 c 256
 101 319 128 308 160 308 c 256
 197 308 226 320 247 344 c 257
 272 367 284 395 284 428 c 257
 276 467 l 257
 296 454 312 438 323 419 c 256
 334 402 340 384 340 363 c 256
 340 337 325 313 293 293 c 256
 262 274 222 266 177 266 c 256
 137 266 104 252 74 227 c 256
 45 202 30 172 30 134 c 256
 31 93 47 59 76 31 c 256
 106 3 141 -13 184 -13 c 258
 690 -13 l 257
 691 -13 692 -13 693 -12 c 257
 693 75 l 257
NamedP: "hr00"
231 425 m 256
 231 408 224 393 211 380 c 256
 198 367 182 360 165 360 c 256
 148 360 133 367 120 380 c 256
 107 393 101 408 101 425 c 256
 101 443 108 458 120 472 c 256
 132 485 146 492 165 492 c 256
 184 492 199 485 211 472 c 256
 224 459 231 443 231 425 c 256
EndSplineSet
EndChar

StartChar: B
Encoding: 19 66 19
GlifName: B_
Width: 494
VWidth: 0
Flags: W
LayerCount: 2
Back
Fore
SplineSet
68 0 m 257
 68 489 l 257
 258 489 l 258
 325 489 375 472 398 445 c 256
 420 420 431 391 431 360 c 256
 431 321 419 293 395 274 c 256
 377 261 376 262 359 254 c 257
 420 241 458 197 458 136 c 256
 458 68 416 0 282 0 c 258
 68 0 l 257
151 286 m 257
 255 286 l 258
 315 286 345 307 345 347 c 256
 345 394 317 413 256 413 c 258
 151 413 l 257
 151 286 l 257
151 76 m 257
 280 76 l 258
 341 76 374 92 374 145 c 256
 374 188 339 210 270 210 c 258
 151 210 l 257
 151 76 l 257
EndSplineSet
EndChar

StartChar: Ba
Encoding: 20 3116 20
GlifName: B_a
Width: 593
VWidth: 0
Flags: W
AnchorPoint: "Anchor-0" 0 0 basechar 0
LayerCount: 2
Back
Fore
SplineSet
76 39 m 256
NamedP: "hr00"
 107 13 145 0 188 0 c 256
 215 0 239 6 260 15 c 256
 282 25 299 38 310 55 c 257
 322 38 338 24 358 15 c 256
 379 5 401 0 425 0 c 256
 467 0 504 20 533 60 c 256
 563 101 576 149 576 206 c 256
 576 266 561 318 529 361 c 256
 497 404 458 425 413 425 c 258
 364 425 l 257
 364 364 l 257
 413 364 l 258
 441 364 466 349 486 320 c 256
 507 290 516 254 516 213 c 256
 516 167 507 130 490 103 c 256
 472 75 448 61 419 61 c 256
 399 61 383 68 368 83 c 256
 353 98 346 114 346 134 c 258
 346 183 l 257
 285 183 l 257
 285 151 l 258
 285 126 275 105 256 88 c 256
 237 70 215 61 188 61 c 256
 161 61 139 68 120 83 c 256
 101 97 91 114 91 134 c 256
 91 152 99 169 114 185 c 256
 128 201 147 213 170 219 c 256
 197 227 219 240 236 260 c 256
 253 281 261 303 261 328 c 256
 261 355 250 377 229 396 c 256
 207 415 181 425 151 425 c 256
 121 425 95 415 74 396 c 256
 53 377 43 355 43 328 c 258
 43 304 l 257
 103 304 l 257
 103 321 l 258
 103 334 107 346 116 356 c 257
 126 365 138 370 151 370 c 256
 164 370 176 366 186 358 c 257
 195 349 200 339 200 328 c 256
 200 312 194 298 181 285 c 256
 169 272 153 264 134 261 c 256
 104 256 78 242 59 218 c 256
 39 193 30 165 30 134 c 256
 30 97 45 66 76 39 c 256
NamedP: "hr00"
EndSplineSet
EndChar

StartChar: BaAA
Encoding: 21 -1 21
GlifName: B_aA_A_
Width: 898
VWidth: 0
Flags: W
AnchorPoint: "Anchor-0" 0 0 basechar 0
LayerCount: 2
Back
Fore
SplineSet
711 365 m 258
NamedP: "hr00"
 734 365 754 358 771 345 c 256
 789 331 800 314 803 293 c 257
 788 301 772 305 754 305 c 256
 725 305 701 296 680 275 c 256
 659 254 650 230 650 201 c 256
 650 171 661 145 683 124 c 256
 704 103 730 93 760 93 c 256
 793 93 823 105 846 131 c 256
 870 157 881 189 881 226 c 256
 881 281 864 329 831 368 c 256
 798 407 758 426 711 426 c 258
 356 426 l 257
 356 365 l 257
 378 365 l 257
 381 364 385 364 389 364 c 258
 406 364 l 258
 436 364 463 349 484 320 c 256
 506 290 516 254 516 213 c 256
 516 167 507 130 490 103 c 256
 472 75 448 61 419 61 c 256
 399 61 383 68 368 83 c 256
 353 98 346 114 346 134 c 258
 346 183 l 257
 285 183 l 257
 285 151 l 258
 285 126 275 105 256 88 c 256
 237 70 215 61 188 61 c 256
 161 61 139 68 120 83 c 256
 101 97 91 114 91 134 c 256
 91 152 99 169 114 185 c 256
 128 201 147 213 170 219 c 256
 197 227 219 240 236 260 c 256
 253 281 261 303 261 328 c 256
 261 355 250 377 229 396 c 256
 207 415 181 425 151 425 c 256
 121 425 95 415 74 396 c 256
 53 377 43 355 43 328 c 258
 43 304 l 257
 103 304 l 257
 103 321 l 258
 103 334 107 346 116 356 c 257
 126 365 138 370 151 370 c 256
 164 370 176 366 186 358 c 257
 195 349 200 339 200 328 c 256
 200 312 194 298 181 285 c 256
 169 272 153 264 134 261 c 256
 104 256 78 242 59 218 c 256
 39 193 30 165 30 134 c 256
 30 97 45 66 76 39 c 256
 107 13 145 0 188 0 c 256
 215 0 239 6 260 15 c 256
 282 25 299 38 310 55 c 257
 322 38 337 24 356 15 c 256
 375 5 396 0 419 0 c 256
 462 0 499 21 530 63 c 256
 561 104 576 154 576 213 c 256
 576 271 559 321 526 363 c 256
 524 365 l 257
 711 365 l 258
NamedP: "hr00"
794 161 m 256
 785 152 773 148 760 148 c 256
 747 148 735 152 725 161 c 256
 716 170 711 182 711 195 c 256
 711 208 716 220 725 230 c 257
 735 239 747 244 760 244 c 256
 773 244 785 239 794 230 c 256
 803 220 808 208 808 195 c 256
 808 182 803 170 794 161 c 256
EndSplineSet
Ligature2: "'abvs' Above Base Substitutions in Telugu lookup 9 subtable" Ba AAMatra
EndChar

StartChar: BaAU
Encoding: 22 -1 22
GlifName: B_aA_U_
Width: 902
VWidth: 0
Flags: W
AnchorPoint: "Anchor-0" 0 0 basechar 0
LayerCount: 2
Back
Fore
SplineSet
517 373 m 257
NamedP: "hr00"
 524 376 531 380 538 385 c 256
 555 400 564 418 564 438 c 256
 564 442 563 446 560 450 c 257
 559 454 556 458 551 461 c 257
 703 461 l 258
 731 461 755 454 776 441 c 256
 796 429 806 414 806 395 c 257
 803 397 797 399 789 400 c 256
 780 401 770 401 758 401 c 256
 729 401 705 391 685 371 c 256
 665 350 655 326 655 298 c 256
 655 268 664 242 686 220 c 256
 708 198 734 189 764 189 c 256
 797 189 826 201 850 226 c 256
 873 251 885 281 885 316 c 256
 885 373 867 422 831 463 c 256
 796 503 753 523 703 523 c 258
 273 523 l 257
 273 461 l 257
 479 461 l 258
 484 461 488 459 493 456 c 256
 496 453 498 449 498 444 c 256
 498 439 495 434 490 430 c 256
 485 427 480 425 473 425 c 258
 376 425 l 257
 376 423 l 257
 365 420 359 410 359 395 c 256
 359 379 365 369 376 365 c 257
 376 364 l 257
 406 364 l 258
 436 364 463 349 484 320 c 256
 506 290 516 254 516 213 c 256
 516 167 507 130 490 103 c 256
 472 75 448 61 419 61 c 256
 399 61 383 68 368 83 c 256
 353 98 346 114 346 134 c 258
 346 183 l 257
 285 183 l 257
 285 151 l 258
 285 126 275 105 256 88 c 256
 237 70 215 61 188 61 c 256
 161 61 139 68 120 83 c 256
 101 97 91 114 91 134 c 256
 91 152 99 169 114 185 c 256
 128 201 147 213 170 219 c 256
 197 227 219 240 236 260 c 256
 253 281 261 303 261 328 c 256
 261 355 250 377 229 396 c 256
 207 415 181 425 151 425 c 256
 121 425 95 415 74 396 c 256
 53 377 43 355 43 328 c 258
 43 304 l 257
 103 304 l 257
 103 321 l 258
 103 334 107 346 116 356 c 257
 126 365 138 370 151 370 c 256
 164 370 176 366 186 358 c 257
 195 349 200 339 200 328 c 256
 200 312 194 298 181 285 c 256
 169 272 153 264 134 261 c 256
 104 256 78 242 59 218 c 256
 39 193 30 165 30 134 c 256
 30 97 45 66 76 39 c 256
 107 13 145 0 188 0 c 256
 215 0 239 6 260 15 c 256
 282 25 299 38 310 55 c 257
 322 38 337 24 356 15 c 256
 375 5 396 0 419 0 c 256
 462 0 499 21 530 63 c 256
 561 104 576 154 576 213 c 256
 576 271 562 323 526 363 c 258
 517 373 l 257
NamedP: "hr00"
799 259 m 256
 789 248 777 243 764 243 c 256
 751 243 739 248 729 259 c 256
 720 270 715 283 715 298 c 256
 715 311 720 323 729 333 c 257
 739 342 751 346 764 346 c 256
 777 346 789 342 799 333 c 257
 808 323 813 311 813 298 c 256
 813 283 808 270 799 259 c 256
EndSplineSet
Ligature2: "'abvs' Above Base Substitutions in Telugu lookup 16 subtable" Ba AuMatra
EndChar

StartChar: BaE
Encoding: 23 -1 23
GlifName: B_aE_
Width: 593
VWidth: 0
Flags: W
AnchorPoint: "Anchor-1" 0 0 basechar 0
AnchorPoint: "Anchor-0" 0 0 basechar 0
LayerCount: 2
Back
Fore
SplineSet
517 374 m 257
NamedP: "hr00"
 528 379 537 385 546 394 c 256
 566 413 576 436 576 463 c 256
 576 490 566 512 546 531 c 256
 526 550 502 560 474 560 c 258
 101 560 l 257
 101 499 l 257
 474 499 l 258
 484 499 493 496 500 489 c 256
 507 482 510 473 510 463 c 256
 510 453 507 444 500 436 c 256
 493 429 484 426 474 426 c 258
 344 426 l 257
 344 365 l 257
 378 365 l 257
 381 364 385 364 389 364 c 258
 406 364 l 258
 436 364 463 349 484 320 c 256
 506 290 516 254 516 213 c 256
 516 167 507 130 490 103 c 256
 472 75 448 61 419 61 c 256
 399 61 383 68 368 83 c 256
 353 98 346 114 346 134 c 258
 346 183 l 257
 285 183 l 257
 285 151 l 258
 285 126 275 105 256 88 c 256
 237 70 215 61 188 61 c 256
 161 61 139 68 120 83 c 256
 101 97 91 114 91 134 c 256
 91 152 99 169 114 185 c 256
 128 201 147 213 170 219 c 256
 197 227 219 240 236 260 c 256
 253 281 261 303 261 328 c 256
 261 355 250 377 229 396 c 256
 207 415 181 425 151 425 c 256
 121 425 95 415 74 396 c 256
 53 377 43 355 43 328 c 258
 43 304 l 257
 103 304 l 257
 103 321 l 258
 103 334 107 346 116 356 c 257
 126 365 138 370 151 370 c 256
 164 370 176 366 186 358 c 257
 195 349 200 339 200 328 c 256
 200 312 194 298 181 285 c 256
 169 272 153 264 134 261 c 256
 104 256 78 242 59 218 c 256
 39 193 30 165 30 134 c 256
 30 97 45 66 76 39 c 256
 107 13 145 0 188 0 c 256
 215 0 239 6 260 15 c 256
 282 25 299 38 310 55 c 257
 322 38 337 24 356 15 c 256
 375 5 396 0 419 0 c 256
 462 0 499 21 530 63 c 256
 561 104 576 154 576 213 c 256
 576 271 560 322 526 363 c 258
 517 374 l 257
NamedP: "hr00"
EndSplineSet
PairPos2: "'blwm' Below Base Mark in Telugu lookup 14 subtable" Titvam dx=0 dy=0 dh=18 dv=0 dx=-774 dy=-25 dh=0 dv=0
PairPos2: "'blwm' Below Base Mark in Telugu lookup 0 subtable" tvam dx=0 dy=0 dh=0 dv=0 dx=-830 dy=20 dh=0 dv=0
Ligature2: "'abvs' Above Base Substitutions in Telugu lookup 12 subtable" Ba uni0C46
EndChar

StartChar: BaEE
Encoding: 24 -1 24
GlifName: B_aE_E_
Width: 593
VWidth: 0
Flags: W
AnchorPoint: "Anchor-0" 0 0 basechar 0
LayerCount: 2
Back
Fore
SplineSet
517 374 m 257
NamedP: "hr00"
 528 379 537 385 546 394 c 256
 566 413 576 436 576 463 c 256
 576 490 567 512 550 531 c 256
 532 550 510 560 485 560 c 257
 485 584 l 258
 485 591 488 596 493 601 c 256
 498 606 503 609 510 609 c 258
 559 609 l 257
 559 669 l 257
 485 669 l 258
 468 669 455 663 443 651 c 256
 431 639 425 626 425 609 c 258
 425 560 l 257
 101 560 l 257
 101 499 l 257
 474 499 l 258
 484 499 493 496 500 489 c 256
 507 482 510 473 510 463 c 256
 510 453 507 444 500 436 c 256
 493 429 484 426 474 426 c 258
 344 426 l 257
 344 365 l 257
 378 365 l 257
 406 365 l 258
 436 365 463 349 484 320 c 256
 506 290 516 254 516 213 c 256
 516 167 507 130 490 103 c 256
 472 75 448 61 419 61 c 256
 399 61 383 68 368 83 c 256
 353 98 346 114 346 134 c 258
 346 183 l 257
 285 183 l 257
 285 151 l 258
 285 126 275 105 256 88 c 256
 237 70 215 61 188 61 c 256
 161 61 139 68 120 83 c 256
 101 97 91 114 91 134 c 256
 91 152 99 169 114 185 c 256
 128 201 147 213 170 219 c 256
 197 227 219 240 236 260 c 256
 253 281 261 303 261 328 c 256
 261 355 250 377 229 396 c 256
 207 415 181 425 151 425 c 256
 121 425 95 415 74 396 c 256
 53 377 43 355 43 328 c 258
 43 304 l 257
 103 304 l 257
 103 321 l 258
 103 334 107 346 116 356 c 257
 126 365 138 370 151 370 c 256
 164 370 176 366 186 358 c 257
 195 349 200 339 200 328 c 256
 200 312 194 298 181 285 c 256
 169 272 153 264 134 261 c 256
 104 256 78 242 59 218 c 256
 39 193 30 165 30 134 c 256
 30 97 45 66 76 39 c 256
 107 13 145 0 188 0 c 256
 215 0 239 6 260 15 c 256
 282 25 299 38 310 55 c 257
 322 38 337 24 356 15 c 256
 375 5 396 0 419 0 c 256
 462 0 499 21 530 63 c 256
 561 104 576 154 576 213 c 256
 576 271 560 322 526 363 c 258
 517 374 l 257
NamedP: "hr00"
EndSplineSet
Ligature2: "'abvs' Above Base Substitutions in Telugu lookup 13 subtable" Ba EEMatra
EndChar

StartChar: BaHalanth
Encoding: 25 -1 25
GlifName: B_aH_alanth
Width: 610
VWidth: 0
Flags: W
AnchorPoint: "Anchor-0" 0 0 basechar 0
LayerCount: 2
Back
Fore
SplineSet
394 425 m 258
NamedP: "hr00"
 385 425 378 428 373 434 c 256
 367 440 364 447 364 455 c 256
 364 464 367 471 374 478 c 257
 381 483 390 486 400 486 c 258
 531 486 l 257
 531 534 l 257
 388 534 l 258
 381 534 376 536 371 541 c 256
 366 546 364 552 364 559 c 256
 364 566 367 571 374 575 c 256
 381 580 390 583 400 583 c 258
 593 583 l 257
 593 644 l 257
 369 644 l 258
 350 644 335 636 323 621 c 256
 310 606 303 587 303 565 c 256
 303 554 305 544 309 534 c 256
 313 525 319 517 326 510 c 257
 319 503 313 495 309 485 c 256
 305 474 303 462 303 449 c 256
 303 426 311 405 329 389 c 256
 343 375 360 368 379 365 c 256
 382 364 385 364 389 364 c 258
 406 364 l 258
 436 364 463 349 484 320 c 256
 506 290 516 254 516 213 c 256
 516 167 507 130 490 103 c 256
 472 75 448 61 419 61 c 256
 399 61 383 68 368 83 c 256
 353 98 346 114 346 134 c 258
 346 183 l 257
 285 183 l 257
 285 151 l 258
 285 126 275 105 256 88 c 256
 237 70 215 61 188 61 c 256
 161 61 139 68 120 83 c 256
 101 97 91 114 91 134 c 256
 91 152 99 169 114 185 c 256
 128 201 147 213 170 219 c 256
 197 227 219 240 236 260 c 256
 253 281 261 303 261 328 c 256
 261 355 250 377 229 396 c 256
 207 415 181 425 151 425 c 256
 121 425 95 415 74 396 c 256
 53 377 43 355 43 328 c 258
 43 304 l 257
 103 304 l 257
 103 321 l 258
 103 334 107 346 116 356 c 257
 126 365 138 370 151 370 c 256
 164 370 176 366 186 358 c 257
 195 349 200 339 200 328 c 256
 200 312 194 298 181 285 c 256
 169 272 153 264 134 261 c 256
 104 256 78 242 59 218 c 256
 39 193 30 165 30 134 c 256
 30 97 45 66 76 39 c 256
 107 13 145 0 188 0 c 256
 215 0 239 6 260 15 c 256
 282 25 299 38 310 55 c 257
 322 38 337 24 356 15 c 256
 375 5 396 0 419 0 c 256
 462 0 499 21 530 63 c 256
 561 104 576 154 576 213 c 256
 576 271 559 321 526 363 c 256
 495 401 459 425 418 425 c 258
 394 425 l 258
NamedP: "hr00"
EndSplineSet
Ligature2: "'haln' Halant Forms in Telugu lookup 19 subtable" Ba Halanth
EndChar

StartChar: BaI
Encoding: 26 -1 26
GlifName: B_aI_
Width: 642
VWidth: 0
Flags: W
AnchorPoint: "Anchor-0" 0 0 basechar 0
LayerCount: 2
Back
Fore
SplineSet
78 39 m 256
NamedP: "hr00"
 110 13 149 0 194 0 c 256
 219 0 241 6 261 15 c 256
 282 25 299 38 310 55 c 257
 322 38 339 24 360 15 c 256
 381 5 404 0 431 0 c 256
 484 0 531 20 569 64 c 256
 607 107 625 159 625 219 c 256
 625 276 607 324 570 365 c 256
 533 405 489 425 438 425 c 256
 405 425 378 417 355 400 c 256
 332 383 321 363 321 340 c 256
 321 317 331 297 350 280 c 256
 369 263 392 255 419 255 c 256
 444 255 465 262 484 275 c 256
 501 288 510 303 510 321 c 256
 510 326 508 335 504 346 c 257
 523 332 538 314 549 291 c 256
 560 269 565 245 565 219 c 256
 565 176 552 139 526 108 c 256
 499 77 468 61 431 61 c 256
 408 61 388 68 371 83 c 256
 354 97 346 114 346 134 c 258
 346 183 l 257
 285 183 l 257
 285 151 l 258
 285 126 275 105 256 88 c 256
 237 70 215 61 188 61 c 256
 161 61 139 68 120 83 c 256
 101 97 91 114 91 134 c 256
 91 152 99 169 114 185 c 256
 128 201 147 213 170 219 c 256
 197 227 219 240 236 260 c 256
 253 281 261 303 261 328 c 256
 261 355 250 377 229 396 c 256
 207 415 181 425 151 425 c 256
 121 425 95 415 74 396 c 256
 53 377 43 355 43 328 c 258
 43 304 l 257
 103 304 l 257
 103 321 l 258
 103 334 107 346 116 356 c 257
 126 365 138 370 151 370 c 256
 164 370 176 366 186 358 c 257
 195 349 200 339 200 328 c 256
 200 312 194 298 181 285 c 256
 169 272 153 264 134 261 c 256
 104 256 78 242 59 218 c 256
 39 193 30 165 30 134 c 256
 30 97 46 66 78 39 c 256
NamedP: "hr00"
445 313 m 256
 438 307 429 304 419 304 c 256
 409 304 400 307 393 313 c 256
 386 318 383 325 383 334 c 256
 383 342 386 349 393 355 c 256
 400 361 409 364 419 364 c 256
 429 364 438 361 445 355 c 256
 452 349 455 342 455 334 c 256
 455 325 452 318 445 313 c 256
EndSplineSet
Ligature2: "'abvs' Above Base Substitutions in Telugu lookup 10 subtable" Ba Imatra
EndChar

StartChar: BaII
Encoding: 27 -1 27
GlifName: B_aI_I_
Width: 642
VWidth: 0
Flags: W
AnchorPoint: "Anchor-0" 0 0 basechar 0
LayerCount: 2
Back
Fore
SplineSet
78 39 m 256
NamedP: "hr00"
 110 13 149 0 194 0 c 256
 219 0 241 6 261 15 c 256
 282 25 299 38 310 55 c 257
 322 38 339 24 360 15 c 256
 381 5 404 0 431 0 c 256
 484 0 531 20 569 64 c 256
 607 107 625 159 625 219 c 256
 625 276 608 324 575 365 c 256
 542 405 502 425 455 425 c 257
 451 432 449 439 449 444 c 256
 449 452 453 459 461 465 c 256
 470 471 480 474 491 474 c 256
 501 474 510 471 518 465 c 256
 525 459 528 452 528 444 c 257
 589 444 l 257
 589 469 579 490 560 508 c 256
 541 525 518 534 491 534 c 256
 463 534 439 525 419 508 c 256
 399 490 389 469 389 444 c 256
 389 439 391 430 395 419 c 257
 374 415 357 406 343 391 c 256
 329 375 321 359 321 340 c 256
 321 317 331 297 350 280 c 256
 369 263 392 255 419 255 c 256
 444 255 465 262 484 275 c 256
 501 288 510 303 510 321 c 256
 510 326 508 335 504 346 c 257
 523 332 538 314 549 291 c 256
 560 269 565 245 565 219 c 256
 565 176 552 139 526 108 c 256
 499 77 468 61 431 61 c 256
 408 61 388 68 371 83 c 256
 354 97 346 114 346 134 c 258
 346 183 l 257
 285 183 l 257
 285 151 l 258
 285 126 275 105 256 88 c 256
 237 70 215 61 188 61 c 256
 161 61 139 68 120 83 c 256
 101 97 91 114 91 134 c 256
 91 152 99 169 114 185 c 256
 128 201 147 213 170 219 c 256
 197 227 219 240 236 260 c 256
 253 281 261 303 261 328 c 256
 261 355 250 377 229 396 c 256
 207 415 181 425 151 425 c 256
 121 425 95 415 74 396 c 256
 53 377 43 355 43 328 c 258
 43 304 l 257
 103 304 l 257
 103 321 l 258
 103 334 107 346 116 356 c 257
 126 365 138 370 151 370 c 256
 164 370 176 366 186 358 c 257
 195 349 200 339 200 328 c 256
 200 312 194 298 181 285 c 256
 169 272 153 264 134 261 c 256
 104 256 78 242 59 218 c 256
 39 193 30 165 30 134 c 256
 30 97 46 66 78 39 c 256
NamedP: "hr00"
445 313 m 256
 438 307 429 304 419 304 c 256
 409 304 400 307 393 313 c 256
 386 318 383 325 383 334 c 256
 383 342 386 349 393 355 c 256
 400 361 409 364 419 364 c 256
 429 364 438 361 445 355 c 256
 452 349 455 342 455 334 c 256
 455 325 452 318 445 313 c 256
EndSplineSet
Ligature2: "'abvs' Above Base Substitutions in Telugu lookup 11 subtable" Ba IIMatra
EndChar

StartChar: BaO
Encoding: 28 -1 28
GlifName: B_aO_
Width: 903
VWidth: 0
Flags: W
AnchorPoint: "Anchor-0" 0 0 basechar 0
LayerCount: 2
Back
Fore
SplineSet
394 425 m 258
NamedP: "hr00"
 385 425 378 428 373 433 c 257
 367 437 364 442 364 449 c 256
 364 459 372 468 389 475 c 256
 406 482 426 486 449 486 c 256
 486 486 515 478 538 461 c 256
 559 444 570 422 570 395 c 258
 570 376 l 257
 631 376 l 257
 631 406 l 258
 631 423 639 438 654 450 c 256
 670 463 689 468 710 468 c 256
 735 468 758 461 778 444 c 256
 797 428 808 407 813 383 c 257
 805 388 797 393 788 396 c 256
 779 399 769 401 759 401 c 256
 730 401 705 390 685 369 c 256
 664 347 655 321 655 291 c 256
 655 261 666 235 689 214 c 256
 712 193 739 183 770 183 c 256
 803 183 831 197 853 226 c 256
 876 256 886 292 886 334 c 256
 886 388 869 434 835 471 c 256
 800 510 759 529 710 529 c 256
 683 529 659 525 638 516 c 256
 617 507 602 495 594 480 c 257
 579 501 558 517 533 529 c 256
 508 540 480 546 449 546 c 256
 409 546 374 537 345 518 c 256
 317 499 303 476 303 449 c 256
 303 426 311 405 329 389 c 256
 343 375 360 368 379 365 c 256
 382 364 385 364 389 364 c 258
 406 364 l 258
 436 364 463 349 484 320 c 256
 506 290 516 254 516 213 c 256
 516 167 507 130 490 103 c 256
 472 75 448 61 419 61 c 256
 399 61 383 68 368 83 c 256
 353 98 346 114 346 134 c 258
 346 183 l 257
 285 183 l 257
 285 151 l 258
 285 126 275 105 256 88 c 256
 237 70 215 61 188 61 c 256
 161 61 139 68 120 83 c 256
 101 97 91 114 91 134 c 256
 91 152 99 169 114 185 c 256
 128 201 147 213 170 219 c 256
 197 227 219 240 236 260 c 256
 253 281 261 303 261 328 c 256
 261 355 250 377 229 396 c 256
 207 415 181 425 151 425 c 256
 121 425 95 415 74 396 c 256
 53 377 43 355 43 328 c 258
 43 304 l 257
 103 304 l 257
 103 321 l 258
 103 334 107 346 116 356 c 257
 126 365 138 370 151 370 c 256
 164 370 176 366 186 358 c 257
 195 349 200 339 200 328 c 256
 200 312 194 298 181 285 c 256
 169 272 153 264 134 261 c 256
 104 256 78 242 59 218 c 256
 39 193 30 165 30 134 c 256
 30 97 45 66 76 39 c 256
 107 13 145 0 188 0 c 256
 215 0 239 6 260 15 c 256
 282 25 299 38 310 55 c 257
 322 38 337 24 356 15 c 256
 375 5 396 0 419 0 c 256
 462 0 499 21 530 63 c 256
 561 104 576 154 576 213 c 256
 576 271 559 321 526 363 c 256
 495 401 459 425 418 425 c 258
 394 425 l 258
NamedP: "hr00"
799 253 m 256
 789 242 777 236 764 236 c 256
 751 236 739 242 730 253 c 256
 721 264 716 276 716 291 c 256
 716 304 721 316 730 326 c 256
 739 335 751 340 764 340 c 256
 777 340 789 335 799 326 c 257
 808 316 813 304 813 291 c 256
 813 276 808 264 799 253 c 256
EndSplineSet
Ligature2: "'abvs' Above Base Substitutions in Telugu lookup 14 subtable" Ba OMatra
EndChar

StartChar: BaOO
Encoding: 29 -1 29
GlifName: B_aO_O_
Width: 903
VWidth: 0
Flags: W
AnchorPoint: "Anchor-0" 0 0 basechar 0
LayerCount: 2
Back
Fore
SplineSet
394 425 m 258
NamedP: "hr00"
 384 425 375 428 368 433 c 256
 361 437 358 442 358 449 c 256
 358 459 367 468 386 475 c 256
 405 482 428 486 455 486 c 256
 490 486 518 479 539 465 c 256
 560 450 570 431 570 406 c 258
 570 376 l 257
 631 376 l 257
 631 406 l 258
 631 423 639 438 654 450 c 256
 670 463 689 468 710 468 c 256
 735 468 758 461 778 444 c 256
 797 428 808 407 813 383 c 257
 805 388 797 393 788 396 c 256
 779 399 769 401 759 401 c 256
 730 401 705 390 685 369 c 256
 664 347 655 321 655 291 c 256
 655 261 666 235 689 214 c 256
 712 193 739 183 770 183 c 256
 803 183 831 197 853 226 c 256
 876 256 886 292 886 334 c 256
 886 380 874 420 849 455 c 256
 824 490 792 513 753 523 c 257
 753 546 l 258
 753 556 756 565 763 573 c 256
 770 580 779 583 789 583 c 256
 799 583 808 580 815 575 c 256
 822 571 825 566 825 559 c 257
 886 559 l 257
 886 582 877 602 858 619 c 256
 839 636 816 644 789 644 c 256
 762 644 739 636 720 619 c 256
 701 602 691 582 691 559 c 258
 691 523 l 257
 679 523 l 258
 662 523 647 518 633 511 c 256
 618 503 607 493 600 480 c 257
 585 501 565 517 539 529 c 256
 514 540 486 546 455 546 c 256
 411 546 374 537 343 518 c 256
 312 499 296 476 296 449 c 256
 296 426 306 406 325 389 c 256
 341 375 359 367 380 365 c 257
 383 364 386 364 389 364 c 258
 406 364 l 258
 436 364 463 349 484 320 c 256
 506 290 516 254 516 213 c 256
 516 167 507 130 490 103 c 256
 472 75 448 61 419 61 c 256
 399 61 383 68 368 83 c 256
 353 98 346 114 346 134 c 258
 346 183 l 257
 285 183 l 257
 285 151 l 258
 285 126 275 105 256 88 c 256
 237 70 215 61 188 61 c 256
 161 61 139 68 120 83 c 256
 101 97 91 114 91 134 c 256
 91 152 99 169 114 185 c 256
 128 201 147 213 170 219 c 256
 197 227 219 240 236 260 c 256
 253 281 261 303 261 328 c 256
 261 355 250 377 229 396 c 256
 207 415 181 425 151 425 c 256
 121 425 95 415 74 396 c 256
 53 377 43 355 43 328 c 258
 43 304 l 257
 103 304 l 257
 103 321 l 258
 103 334 107 346 116 356 c 257
 126 365 138 370 151 370 c 256
 164 370 176 366 186 358 c 257
 195 349 200 339 200 328 c 256
 200 312 194 298 181 285 c 256
 169 272 153 264 134 261 c 256
 104 256 78 242 59 218 c 256
 39 193 30 165 30 134 c 256
 30 97 45 66 76 39 c 256
 107 13 145 0 188 0 c 256
 215 0 239 6 260 15 c 256
 282 25 299 38 310 55 c 257
 322 38 337 24 356 15 c 256
 375 5 396 0 419 0 c 256
 462 0 499 21 530 63 c 256
 561 104 576 154 576 213 c 256
 576 271 559 321 526 363 c 256
 495 401 459 425 418 425 c 258
 394 425 l 258
NamedP: "hr00"
799 253 m 256
 789 242 777 236 764 236 c 256
 751 236 739 242 730 253 c 256
 721 264 716 276 716 291 c 256
 716 304 721 316 730 326 c 256
 739 335 751 340 764 340 c 256
 777 340 789 335 799 326 c 257
 808 316 813 304 813 291 c 256
 813 276 808 264 799 253 c 256
EndSplineSet
Ligature2: "'abvs' Above Base Substitutions in Telugu lookup 15 subtable" Ba OOMatra
EndChar

StartChar: BaOttu
Encoding: 30 -1 30
GlifName: B_aO_ttu
Width: 201
VWidth: 0
Flags: W
LayerCount: 2
Back
Fore
SplineSet
-109 -278 m 256
NamedP: "hr00"
 -89 -278 -72 -275 -58 -269 c 256
 -44 -264 -34 -257 -28 -248 c 257
 -22 -257 -13 -264 0 -269 c 256
 14 -275 29 -278 45 -278 c 256
 84 -278 115 -263 139 -232 c 256
 162 -202 174 -162 174 -111 c 256
 174 -55 160 -7 130 32 c 256
 100 71 62 91 19 91 c 257
 19 39 l 257
 46 39 69 24 88 -7 c 256
 107 -38 116 -74 116 -117 c 256
 116 -146 109 -172 95 -193 c 256
 81 -214 64 -225 45 -225 c 256
 32 -225 21 -221 11 -212 c 257
 2 -202 -2 -191 -2 -178 c 258
 -2 -164 l 257
 -54 -164 l 257
 -54 -178 l 258
 -54 -191 -59 -202 -70 -211 c 256
 -83 -220 -97 -225 -113 -225 c 256
 -122 -225 -131 -222 -138 -217 c 256
 -144 -213 -147 -208 -147 -202 c 256
 -147 -193 -144 -185 -137 -178 c 256
 -128 -170 -118 -164 -106 -161 c 256
 -89 -156 -76 -148 -65 -135 c 256
 -55 -123 -50 -109 -50 -93 c 256
 -50 -76 -57 -61 -71 -48 c 256
 -84 -36 -100 -30 -119 -30 c 256
 -142 -30 -161 -36 -176 -47 c 256
 -192 -60 -200 -76 -200 -93 c 258
 -200 -108 l 257
 -147 -108 l 257
 -147 -99 -145 -91 -140 -84 c 256
 -136 -79 -131 -76 -125 -76 c 256
 -119 -76 -114 -78 -109 -81 c 256
 -104 -85 -102 -89 -102 -93 c 256
 -102 -99 -105 -105 -110 -110 c 256
 -116 -115 -124 -118 -133 -121 c 256
 -152 -126 -167 -136 -180 -151 c 256
 -193 -166 -200 -183 -200 -202 c 256
 -200 -223 -191 -241 -173 -256 c 256
 -154 -271 -133 -278 -109 -278 c 256
NamedP: "hr00"
EndSplineSet
Ligature2: "'blwf' Below Base Forms in Telugu lookup 2 subtable" Ba Halanth
EndChar

StartChar: BaU
Encoding: 31 -1 31
GlifName: B_aU_
Width: 900
VWidth: 0
Flags: W
AnchorPoint: "Anchor-3" 0 0 basechar 0
AnchorPoint: "Anchor-0" 0 0 basechar 0
LayerCount: 2
Back
Fore
SplineSet
543 76 m 257
NamedP: "hr00"
 554 59 569 43 586 31 c 256
 617 9 651 0 688 0 c 256
 742 0 787 22 825 63 c 256
 863 105 883 154 883 213 c 256
 883 271 866 321 831 363 c 256
 796 404 755 425 706 425 c 258
 689 425 l 257
 689 364 l 257
 713 364 l 258
 743 364 769 349 790 320 c 256
 811 290 821 254 821 213 c 256
 821 171 809 134 783 105 c 256
 757 75 725 61 688 61 c 256
 655 61 626 73 601 96 c 256
 588 109 577 124 569 140 c 257
 574 161 576 183 576 206 c 256
 576 266 561 318 529 361 c 256
 497 404 458 425 413 425 c 258
 364 425 l 257
 364 364 l 257
 413 364 l 258
 441 364 466 349 486 320 c 256
 507 290 516 254 516 213 c 256
 516 167 507 130 490 103 c 256
 472 75 448 61 419 61 c 256
 399 61 383 68 368 83 c 256
 353 98 346 114 346 134 c 258
 346 183 l 257
 285 183 l 257
 285 151 l 258
 285 126 275 105 256 88 c 256
 237 70 215 61 188 61 c 256
 161 61 139 68 120 83 c 256
 101 97 91 114 91 134 c 256
 91 152 99 169 114 185 c 256
 128 201 147 213 170 219 c 256
 197 227 219 240 236 260 c 256
 253 281 261 303 261 328 c 256
 261 355 250 377 229 396 c 256
 207 415 181 425 151 425 c 256
 121 425 95 415 74 396 c 256
 53 377 43 355 43 328 c 258
 43 304 l 257
 103 304 l 257
 103 321 l 258
 103 334 107 346 116 356 c 257
 126 365 138 370 151 370 c 256
 164 370 176 366 186 358 c 257
 195 349 200 339 200 328 c 256
 200 312 194 298 181 285 c 256
 169 272 153 264 134 261 c 256
 104 256 78 242 59 218 c 256
 39 193 30 165 30 134 c 256
 30 97 45 66 76 39 c 256
 107 13 145 0 188 0 c 256
 215 0 239 6 260 15 c 256
 282 25 299 38 310 55 c 257
 322 38 338 24 358 15 c 256
 379 5 401 0 425 0 c 256
 467 0 506 18 533 60 c 258
 543 76 l 257
NamedP: "hr00"
EndSplineSet
Ligature2: "'psts' Post Base Substitutions in Telugu lookup 17 subtable" Ba UMatra
EndChar

StartChar: BaUU
Encoding: 32 -1 32
GlifName: B_aU_U_
Width: 1178
VWidth: 0
Flags: W
AnchorPoint: "Anchor-3" 0 0 basechar 0
AnchorPoint: "Anchor-0" 0 0 basechar 0
LayerCount: 2
Back
Fore
SplineSet
540 71 m 257
NamedP: "hr00"
 550 57 563 45 578 34 c 256
 609 11 646 0 688 0 c 256
 742 0 787 20 825 59 c 256
 863 99 883 145 883 200 c 256
 883 240 878 274 868 303 c 256
 859 332 845 352 828 364 c 257
 991 364 l 258
 1016 364 1037 357 1054 343 c 256
 1071 328 1081 311 1083 291 c 257
 1070 300 1054 304 1034 304 c 256
 1005 304 981 295 960 274 c 256
 939 253 930 229 930 200 c 256
 930 169 942 142 966 119 c 256
 989 96 1018 85 1053 85 c 256
 1083 85 1109 99 1130 126 c 256
 1151 154 1161 187 1161 225 c 256
 1161 280 1144 327 1111 366 c 256
 1078 405 1038 425 991 425 c 258
 675 425 l 257
 675 364 l 257
 718 364 l 258
 746 364 770 349 791 318 c 256
 811 287 821 249 821 206 c 256
 821 166 808 132 783 104 c 256
 756 75 725 61 688 61 c 256
 655 61 625 73 600 96 c 256
 587 109 576 123 568 138 c 257
 573 159 576 182 576 206 c 256
 576 266 561 318 529 361 c 256
 497 404 458 425 413 425 c 258
 364 425 l 257
 364 364 l 257
 413 364 l 258
 441 364 466 349 486 320 c 256
 507 290 516 254 516 213 c 256
 516 167 507 130 490 103 c 256
 472 75 448 61 419 61 c 256
 399 61 383 68 368 83 c 256
 353 98 346 114 346 134 c 258
 346 183 l 257
 285 183 l 257
 285 151 l 258
 285 126 275 105 256 88 c 256
 237 70 215 61 188 61 c 256
 161 61 139 68 120 83 c 256
 101 97 91 114 91 134 c 256
 91 152 99 169 114 185 c 256
 128 201 147 213 170 219 c 256
 197 227 219 240 236 260 c 256
 253 281 261 303 261 328 c 256
 261 355 250 377 229 396 c 256
 207 415 181 425 151 425 c 256
 121 425 95 415 74 396 c 256
 53 377 43 355 43 328 c 258
 43 304 l 257
 103 304 l 257
 103 321 l 258
 103 334 107 346 116 356 c 257
 126 365 138 370 151 370 c 256
 164 370 176 366 186 358 c 257
 195 349 200 339 200 328 c 256
 200 312 194 298 181 285 c 256
 169 272 153 264 134 261 c 256
 104 256 78 242 59 218 c 256
 39 193 30 165 30 134 c 256
 30 97 45 66 76 39 c 256
 107 13 145 0 188 0 c 256
 215 0 239 6 260 15 c 256
 282 25 299 38 310 55 c 257
 322 38 338 24 358 15 c 256
 379 5 401 0 425 0 c 256
 467 0 506 18 533 60 c 258
 540 71 l 257
NamedP: "hr00"
1075 160 m 256
 1065 151 1053 146 1040 146 c 256
 1027 146 1015 151 1005 160 c 256
 996 169 991 181 991 194 c 256
 991 207 996 219 1005 229 c 257
 1015 238 1027 243 1040 243 c 256
 1053 243 1065 238 1075 229 c 257
 1084 219 1089 207 1089 194 c 256
 1089 181 1084 169 1075 160 c 256
EndSplineSet
Ligature2: "'psts' Post Base Substitutions in Telugu lookup 17 subtable" Ba UUMatra
EndChar

StartChar: Bha
Encoding: 33 3117 33
GlifName: B_ha
Width: 607
VWidth: 0
Flags: W
AnchorPoint: "Anchor-0" 0 0 basechar 0
LayerCount: 2
Back
Fore
SplineSet
426 425 m 257
NamedP: "hr00"
 410 425 l 257
 410 468 l 258
 410 476 413 483 420 489 c 256
 427 495 436 498 446 498 c 258
 590 498 l 257
 590 559 l 257
 423 559 l 258
 403 559 385 553 370 538 c 256
 355 523 349 506 349 486 c 258
 349 425 l 257
 298 425 l 257
 298 364 l 257
 406 364 l 258
 436 364 463 349 484 320 c 256
 506 290 516 254 516 213 c 256
 516 167 507 130 490 103 c 256
 472 75 448 61 419 61 c 256
 399 61 383 68 368 83 c 256
 353 98 346 114 346 134 c 258
 346 183 l 257
 285 183 l 257
 285 151 l 258
 285 126 275 105 256 88 c 256
 237 70 215 61 188 61 c 256
 161 61 139 68 120 83 c 256
 101 97 91 114 91 134 c 256
 91 152 99 169 114 185 c 256
 128 201 147 213 170 219 c 256
 197 227 219 240 236 260 c 256
 253 281 261 303 261 328 c 256
 261 355 250 377 229 396 c 256
 207 415 181 425 151 425 c 256
 121 425 95 415 74 396 c 256
 53 377 43 355 43 328 c 258
 43 304 l 257
 103 304 l 257
 103 321 l 258
 103 334 107 346 116 356 c 257
 126 365 138 370 151 370 c 256
 164 370 176 366 186 358 c 257
 195 349 200 339 200 328 c 256
 200 312 194 298 181 285 c 256
 169 272 153 264 134 261 c 256
 104 256 78 242 59 218 c 256
 39 193 30 165 30 134 c 256
 30 97 45 66 76 39 c 256
 107 13 145 0 188 0 c 256
 215 0 239 6 260 15 c 256
 282 25 299 38 310 55 c 257
 322 38 337 24 356 15 c 256
 375 5 396 0 419 0 c 256
 462 0 499 21 530 63 c 256
 561 104 576 154 576 213 c 256
 576 271 559 321 526 363 c 256
 498 398 465 419 426 424 c 257
 426 425 l 257
NamedP: "hr00"
340 -122 m 257
 340 0 l 257
 279 0 l 257
 279 -122 l 257
 340 -122 l 257
EndSplineSet
EndChar

StartChar: BhaAA
Encoding: 34 -1 34
GlifName: B_haA_A_
Width: 898
VWidth: 0
Flags: W
AnchorPoint: "Anchor-0" 0 0 basechar 0
LayerCount: 2
Back
Fore
SplineSet
711 365 m 258
NamedP: "hr00"
 734 365 754 358 771 345 c 256
 789 331 800 314 803 293 c 257
 788 301 772 305 754 305 c 256
 725 305 701 296 680 275 c 256
 659 254 650 230 650 201 c 256
 650 171 661 145 683 124 c 256
 704 103 730 93 760 93 c 256
 793 93 823 105 846 131 c 256
 870 157 881 189 881 226 c 256
 881 281 864 329 831 368 c 256
 798 407 758 426 711 426 c 258
 356 426 l 257
 356 365 l 257
 378 365 l 257
 381 364 385 364 389 364 c 258
 406 364 l 258
 436 364 463 349 484 320 c 256
 506 290 516 254 516 213 c 256
 516 167 507 130 490 103 c 256
 472 75 448 61 419 61 c 256
 399 61 383 68 368 83 c 256
 353 98 346 114 346 134 c 258
 346 183 l 257
 285 183 l 257
 285 151 l 258
 285 126 275 105 256 88 c 256
 237 70 215 61 188 61 c 256
 161 61 139 68 120 83 c 256
 101 97 91 114 91 134 c 256
 91 152 99 169 114 185 c 256
 128 201 147 213 170 219 c 256
 197 227 219 240 236 260 c 256
 253 281 261 303 261 328 c 256
 261 355 250 377 229 396 c 256
 207 415 181 425 151 425 c 256
 121 425 95 415 74 396 c 256
 53 377 43 355 43 328 c 258
 43 304 l 257
 103 304 l 257
 103 321 l 258
 103 334 107 346 116 356 c 257
 126 365 138 370 151 370 c 256
 164 370 176 366 186 358 c 257
 195 349 200 339 200 328 c 256
 200 312 194 298 181 285 c 256
 169 272 153 264 134 261 c 256
 104 256 78 242 59 218 c 256
 39 193 30 165 30 134 c 256
 30 97 45 66 76 39 c 256
 107 13 145 0 188 0 c 256
 215 0 239 6 260 15 c 256
 282 25 299 38 310 55 c 257
 322 38 337 24 356 15 c 256
 375 5 396 0 419 0 c 256
 462 0 499 21 530 63 c 256
 561 104 576 154 576 213 c 256
 576 271 559 321 526 363 c 256
 524 365 l 257
 711 365 l 258
NamedP: "hr00"
340 -122 m 257
 340 0 l 257
 279 0 l 257
 279 -122 l 257
 340 -122 l 257
794 161 m 256
 785 152 773 148 760 148 c 256
 747 148 735 152 725 161 c 256
 716 170 711 182 711 195 c 256
 711 208 716 220 725 230 c 257
 735 239 747 244 760 244 c 256
 773 244 785 239 794 230 c 256
 803 220 808 208 808 195 c 256
 808 182 803 170 794 161 c 256
EndSplineSet
Ligature2: "'abvs' Above Base Substitutions in Telugu lookup 9 subtable" Bha AAMatra
EndChar

StartChar: BhaAU
Encoding: 35 -1 35
GlifName: B_haA_U_
Width: 902
VWidth: 0
Flags: W
AnchorPoint: "Anchor-0" 0 0 basechar 0
LayerCount: 2
Back
Fore
SplineSet
517 373 m 257
NamedP: "hr00"
 524 376 531 380 538 385 c 256
 555 400 564 418 564 438 c 256
 564 442 563 446 560 450 c 257
 559 454 556 458 551 461 c 257
 703 461 l 258
 731 461 755 454 776 441 c 256
 796 429 806 414 806 395 c 257
 803 397 797 399 789 400 c 256
 780 401 770 401 758 401 c 256
 729 401 705 391 685 371 c 256
 665 350 655 326 655 298 c 256
 655 268 664 242 686 220 c 256
 708 198 734 189 764 189 c 256
 797 189 826 201 850 226 c 256
 873 251 885 281 885 316 c 256
 885 373 867 422 831 463 c 256
 796 503 753 523 703 523 c 258
 273 523 l 257
 273 461 l 257
 479 461 l 258
 484 461 488 459 493 456 c 256
 496 453 498 449 498 444 c 256
 498 439 495 434 490 430 c 256
 485 427 480 425 473 425 c 258
 376 425 l 257
 376 423 l 257
 365 420 359 410 359 395 c 256
 359 379 365 369 376 365 c 257
 376 364 l 257
 406 364 l 258
 436 364 463 349 484 320 c 256
 506 290 516 254 516 213 c 256
 516 167 507 130 490 103 c 256
 472 75 448 61 419 61 c 256
 399 61 383 68 368 83 c 256
 353 98 346 114 346 134 c 258
 346 183 l 257
 285 183 l 257
 285 151 l 258
 285 126 275 105 256 88 c 256
 237 70 215 61 188 61 c 256
 161 61 139 68 120 83 c 256
 101 97 91 114 91 134 c 256
 91 152 99 169 114 185 c 256
 128 201 147 213 170 219 c 256
 197 227 219 240 236 260 c 256
 253 281 261 303 261 328 c 256
 261 355 250 377 229 396 c 256
 207 415 181 425 151 425 c 256
 121 425 95 415 74 396 c 256
 53 377 43 355 43 328 c 258
 43 304 l 257
 103 304 l 257
 103 321 l 258
 103 334 107 346 116 356 c 257
 126 365 138 370 151 370 c 256
 164 370 176 366 186 358 c 257
 195 349 200 339 200 328 c 256
 200 312 194 298 181 285 c 256
 169 272 153 264 134 261 c 256
 104 256 78 242 59 218 c 256
 39 193 30 165 30 134 c 256
 30 97 45 66 76 39 c 256
 107 13 145 0 188 0 c 256
 215 0 239 6 260 15 c 256
 282 25 299 38 310 55 c 257
 322 38 337 24 356 15 c 256
 375 5 396 0 419 0 c 256
 462 0 499 21 530 63 c 256
 561 104 576 154 576 213 c 256
 576 271 562 323 526 363 c 258
 517 373 l 257
NamedP: "hr00"
340 -122 m 257
 340 0 l 257
 279 0 l 257
 279 -122 l 257
 340 -122 l 257
799 259 m 256
 789 248 777 243 764 243 c 256
 751 243 739 248 729 259 c 256
 720 270 715 283 715 298 c 256
 715 311 720 323 729 333 c 257
 739 342 751 346 764 346 c 256
 777 346 789 342 799 333 c 257
 808 323 813 311 813 298 c 256
 813 283 808 270 799 259 c 256
EndSplineSet
Ligature2: "'abvs' Above Base Substitutions in Telugu lookup 16 subtable" Bha AuMatra
EndChar

StartChar: BhaE
Encoding: 36 -1 36
GlifName: B_haE_
Width: 593
VWidth: 0
Flags: W
AnchorPoint: "Anchor-1" 0 0 basechar 0
AnchorPoint: "Anchor-0" 0 0 basechar 0
LayerCount: 2
Back
Fore
SplineSet
517 374 m 257
NamedP: "hr00"
 528 379 537 385 546 394 c 256
 566 413 576 436 576 463 c 256
 576 490 566 512 546 531 c 256
 526 550 502 560 474 560 c 258
 101 560 l 257
 101 499 l 257
 474 499 l 258
 484 499 493 496 500 489 c 256
 507 482 510 473 510 463 c 256
 510 453 507 444 500 436 c 256
 493 429 484 426 474 426 c 258
 344 426 l 257
 344 365 l 257
 378 365 l 257
 381 364 385 364 389 364 c 258
 406 364 l 258
 436 364 463 349 484 320 c 256
 506 290 516 254 516 213 c 256
 516 167 507 130 490 103 c 256
 472 75 448 61 419 61 c 256
 399 61 383 68 368 83 c 256
 353 98 346 114 346 134 c 258
 346 183 l 257
 285 183 l 257
 285 151 l 258
 285 126 275 105 256 88 c 256
 237 70 215 61 188 61 c 256
 161 61 139 68 120 83 c 256
 101 97 91 114 91 134 c 256
 91 152 99 169 114 185 c 256
 128 201 147 213 170 219 c 256
 197 227 219 240 236 260 c 256
 253 281 261 303 261 328 c 256
 261 355 250 377 229 396 c 256
 207 415 181 425 151 425 c 256
 121 425 95 415 74 396 c 256
 53 377 43 355 43 328 c 258
 43 304 l 257
 103 304 l 257
 103 321 l 258
 103 334 107 346 116 356 c 257
 126 365 138 370 151 370 c 256
 164 370 176 366 186 358 c 257
 195 349 200 339 200 328 c 256
 200 312 194 298 181 285 c 256
 169 272 153 264 134 261 c 256
 104 256 78 242 59 218 c 256
 39 193 30 165 30 134 c 256
 30 97 45 66 76 39 c 256
 107 13 145 0 188 0 c 256
 215 0 239 6 260 15 c 256
 282 25 299 38 310 55 c 257
 322 38 337 24 356 15 c 256
 375 5 396 0 419 0 c 256
 462 0 499 21 530 63 c 256
 561 104 576 154 576 213 c 256
 576 271 560 322 526 363 c 258
 517 374 l 257
NamedP: "hr00"
340 -122 m 257
 340 0 l 257
 279 0 l 257
 279 -122 l 257
 340 -122 l 257
EndSplineSet
PairPos2: "'blwm' Below Base Mark in Telugu lookup 14 subtable" Titvam dx=0 dy=0 dh=18 dv=0 dx=-774 dy=-25 dh=0 dv=0
PairPos2: "'blwm' Below Base Mark in Telugu lookup 0 subtable" tvam dx=0 dy=0 dh=0 dv=0 dx=-830 dy=20 dh=0 dv=0
Ligature2: "'abvs' Above Base Substitutions in Telugu lookup 12 subtable" Bha uni0C46
EndChar

StartChar: BhaEE
Encoding: 37 -1 37
GlifName: B_haE_E_
Width: 593
VWidth: 0
Flags: W
AnchorPoint: "Anchor-0" 0 0 basechar 0
LayerCount: 2
Back
Fore
SplineSet
516 374 m 257
NamedP: "hr00"
 527 379 537 385 546 394 c 256
 566 413 576 436 576 463 c 256
 576 490 567 512 550 531 c 256
 532 550 510 560 485 560 c 257
 485 584 l 258
 485 591 488 596 493 601 c 256
 498 606 503 609 510 609 c 258
 559 609 l 257
 559 669 l 257
 485 669 l 258
 468 669 455 663 443 651 c 256
 431 639 425 626 425 609 c 258
 425 560 l 257
 101 560 l 257
 101 499 l 257
 474 499 l 258
 484 499 493 496 500 489 c 256
 507 482 510 473 510 463 c 256
 510 453 507 444 500 436 c 256
 493 429 484 426 474 426 c 258
 344 426 l 257
 344 365 l 257
 406 365 l 258
 436 365 463 349 484 320 c 256
 506 290 516 254 516 213 c 256
 516 167 507 130 490 103 c 256
 472 75 448 61 419 61 c 256
 399 61 383 68 368 83 c 256
 353 98 346 114 346 134 c 258
 346 183 l 257
 285 183 l 257
 285 151 l 258
 285 126 275 105 256 88 c 256
 237 70 215 61 188 61 c 256
 161 61 139 68 120 83 c 256
 101 97 91 114 91 134 c 256
 91 152 99 169 114 185 c 256
 128 201 147 213 170 219 c 256
 197 227 219 240 236 260 c 256
 253 281 261 303 261 328 c 256
 261 355 250 377 229 396 c 256
 207 415 181 425 151 425 c 256
 121 425 95 415 74 396 c 256
 53 377 43 355 43 328 c 258
 43 304 l 257
 103 304 l 257
 103 321 l 258
 103 334 107 346 116 356 c 257
 126 365 138 370 151 370 c 256
 164 370 176 366 186 358 c 257
 195 349 200 339 200 328 c 256
 200 312 194 298 181 285 c 256
 169 272 153 264 134 261 c 256
 104 256 78 242 59 218 c 256
 39 193 30 165 30 134 c 256
 30 97 45 66 76 39 c 256
 107 13 145 0 188 0 c 256
 215 0 239 6 260 15 c 256
 282 25 299 38 310 55 c 257
 322 38 337 24 356 15 c 256
 375 5 396 0 419 0 c 256
 462 0 499 21 530 63 c 256
 561 104 576 154 576 213 c 256
 576 271 562 323 526 363 c 258
 516 374 l 257
NamedP: "hr00"
340 -122 m 257
 340 0 l 257
 279 0 l 257
 279 -122 l 257
 340 -122 l 257
EndSplineSet
Ligature2: "'abvs' Above Base Substitutions in Telugu lookup 13 subtable" Bha EEMatra
EndChar

StartChar: BhaHalanth
Encoding: 38 -1 38
GlifName: B_haH_alanth
Width: 610
VWidth: 0
Flags: W
AnchorPoint: "Anchor-0" 0 0 basechar 0
LayerCount: 2
Back
Fore
SplineSet
394 425 m 258
NamedP: "hr00"
 385 425 378 428 373 434 c 256
 367 440 364 447 364 455 c 256
 364 464 367 471 374 478 c 257
 381 483 390 486 400 486 c 258
 531 486 l 257
 531 534 l 257
 388 534 l 258
 381 534 376 536 371 541 c 256
 366 546 364 552 364 559 c 256
 364 566 367 571 374 575 c 256
 381 580 390 583 400 583 c 258
 593 583 l 257
 593 644 l 257
 369 644 l 258
 350 644 335 636 323 621 c 256
 310 606 303 587 303 565 c 256
 303 554 305 544 309 534 c 256
 313 525 319 517 326 510 c 257
 319 503 313 495 309 485 c 256
 305 474 303 462 303 449 c 256
 303 426 311 405 329 389 c 256
 343 375 360 368 379 365 c 256
 382 364 385 364 389 364 c 258
 406 364 l 258
 436 364 463 349 484 320 c 256
 506 290 516 254 516 213 c 256
 516 167 507 130 490 103 c 256
 472 75 448 61 419 61 c 256
 399 61 383 68 368 83 c 256
 353 98 346 114 346 134 c 258
 346 183 l 257
 285 183 l 257
 285 151 l 258
 285 126 275 105 256 88 c 256
 237 70 215 61 188 61 c 256
 161 61 139 68 120 83 c 256
 101 97 91 114 91 134 c 256
 91 152 99 169 114 185 c 256
 128 201 147 213 170 219 c 256
 197 227 219 240 236 260 c 256
 253 281 261 303 261 328 c 256
 261 355 250 377 229 396 c 256
 207 415 181 425 151 425 c 256
 121 425 95 415 74 396 c 256
 53 377 43 355 43 328 c 258
 43 304 l 257
 103 304 l 257
 103 321 l 258
 103 334 107 346 116 356 c 257
 126 365 138 370 151 370 c 256
 164 370 176 366 186 358 c 257
 195 349 200 339 200 328 c 256
 200 312 194 298 181 285 c 256
 169 272 153 264 134 261 c 256
 104 256 78 242 59 218 c 256
 39 193 30 165 30 134 c 256
 30 97 45 66 76 39 c 256
 107 13 145 0 188 0 c 256
 215 0 239 6 260 15 c 256
 282 25 299 38 310 55 c 257
 322 38 337 24 356 15 c 256
 375 5 396 0 419 0 c 256
 462 0 499 21 530 63 c 256
 561 104 576 154 576 213 c 256
 576 271 559 321 526 363 c 256
 495 401 459 425 418 425 c 258
 394 425 l 258
NamedP: "hr00"
340 -122 m 257
 340 0 l 257
 279 0 l 257
 279 -122 l 257
 340 -122 l 257
EndSplineSet
Ligature2: "'haln' Halant Forms in Telugu lookup 19 subtable" Bha Halanth
EndChar

StartChar: BhaI
Encoding: 39 -1 39
GlifName: B_haI_
Width: 642
VWidth: 0
Flags: W
AnchorPoint: "Anchor-0" 0 0 basechar 0
LayerCount: 2
Back
Fore
SplineSet
346 -122 m 257
NamedP: "hr00"
 346 0 l 257
 285 0 l 257
 285 -122 l 257
 346 -122 l 257
NamedP: "hr00"
78 39 m 256
 110 13 149 0 194 0 c 256
 219 0 241 6 261 15 c 256
 282 25 299 38 310 55 c 257
 322 38 339 24 360 15 c 256
 381 5 404 0 431 0 c 256
 484 0 531 20 569 64 c 256
 607 107 625 159 625 219 c 256
 625 276 607 324 570 365 c 256
 533 405 489 425 438 425 c 256
 405 425 378 417 355 400 c 256
 332 383 321 363 321 340 c 256
 321 317 331 297 350 280 c 256
 369 263 392 255 419 255 c 256
 444 255 465 262 484 275 c 256
 501 288 510 303 510 321 c 256
 510 326 508 335 504 346 c 257
 523 332 538 314 549 291 c 256
 560 269 565 245 565 219 c 256
 565 176 552 139 526 108 c 256
 499 77 468 61 431 61 c 256
 408 61 388 68 371 83 c 256
 354 97 346 114 346 134 c 258
 346 183 l 257
 285 183 l 257
 285 151 l 258
 285 126 275 105 256 88 c 256
 237 70 215 61 188 61 c 256
 161 61 139 68 120 83 c 256
 101 97 91 114 91 134 c 256
 91 152 99 169 114 185 c 256
 128 201 147 213 170 219 c 256
 197 227 219 240 236 260 c 256
 253 281 261 303 261 328 c 256
 261 355 250 377 229 396 c 256
 207 415 181 425 151 425 c 256
 121 425 95 415 74 396 c 256
 53 377 43 355 43 328 c 258
 43 304 l 257
 103 304 l 257
 103 321 l 258
 103 334 107 346 116 356 c 257
 126 365 138 370 151 370 c 256
 164 370 176 366 186 358 c 257
 195 349 200 339 200 328 c 256
 200 312 194 298 181 285 c 256
 169 272 153 264 134 261 c 256
 104 256 78 242 59 218 c 256
 39 193 30 165 30 134 c 256
 30 97 46 66 78 39 c 256
445 313 m 256
 438 307 429 304 419 304 c 256
 409 304 400 307 393 313 c 256
 386 318 383 325 383 334 c 256
 383 342 386 349 393 355 c 256
 400 361 409 364 419 364 c 256
 429 364 438 361 445 355 c 256
 452 349 455 342 455 334 c 256
 455 325 452 318 445 313 c 256
EndSplineSet
Ligature2: "'abvs' Above Base Substitutions in Telugu lookup 10 subtable" Bha Imatra
EndChar

StartChar: BhaII
Encoding: 40 -1 40
GlifName: B_haI_I_
Width: 642
VWidth: 0
Flags: W
AnchorPoint: "Anchor-0" 0 0 basechar 0
LayerCount: 2
Back
Fore
SplineSet
346 -122 m 257
NamedP: "hr00"
 346 0 l 257
 285 0 l 257
 285 -122 l 257
 346 -122 l 257
NamedP: "hr00"
78 39 m 256
 110 13 149 0 194 0 c 256
 219 0 241 6 261 15 c 256
 282 25 299 38 310 55 c 257
 322 38 339 24 360 15 c 256
 381 5 404 0 431 0 c 256
 484 0 531 20 569 64 c 256
 607 107 625 159 625 219 c 256
 625 276 608 324 575 365 c 256
 542 405 502 425 455 425 c 257
 451 432 449 439 449 444 c 256
 449 452 453 459 461 465 c 256
 470 471 480 474 491 474 c 256
 501 474 510 471 518 465 c 256
 525 459 528 452 528 444 c 257
 589 444 l 257
 589 469 579 490 560 508 c 256
 541 525 518 534 491 534 c 256
 463 534 439 525 419 508 c 256
 399 490 389 469 389 444 c 256
 389 439 391 430 395 419 c 257
 374 415 357 406 343 391 c 256
 329 375 321 359 321 340 c 256
 321 317 331 297 350 280 c 256
 369 263 392 255 419 255 c 256
 444 255 465 262 484 275 c 256
 501 288 510 303 510 321 c 256
 510 326 508 335 504 346 c 257
 523 332 538 314 549 291 c 256
 560 269 565 245 565 219 c 256
 565 176 552 139 526 108 c 256
 499 77 468 61 431 61 c 256
 408 61 388 68 371 83 c 256
 354 97 346 114 346 134 c 258
 346 183 l 257
 285 183 l 257
 285 151 l 258
 285 126 275 105 256 88 c 256
 237 70 215 61 188 61 c 256
 161 61 139 68 120 83 c 256
 101 97 91 114 91 134 c 256
 91 152 99 169 114 185 c 256
 128 201 147 213 170 219 c 256
 197 227 219 240 236 260 c 256
 253 281 261 303 261 328 c 256
 261 355 250 377 229 396 c 256
 207 415 181 425 151 425 c 256
 121 425 95 415 74 396 c 256
 53 377 43 355 43 328 c 258
 43 304 l 257
 103 304 l 257
 103 321 l 258
 103 334 107 346 116 356 c 257
 126 365 138 370 151 370 c 256
 164 370 176 366 186 358 c 257
 195 349 200 339 200 328 c 256
 200 312 194 298 181 285 c 256
 169 272 153 264 134 261 c 256
 104 256 78 242 59 218 c 256
 39 193 30 165 30 134 c 256
 30 97 46 66 78 39 c 256
445 313 m 256
 438 307 429 304 419 304 c 256
 409 304 400 307 393 313 c 256
 386 318 383 325 383 334 c 256
 383 342 386 349 393 355 c 256
 400 361 409 364 419 364 c 256
 429 364 438 361 445 355 c 256
 452 349 455 342 455 334 c 256
 455 325 452 318 445 313 c 256
EndSplineSet
Ligature2: "'abvs' Above Base Substitutions in Telugu lookup 11 subtable" Bha IIMatra
EndChar

StartChar: BhaO
Encoding: 41 -1 41
GlifName: B_haO_
Width: 903
VWidth: 0
Flags: W
AnchorPoint: "Anchor-0" 0 0 basechar 0
LayerCount: 2
Back
Fore
SplineSet
394 425 m 258
NamedP: "hr00"
 385 425 378 428 373 433 c 257
 367 437 364 442 364 449 c 256
 364 459 372 468 389 475 c 256
 406 482 426 486 449 486 c 256
 486 486 515 478 538 461 c 256
 559 444 570 422 570 395 c 258
 570 376 l 257
 631 376 l 257
 631 406 l 258
 631 423 639 438 654 450 c 256
 670 463 689 468 710 468 c 256
 735 468 758 461 778 444 c 256
 797 428 808 407 813 383 c 257
 805 388 797 393 788 396 c 256
 779 399 769 401 759 401 c 256
 730 401 705 390 685 369 c 256
 664 347 655 321 655 291 c 256
 655 261 666 235 689 214 c 256
 712 193 739 183 770 183 c 256
 803 183 831 197 853 226 c 256
 876 256 886 292 886 334 c 256
 886 388 869 434 835 471 c 256
 800 510 759 529 710 529 c 256
 683 529 659 525 638 516 c 256
 617 507 602 495 594 480 c 257
 579 501 558 517 533 529 c 256
 508 540 480 546 449 546 c 256
 409 546 374 537 345 518 c 256
 317 499 303 476 303 449 c 256
 303 426 311 405 329 389 c 256
 343 375 360 368 379 365 c 256
 382 364 385 364 389 364 c 258
 406 364 l 258
 436 364 463 349 484 320 c 256
 506 290 516 254 516 213 c 256
 516 167 507 130 490 103 c 256
 472 75 448 61 419 61 c 256
 399 61 383 68 368 83 c 256
 353 98 346 114 346 134 c 258
 346 183 l 257
 285 183 l 257
 285 151 l 258
 285 126 275 105 256 88 c 256
 237 70 215 61 188 61 c 256
 161 61 139 68 120 83 c 256
 101 97 91 114 91 134 c 256
 91 152 99 169 114 185 c 256
 128 201 147 213 170 219 c 256
 197 227 219 240 236 260 c 256
 253 281 261 303 261 328 c 256
 261 355 250 377 229 396 c 256
 207 415 181 425 151 425 c 256
 121 425 95 415 74 396 c 256
 53 377 43 355 43 328 c 258
 43 304 l 257
 103 304 l 257
 103 321 l 258
 103 334 107 346 116 356 c 257
 126 365 138 370 151 370 c 256
 164 370 176 366 186 358 c 257
 195 349 200 339 200 328 c 256
 200 312 194 298 181 285 c 256
 169 272 153 264 134 261 c 256
 104 256 78 242 59 218 c 256
 39 193 30 165 30 134 c 256
 30 97 45 66 76 39 c 256
 107 13 145 0 188 0 c 256
 215 0 239 6 260 15 c 256
 282 25 299 38 310 55 c 257
 322 38 337 24 356 15 c 256
 375 5 396 0 419 0 c 256
 462 0 499 21 530 63 c 256
 561 104 576 154 576 213 c 256
 576 271 559 321 526 363 c 256
 495 401 459 425 418 425 c 258
 394 425 l 258
NamedP: "hr00"
340 -122 m 257
 340 0 l 257
 279 0 l 257
 279 -122 l 257
 340 -122 l 257
799 253 m 256
 789 242 777 236 764 236 c 256
 751 236 739 242 730 253 c 256
 721 264 716 276 716 291 c 256
 716 304 721 316 730 326 c 256
 739 335 751 340 764 340 c 256
 777 340 789 335 799 326 c 257
 808 316 813 304 813 291 c 256
 813 276 808 264 799 253 c 256
EndSplineSet
Ligature2: "'abvs' Above Base Substitutions in Telugu lookup 14 subtable" Bha OMatra
EndChar

StartChar: BhaOO
Encoding: 42 -1 42
GlifName: B_haO_O_
Width: 903
VWidth: 0
Flags: W
AnchorPoint: "Anchor-0" 0 0 basechar 0
LayerCount: 2
Back
Fore
SplineSet
394 425 m 258
NamedP: "hr00"
 384 425 375 428 368 433 c 256
 361 437 358 442 358 449 c 256
 358 459 367 468 386 475 c 256
 405 482 428 486 455 486 c 256
 490 486 518 479 539 465 c 256
 560 450 570 431 570 406 c 258
 570 376 l 257
 631 376 l 257
 631 406 l 258
 631 423 639 438 654 450 c 256
 670 463 689 468 710 468 c 256
 735 468 758 461 778 444 c 256
 797 428 808 407 813 383 c 257
 805 388 797 393 788 396 c 256
 779 399 769 401 759 401 c 256
 730 401 705 390 685 369 c 256
 664 347 655 321 655 291 c 256
 655 261 666 235 689 214 c 256
 712 193 739 183 770 183 c 256
 803 183 831 197 853 226 c 256
 876 256 886 292 886 334 c 256
 886 380 874 420 849 455 c 256
 824 490 792 513 753 523 c 257
 753 546 l 258
 753 556 756 565 763 573 c 256
 770 580 779 583 789 583 c 256
 799 583 808 580 815 575 c 256
 822 571 825 566 825 559 c 257
 886 559 l 257
 886 582 877 602 858 619 c 256
 839 636 816 644 789 644 c 256
 762 644 739 636 720 619 c 256
 701 602 691 582 691 559 c 258
 691 523 l 257
 679 523 l 258
 662 523 647 518 633 511 c 256
 618 503 607 493 600 480 c 257
 585 501 565 517 539 529 c 256
 514 540 486 546 455 546 c 256
 411 546 374 537 343 518 c 256
 312 499 296 476 296 449 c 256
 296 426 306 406 325 389 c 256
 341 375 359 367 380 365 c 257
 383 364 386 364 389 364 c 258
 406 364 l 258
 436 364 463 349 484 320 c 256
 506 290 516 254 516 213 c 256
 516 167 507 130 490 103 c 256
 472 75 448 61 419 61 c 256
 399 61 383 68 368 83 c 256
 353 98 346 114 346 134 c 258
 346 183 l 257
 285 183 l 257
 285 151 l 258
 285 126 275 105 256 88 c 256
 237 70 215 61 188 61 c 256
 161 61 139 68 120 83 c 256
 101 97 91 114 91 134 c 256
 91 152 99 169 114 185 c 256
 128 201 147 213 170 219 c 256
 197 227 219 240 236 260 c 256
 253 281 261 303 261 328 c 256
 261 355 250 377 229 396 c 256
 207 415 181 425 151 425 c 256
 121 425 95 415 74 396 c 256
 53 377 43 355 43 328 c 258
 43 304 l 257
 103 304 l 257
 103 321 l 258
 103 334 107 346 116 356 c 257
 126 365 138 370 151 370 c 256
 164 370 176 366 186 358 c 257
 195 349 200 339 200 328 c 256
 200 312 194 298 181 285 c 256
 169 272 153 264 134 261 c 256
 104 256 78 242 59 218 c 256
 39 193 30 165 30 134 c 256
 30 97 45 66 76 39 c 256
 107 13 145 0 188 0 c 256
 215 0 239 6 260 15 c 256
 282 25 299 38 310 55 c 257
 322 38 337 24 356 15 c 256
 375 5 396 0 419 0 c 256
 462 0 499 21 530 63 c 256
 561 104 576 154 576 213 c 256
 576 271 559 321 526 363 c 256
 495 401 459 425 418 425 c 258
 394 425 l 258
NamedP: "hr00"
340 -122 m 257
 340 0 l 257
 279 0 l 257
 279 -122 l 257
 340 -122 l 257
799 253 m 256
 789 242 777 236 764 236 c 256
 751 236 739 242 730 253 c 256
 721 264 716 276 716 291 c 256
 716 304 721 316 730 326 c 256
 739 335 751 340 764 340 c 256
 777 340 789 335 799 326 c 257
 808 316 813 304 813 291 c 256
 813 276 808 264 799 253 c 256
EndSplineSet
Ligature2: "'abvs' Above Base Substitutions in Telugu lookup 15 subtable" Bha OOMatra
EndChar

StartChar: BhaOttu
Encoding: 43 -1 43
GlifName: B_haO_ttu
Width: 201
VWidth: 0
Flags: W
LayerCount: 2
Back
Fore
SplineSet
-54 -363 m 257
NamedP: "hr00"
 -2 -363 l 257
 -2 -285 l 257
 -54 -285 l 257
 -54 -361 l 257
 -54 -363 l 257
NamedP: "hr00"
-109 -278 m 256
 -89 -278 -72 -275 -58 -269 c 256
 -44 -264 -34 -257 -28 -248 c 257
 -22 -257 -13 -264 0 -269 c 256
 14 -275 29 -278 45 -278 c 256
 84 -278 115 -263 139 -232 c 256
 162 -202 174 -162 174 -111 c 256
 174 -55 160 -7 130 32 c 256
 100 71 62 91 19 91 c 257
 19 39 l 257
 46 39 69 24 88 -7 c 256
 107 -38 116 -74 116 -117 c 256
 116 -146 109 -172 95 -193 c 256
 81 -214 64 -225 45 -225 c 256
 32 -225 21 -221 11 -212 c 257
 2 -202 -2 -191 -2 -178 c 258
 -2 -164 l 257
 -54 -164 l 257
 -54 -178 l 258
 -54 -191 -59 -202 -70 -211 c 256
 -83 -220 -97 -225 -113 -225 c 256
 -122 -225 -131 -222 -138 -217 c 256
 -144 -213 -147 -208 -147 -202 c 256
 -147 -193 -144 -185 -137 -178 c 256
 -128 -170 -118 -164 -106 -161 c 256
 -89 -156 -76 -148 -65 -135 c 256
 -55 -123 -50 -109 -50 -93 c 256
 -50 -76 -57 -61 -71 -48 c 256
 -84 -36 -100 -30 -119 -30 c 256
 -142 -30 -161 -36 -176 -47 c 256
 -192 -60 -200 -76 -200 -93 c 258
 -200 -108 l 257
 -147 -108 l 257
 -147 -99 -145 -91 -140 -84 c 256
 -136 -79 -131 -76 -125 -76 c 256
 -119 -76 -114 -78 -109 -81 c 256
 -104 -85 -102 -89 -102 -93 c 256
 -102 -99 -105 -105 -110 -110 c 256
 -116 -115 -124 -118 -133 -121 c 256
 -152 -126 -167 -136 -180 -151 c 256
 -193 -166 -200 -183 -200 -202 c 256
 -200 -223 -191 -241 -173 -256 c 256
 -154 -271 -133 -278 -109 -278 c 256
EndSplineSet
Ligature2: "'blwf' Below Base Forms in Telugu lookup 2 subtable" Bha Halanth
EndChar

StartChar: BhaU
Encoding: 44 -1 44
GlifName: B_haU_
Width: 898
VWidth: 0
Flags: W
AnchorPoint: "Anchor-3" 0 0 basechar 0
AnchorPoint: "Anchor-0" 0 0 basechar 0
LayerCount: 2
Back
Fore
SplineSet
567 141 m 257
NamedP: "hr00"
 573 163 576 187 576 213 c 256
 576 271 559 321 526 363 c 256
 498 398 465 419 426 424 c 257
 426 425 l 257
 410 425 l 257
 410 468 l 258
 410 476 413 483 420 489 c 256
 427 495 436 498 446 498 c 258
 590 498 l 257
 590 559 l 257
 423 559 l 258
 403 559 385 553 370 538 c 256
 355 523 349 506 349 486 c 258
 349 425 l 257
 298 425 l 257
 298 364 l 257
 406 364 l 258
 436 364 463 349 484 320 c 256
 506 290 516 254 516 213 c 256
 516 167 507 130 490 103 c 256
 472 75 448 61 419 61 c 256
 399 61 383 68 368 83 c 256
 353 98 346 114 346 134 c 258
 346 183 l 257
 285 183 l 257
 285 151 l 258
 285 126 275 105 256 88 c 256
 237 70 215 61 188 61 c 256
 161 61 139 68 120 83 c 256
 101 97 91 114 91 134 c 256
 91 152 99 169 114 185 c 256
 128 201 147 213 170 219 c 256
 197 227 219 240 236 260 c 256
 253 281 261 303 261 328 c 256
 261 355 250 377 229 396 c 256
 207 415 181 425 151 425 c 256
 121 425 95 415 74 396 c 256
 53 377 43 355 43 328 c 258
 43 304 l 257
 103 304 l 257
 103 321 l 258
 103 334 107 346 116 356 c 257
 126 365 138 370 151 370 c 256
 164 370 176 366 186 358 c 257
 195 349 200 339 200 328 c 256
 200 312 194 298 181 285 c 256
 169 272 153 264 134 261 c 256
 104 256 78 242 59 218 c 256
 39 193 30 165 30 134 c 256
 30 97 45 66 76 39 c 256
 107 13 145 0 188 0 c 256
 215 0 239 6 260 15 c 256
 282 25 299 38 310 55 c 257
 322 38 337 24 356 15 c 256
 375 5 396 0 419 0 c 256
 462 0 500 21 530 63 c 258
 540 77 l 257
 552 60 567 44 585 31 c 256
 616 10 649 0 686 0 c 256
 741 0 786 21 824 63 c 256
 861 104 881 154 881 213 c 256
 881 271 865 321 830 363 c 256
 796 404 754 425 705 425 c 258
 688 425 l 257
 688 364 l 257
 711 364 l 258
 741 364 768 349 789 320 c 256
 811 290 820 254 820 213 c 256
 820 171 808 135 781 105 c 256
 755 76 723 61 686 61 c 256
 654 61 625 73 600 96 c 256
 587 109 576 124 567 141 c 257
NamedP: "hr00"
340 -122 m 257
 340 0 l 257
 279 0 l 257
 279 -122 l 257
 340 -122 l 257
EndSplineSet
Ligature2: "'psts' Post Base Substitutions in Telugu lookup 17 subtable" Bha UMatra
EndChar

StartChar: BhaUU
Encoding: 45 -1 45
GlifName: B_haU_U_
Width: 1177
VWidth: 0
Flags: W
AnchorPoint: "Anchor-3" 0 0 basechar 0
AnchorPoint: "Anchor-0" 0 0 basechar 0
LayerCount: 2
Back
Fore
SplineSet
567 139 m 257
NamedP: "hr00"
 573 162 576 186 576 213 c 256
 576 271 559 321 526 363 c 256
 498 398 465 419 426 424 c 257
 426 425 l 257
 410 425 l 257
 410 468 l 258
 410 476 413 483 420 489 c 256
 427 495 436 498 446 498 c 258
 590 498 l 257
 590 559 l 257
 423 559 l 258
 403 559 385 553 370 538 c 256
 355 523 349 506 349 486 c 258
 349 425 l 257
 298 425 l 257
 298 364 l 257
 406 364 l 258
 436 364 463 349 484 320 c 256
 506 290 516 254 516 213 c 256
 516 167 507 130 490 103 c 256
 472 75 448 61 419 61 c 256
 399 61 383 68 368 83 c 256
 353 98 346 114 346 134 c 258
 346 183 l 257
 285 183 l 257
 285 151 l 258
 285 126 275 105 256 88 c 256
 237 70 215 61 188 61 c 256
 161 61 139 68 120 83 c 256
 101 97 91 114 91 134 c 256
 91 152 99 169 114 185 c 256
 128 201 147 213 170 219 c 256
 197 227 219 240 236 260 c 256
 253 281 261 303 261 328 c 256
 261 355 250 377 229 396 c 256
 207 415 181 425 151 425 c 256
 121 425 95 415 74 396 c 256
 53 377 43 355 43 328 c 258
 43 304 l 257
 103 304 l 257
 103 321 l 258
 103 334 107 346 116 356 c 257
 126 365 138 370 151 370 c 256
 164 370 176 366 186 358 c 257
 195 349 200 339 200 328 c 256
 200 312 194 298 181 285 c 256
 169 272 153 264 134 261 c 256
 104 256 78 242 59 218 c 256
 39 193 30 165 30 134 c 256
 30 97 45 66 76 39 c 256
 107 13 145 0 188 0 c 256
 215 0 239 6 260 15 c 256
 282 25 299 38 310 55 c 257
 322 38 337 24 356 15 c 256
 375 5 396 0 419 0 c 256
 462 0 499 21 530 63 c 256
 533 66 535 69 537 73 c 257
 547 58 560 45 576 34 c 256
 608 11 645 0 686 0 c 256
 741 0 787 20 824 59 c 256
 862 98 881 145 881 200 c 256
 881 240 876 274 866 303 c 256
 857 332 844 352 826 364 c 257
 990 364 l 258
 1014 364 1035 358 1053 343 c 256
 1070 329 1080 311 1081 291 c 257
 1069 300 1053 304 1033 304 c 256
 1004 304 980 295 959 274 c 256
 938 253 929 229 929 200 c 256
 929 169 941 142 965 119 c 256
 988 96 1017 85 1051 85 c 256
 1081 85 1108 99 1129 126 c 256
 1151 154 1160 187 1160 225 c 256
 1160 280 1143 327 1110 366 c 256
 1077 405 1037 425 990 425 c 258
 674 425 l 257
 674 364 l 257
 716 364 l 258
 745 364 769 349 790 318 c 256
 810 287 820 249 820 206 c 256
 820 166 807 132 781 104 c 256
 754 75 723 61 686 61 c 256
 653 61 624 73 599 96 c 256
 586 109 575 123 567 139 c 257
NamedP: "hr00"
340 -122 m 257
 340 0 l 257
 279 0 l 257
 279 -122 l 257
 340 -122 l 257
1074 160 m 256
 1064 151 1052 146 1039 146 c 256
 1026 146 1014 151 1004 160 c 256
 995 169 990 181 990 194 c 256
 990 207 995 219 1004 229 c 257
 1014 238 1026 243 1039 243 c 256
 1052 243 1064 238 1074 229 c 257
 1083 219 1088 207 1088 194 c 256
 1088 181 1083 169 1074 160 c 256
EndSplineSet
Ligature2: "'psts' Post Base Substitutions in Telugu lookup 17 subtable" Bha UUMatra
EndChar

StartChar: C
Encoding: 46 67 46
GlifName: C_
Width: 515
VWidth: 0
Flags: W
LayerCount: 2
Back
Fore
SplineSet
429 135 m 257
 482 81 l 257
 431 23 368 -6 294 -6 c 256
 146 -6 36 101 36 246 c 256
 36 392 148 501 300 501 c 256
 375 501 438 473 489 417 c 257
 437 360 l 257
 390 405 354 420 298 420 c 256
 199 420 122 349 122 250 c 256
 122 151 200 75 291 75 c 256
 348 75 384 93 429 135 c 257
  PathStart: -2
EndSplineSet
EndChar

StartChar: Ca
Encoding: 48 3098 48
GlifName: C_a
Width: 655
VWidth: 0
Flags: W
AnchorPoint: "Anchor-0" 0 0 basechar 0
LayerCount: 2
Back
Fore
SplineSet
455 474 m 258
NamedP: "hr00"
 455 481 458 486 463 490 c 256
 468 495 473 498 480 498 c 258
 638 498 l 257
 638 559 l 257
 455 559 l 258
 438 559 424 553 413 541 c 256
 401 529 395 515 395 498 c 258
 395 425 l 257
 284 425 l 257
 279 426 274 428 271 431 c 256
 268 436 266 440 266 444 c 258
 266 498 l 257
 205 498 l 257
 205 438 l 258
 205 423 211 405 223 385 c 257
 235 371 249 364 266 364 c 258
 398 364 l 258
 438 364 472 349 501 320 c 256
 530 290 544 254 544 213 c 256
 544 171 534 135 514 105 c 256
 494 76 470 61 441 61 c 256
 419 61 401 70 385 88 c 256
 370 105 361 126 361 151 c 258
 361 183 l 257
 301 183 l 257
 301 151 l 258
 301 126 293 105 276 88 c 256
 259 70 239 61 216 61 c 256
 193 61 173 69 156 84 c 256
 139 100 131 119 131 140 c 256
 131 162 137 181 149 196 c 256
 160 211 174 219 191 219 c 258
 253 219 l 257
 253 279 l 257
 10 279 l 257
 10 219 l 257
 101 219 l 257
 91 207 83 194 78 179 c 256
 73 165 70 150 70 134 c 256
 70 97 84 65 111 39 c 256
 139 12 172 0 210 0 c 256
 234 0 257 5 278 15 c 256
 298 24 314 38 325 55 c 257
 337 38 353 25 374 15 c 256
 394 6 416 0 441 0 c 256
 486 0 525 21 558 63 c 256
 589 104 605 154 605 213 c 256
 605 271 585 321 544 363 c 256
 518 390 488 408 455 417 c 257
 455 474 l 258
NamedP: "hr00"
EndSplineSet
EndChar

StartChar: CaAA
Encoding: 49 -1 49
GlifName: C_aA_A_
Width: 926
VWidth: 0
Flags: W
AnchorPoint: "Anchor-0" 0 0 basechar 0
LayerCount: 2
Back
Fore
SplineSet
739 365 m 258
NamedP: "hr00"
 764 365 785 358 804 344 c 256
 821 330 830 313 830 293 c 257
 816 301 800 305 781 305 c 256
 753 305 729 294 709 273 c 256
 689 251 679 225 679 195 c 256
 679 165 689 139 710 118 c 256
 732 97 758 86 788 86 c 256
 821 86 850 100 874 128 c 256
 897 155 909 188 909 226 c 256
 909 281 892 329 859 368 c 256
 826 407 786 426 739 426 c 258
 84 426 l 257
 84 365 l 257
 314 365 l 257
 398 364 l 258
 438 364 472 349 501 320 c 256
 530 290 544 254 544 213 c 256
 544 171 534 135 514 105 c 256
 494 76 470 61 441 61 c 256
 419 61 401 70 385 88 c 256
 370 105 361 126 361 151 c 258
 361 183 l 257
 301 183 l 257
 301 151 l 258
 301 126 293 105 276 88 c 256
 259 70 239 61 216 61 c 256
 193 61 173 69 156 84 c 256
 139 100 131 119 131 140 c 256
 131 162 137 181 149 196 c 256
 160 211 174 219 191 219 c 258
 253 219 l 257
 253 279 l 257
 10 279 l 257
 10 219 l 257
 101 219 l 257
 91 207 83 194 78 179 c 256
 73 165 70 150 70 134 c 256
 70 97 84 65 111 39 c 256
 139 12 172 0 210 0 c 256
 234 0 257 5 278 15 c 256
 298 24 314 38 325 55 c 257
 337 38 353 25 374 15 c 256
 394 6 416 0 441 0 c 256
 486 0 525 21 558 63 c 256
 589 104 605 154 605 213 c 256
 605 271 585 321 544 363 c 257
 541 365 l 257
 739 365 l 258
NamedP: "hr00"
823 161 m 256
 813 152 801 148 788 148 c 256
 775 148 763 152 753 161 c 256
 744 170 739 182 739 195 c 256
 739 208 744 220 753 230 c 257
 763 239 775 244 788 244 c 256
 801 244 813 239 823 230 c 257
 832 220 836 208 836 195 c 256
 836 182 832 170 823 161 c 256
EndSplineSet
Ligature2: "'abvs' Above Base Substitutions in Telugu lookup 9 subtable" Ca AAMatra
EndChar

StartChar: CaAU
Encoding: 50 -1 50
GlifName: C_aA_U_
Width: 926
VWidth: 0
Flags: W
AnchorPoint: "Anchor-0" 0 0 basechar 0
LayerCount: 2
Back
Fore
SplineSet
509 392 m 257
NamedP: "hr00"
 522 405 528 421 528 438 c 256
 528 442 527 446 524 450 c 256
 522 454 519 458 515 461 c 257
 728 461 l 258
 756 461 780 454 800 441 c 256
 820 429 830 414 830 395 c 257
 827 397 821 399 813 400 c 256
 804 401 794 401 781 401 c 256
 753 401 729 391 709 371 c 256
 689 350 679 326 679 298 c 256
 679 268 688 242 710 220 c 256
 732 198 758 189 788 189 c 256
 821 189 850 201 874 226 c 256
 897 251 909 281 909 316 c 256
 909 373 891 422 856 463 c 256
 821 503 778 523 728 523 c 258
 164 523 l 257
 164 461 l 257
 443 461 l 258
 448 461 452 459 456 456 c 256
 459 453 461 449 461 444 c 256
 461 439 459 434 454 430 c 256
 449 427 443 425 436 425 c 258
 228 425 l 257
 228 364 l 257
 398 364 l 258
 438 364 472 349 501 320 c 256
 530 290 544 254 544 213 c 256
 544 171 534 135 514 105 c 256
 494 76 470 61 441 61 c 256
 419 61 401 70 385 88 c 256
 370 105 361 126 361 151 c 258
 361 183 l 257
 301 183 l 257
 301 151 l 258
 301 126 293 105 276 88 c 256
 259 70 239 61 216 61 c 256
 193 61 173 69 156 84 c 256
 139 100 131 119 131 140 c 256
 131 162 137 181 149 196 c 256
 160 211 174 219 191 219 c 258
 253 219 l 257
 253 279 l 257
 10 279 l 257
 10 219 l 257
 101 219 l 257
 91 207 83 194 78 179 c 256
 73 165 70 150 70 134 c 256
 70 97 84 65 111 39 c 256
 139 12 172 0 210 0 c 256
 234 0 257 5 278 15 c 256
 298 24 314 38 325 55 c 257
 337 38 353 25 374 15 c 256
 394 6 416 0 441 0 c 256
 486 0 525 21 558 63 c 256
 589 104 605 154 605 213 c 256
 605 271 585 321 544 363 c 256
 533 374 521 384 509 392 c 257
NamedP: "hr00"
823 259 m 256
 813 248 801 243 788 243 c 256
 775 243 763 248 753 259 c 256
 744 270 739 283 739 298 c 256
 739 311 744 323 753 333 c 257
 763 342 775 346 788 346 c 256
 801 346 813 342 823 333 c 257
 832 323 836 311 836 298 c 256
 836 283 832 270 823 259 c 256
EndSplineSet
Ligature2: "'abvs' Above Base Substitutions in Telugu lookup 16 subtable" Ca AuMatra
EndChar

StartChar: CaE
Encoding: 51 -1 51
GlifName: C_aE_
Width: 622
VWidth: 0
Flags: W
AnchorPoint: "Anchor-1" 0 0 basechar 0
AnchorPoint: "Anchor-0" 0 0 basechar 0
LayerCount: 2
Back
Fore
SplineSet
522 382 m 257
NamedP: "hr00"
 526 385 530 389 534 394 c 256
 551 413 559 436 559 463 c 256
 559 490 551 512 534 531 c 256
 517 550 497 560 474 560 c 258
 83 560 l 257
 83 499 l 257
 461 499 l 258
 471 499 480 496 488 489 c 256
 495 482 498 473 498 463 c 256
 498 453 495 444 488 436 c 257
 480 429 471 426 461 426 c 258
 193 426 l 257
 193 365 l 257
 314 365 l 257
 317 364 321 364 325 364 c 258
 398 364 l 258
 438 364 472 349 501 320 c 256
 530 290 544 254 544 213 c 256
 544 171 534 135 514 105 c 256
 494 76 470 61 441 61 c 256
 419 61 401 70 385 88 c 256
 370 105 361 126 361 151 c 258
 361 183 l 257
 301 183 l 257
 301 151 l 258
 301 126 293 105 276 88 c 256
 259 70 239 61 216 61 c 256
 193 61 173 69 156 84 c 256
 139 100 131 119 131 140 c 256
 131 162 137 181 149 196 c 256
 160 211 174 219 191 219 c 258
 253 219 l 257
 253 279 l 257
 10 279 l 257
 10 219 l 257
 101 219 l 257
 91 207 83 194 78 179 c 256
 73 165 70 150 70 134 c 256
 70 97 84 65 111 39 c 256
 139 12 172 0 210 0 c 256
 234 0 257 5 278 15 c 256
 298 24 314 38 325 55 c 257
 337 38 353 25 374 15 c 256
 394 6 416 0 441 0 c 256
 486 0 525 21 558 63 c 256
 589 104 605 154 605 213 c 256
 605 271 585 321 544 363 c 256
 537 370 529 376 522 382 c 257
NamedP: "hr00"
EndSplineSet
PairPos2: "'blwm' Below Base Mark in Telugu lookup 14 subtable" Titvam dx=0 dy=0 dh=18 dv=0 dx=-774 dy=-25 dh=0 dv=0
PairPos2: "'blwm' Below Base Mark in Telugu lookup 0 subtable" tvam dx=0 dy=0 dh=0 dv=0 dx=-830 dy=20 dh=0 dv=0
Ligature2: "'abvs' Above Base Substitutions in Telugu lookup 12 subtable" Ca uni0C46
EndChar

StartChar: CaEE
Encoding: 52 -1 52
GlifName: C_aE_E_
Width: 622
VWidth: 0
Flags: W
AnchorPoint: "Anchor-0" 0 0 basechar 0
LayerCount: 2
Back
Fore
SplineSet
522 382 m 257
NamedP: "hr00"
 526 385 530 389 534 394 c 256
 551 413 559 436 559 463 c 256
 559 490 551 512 534 531 c 256
 517 550 497 560 474 560 c 257
 474 584 l 258
 474 591 476 596 481 601 c 256
 486 606 491 609 498 609 c 258
 546 609 l 257
 546 669 l 257
 474 669 l 258
 457 669 443 663 430 651 c 256
 419 640 413 626 413 609 c 258
 413 560 l 257
 83 560 l 257
 83 499 l 257
 461 499 l 258
 471 499 480 496 488 489 c 256
 495 482 498 473 498 463 c 256
 498 453 495 444 488 436 c 257
 480 429 471 426 461 426 c 258
 193 426 l 257
 193 365 l 257
 314 365 l 257
 398 365 l 258
 438 365 472 349 501 320 c 256
 530 290 544 254 544 213 c 256
 544 171 534 135 514 105 c 256
 494 76 470 61 441 61 c 256
 419 61 401 70 385 88 c 256
 370 105 361 126 361 151 c 258
 361 183 l 257
 301 183 l 257
 301 151 l 258
 301 126 293 105 276 88 c 256
 259 70 239 61 216 61 c 256
 193 61 173 69 156 84 c 256
 139 100 131 119 131 140 c 256
 131 162 137 181 149 196 c 256
 160 211 174 219 191 219 c 258
 253 219 l 257
 253 279 l 257
 10 279 l 257
 10 219 l 257
 101 219 l 257
 91 207 83 194 78 179 c 256
 73 165 70 150 70 134 c 256
 70 97 84 65 111 39 c 256
 139 12 172 0 210 0 c 256
 234 0 257 5 278 15 c 256
 298 24 314 38 325 55 c 257
 337 38 353 25 374 15 c 256
 394 6 416 0 441 0 c 256
 486 0 525 21 558 63 c 256
 589 104 605 154 605 213 c 256
 605 271 585 321 544 363 c 256
 537 370 529 376 522 382 c 257
NamedP: "hr00"
EndSplineSet
Ligature2: "'abvs' Above Base Substitutions in Telugu lookup 13 subtable" Ca EEMatra
EndChar

StartChar: CaHalanth
Encoding: 53 -1 53
GlifName: C_aH_alanth
Width: 622
VWidth: 0
Flags: W
AnchorPoint: "Anchor-0" 0 0 basechar 0
LayerCount: 2
Back
Fore
SplineSet
333 425 m 258
NamedP: "hr00"
 324 425 317 428 311 434 c 256
 306 440 303 447 303 455 c 256
 303 464 306 471 313 478 c 257
 320 483 329 486 339 486 c 258
 470 486 l 257
 470 534 l 257
 326 534 l 258
 319 534 314 536 310 541 c 256
 305 546 303 552 303 559 c 256
 303 566 306 571 313 575 c 256
 320 580 329 583 339 583 c 258
 531 583 l 257
 531 644 l 257
 308 644 l 258
 289 644 274 636 261 621 c 256
 248 606 241 587 241 565 c 256
 241 554 243 544 248 534 c 256
 252 525 258 517 265 510 c 257
 258 503 252 495 248 485 c 256
 243 474 241 462 241 449 c 256
 241 426 250 406 268 389 c 256
 281 377 295 369 311 366 c 256
 315 365 320 364 325 364 c 258
 398 364 l 258
 438 364 472 349 501 320 c 256
 530 290 544 254 544 213 c 256
 544 171 534 135 514 105 c 256
 494 76 470 61 441 61 c 256
 419 61 401 70 385 88 c 256
 370 105 361 126 361 151 c 258
 361 183 l 257
 301 183 l 257
 301 151 l 258
 301 126 293 105 276 88 c 256
 259 70 239 61 216 61 c 256
 193 61 173 69 156 84 c 256
 139 100 131 119 131 140 c 256
 131 162 137 181 149 196 c 256
 160 211 174 219 191 219 c 258
 253 219 l 257
 253 279 l 257
 10 279 l 257
 10 219 l 257
 101 219 l 257
 91 207 83 194 78 179 c 256
 73 165 70 150 70 134 c 256
 70 97 84 65 111 39 c 256
 139 12 172 0 210 0 c 256
 234 0 257 5 278 15 c 256
 298 24 314 38 325 55 c 257
 337 38 353 25 374 15 c 256
 394 6 416 0 441 0 c 256
 486 0 525 21 558 63 c 256
 589 104 605 154 605 213 c 256
 605 271 585 321 544 363 c 256
 504 404 455 425 398 425 c 258
 333 425 l 258
NamedP: "hr00"
EndSplineSet
Ligature2: "'haln' Halant Forms in Telugu lookup 19 subtable" Ca Halanth
EndChar

StartChar: CaI
Encoding: 54 -1 54
GlifName: C_aI_
Width: 633
VWidth: 0
Flags: W
AnchorPoint: "Anchor-0" 0 0 basechar 0
LayerCount: 2
Back
Fore
SplineSet
113 38 m 256
NamedP: "hr00"
 142 13 176 0 216 0 c 256
 241 0 265 5 286 16 c 256
 308 27 325 42 338 61 c 257
 350 42 368 27 393 16 c 256
 416 5 442 0 471 0 c 256
 511 0 545 18 574 55 c 256
 602 92 616 136 616 189 c 256
 616 272 593 335 546 380 c 256
 499 426 434 449 350 449 c 258
 240 449 l 258
 203 449 172 441 145 423 c 256
 119 406 106 384 106 359 c 256
 106 336 116 318 135 303 c 256
 154 287 177 279 204 279 c 256
 231 279 254 286 273 299 c 256
 292 312 301 328 301 346 c 256
 301 363 297 377 289 389 c 257
 303 393 321 395 344 395 c 256
 408 395 460 377 499 340 c 256
 537 303 556 255 556 194 c 256
 556 157 547 126 530 100 c 256
 512 74 490 61 465 61 c 256
 440 61 418 68 400 84 c 256
 382 99 374 119 374 140 c 258
 374 183 l 257
 314 183 l 257
 314 151 l 258
 314 126 305 105 288 88 c 256
 269 70 248 61 223 61 c 256
 200 61 180 68 163 81 c 256
 146 94 138 109 138 128 c 256
 138 146 144 161 155 174 c 256
 167 187 181 194 198 194 c 258
 240 194 l 257
 240 255 l 257
 10 255 l 257
 10 194 l 257
 95 194 l 257
 87 187 81 177 76 165 c 256
 72 154 70 141 70 128 c 256
 70 93 84 63 113 38 c 256
NamedP: "hr00"
225 336 m 257
 219 331 212 328 204 328 c 256
 194 328 185 331 178 336 c 257
 171 343 168 350 168 359 c 256
 168 367 171 374 178 380 c 256
 185 386 194 389 204 389 c 256
 212 389 219 386 225 380 c 256
 231 374 234 367 234 359 c 256
 234 350 231 343 225 336 c 257
EndSplineSet
Ligature2: "'abvs' Above Base Substitutions in Telugu lookup 10 subtable" Ca Imatra
EndChar

StartChar: CaII
Encoding: 55 -1 55
GlifName: C_aI_I_
Width: 633
VWidth: 0
Flags: W
AnchorPoint: "Anchor-0" 0 0 basechar 0
LayerCount: 2
Back
Fore
SplineSet
113 38 m 256
NamedP: "hr00"
 142 13 176 0 216 0 c 256
 241 0 265 5 286 16 c 256
 308 27 325 42 338 61 c 257
 350 42 368 27 393 16 c 256
 416 5 442 0 471 0 c 256
 511 0 545 18 574 55 c 256
 602 92 616 136 616 189 c 256
 616 272 591 335 540 380 c 256
 489 426 418 449 325 449 c 256
 292 449 265 447 246 444 c 257
 242 451 240 459 240 468 c 256
 240 478 244 487 253 494 c 256
 261 501 271 504 283 504 c 256
 293 504 302 501 309 495 c 256
 316 489 319 482 319 474 c 257
 380 474 l 257
 380 499 371 521 350 539 c 256
 330 557 305 565 276 565 c 256
 249 565 227 556 209 539 c 256
 190 520 180 499 180 474 c 256
 180 461 182 449 186 438 c 257
 163 432 144 421 129 405 c 256
 114 389 106 372 106 353 c 256
 106 333 116 314 136 300 c 256
 157 285 182 279 210 279 c 256
 235 279 257 286 275 299 c 256
 292 312 301 328 301 346 c 256
 301 363 297 377 289 389 c 257
 303 393 321 395 344 395 c 256
 408 395 460 377 499 340 c 256
 537 303 556 255 556 194 c 256
 556 157 547 126 530 100 c 256
 512 74 490 61 465 61 c 256
 440 61 418 68 400 84 c 256
 382 99 374 119 374 140 c 258
 374 183 l 257
 314 183 l 257
 314 151 l 258
 314 126 305 105 288 88 c 256
 269 70 248 61 223 61 c 256
 200 61 180 68 163 81 c 256
 146 94 138 109 138 128 c 256
 138 146 144 161 155 174 c 256
 167 187 181 194 198 194 c 258
 240 194 l 257
 240 255 l 257
 10 255 l 257
 10 194 l 257
 95 194 l 257
 87 187 81 177 76 165 c 256
 72 154 70 141 70 128 c 256
 70 93 84 63 113 38 c 256
NamedP: "hr00"
225 336 m 257
 219 331 212 328 204 328 c 256
 194 328 185 331 178 336 c 257
 171 343 168 350 168 359 c 256
 168 367 171 374 178 380 c 256
 185 386 194 389 204 389 c 256
 212 389 219 386 225 380 c 256
 231 374 234 367 234 359 c 256
 234 350 231 343 225 336 c 257
EndSplineSet
Ligature2: "'abvs' Above Base Substitutions in Telugu lookup 11 subtable" Ca IIMatra
EndChar

StartChar: CaNukta
Encoding: 56 3160 56
GlifName: C_aN_ukta
Width: 655
VWidth: 0
Flags: W
AnchorPoint: "Anchor-0" 0 0 basechar 0
LayerCount: 2
Back
Fore
SplineSet
437 643 m 256
NamedP: "hr00"
 426 643 416 647 407 656 c 256
 399 664 395 674 395 686 c 256
 395 701 399 714 408 725 c 256
 418 736 430 741 443 741 c 256
 456 741 468 736 477 725 c 256
 486 714 491 701 491 686 c 256
 491 674 486 664 475 656 c 257
 465 647 452 643 437 643 c 256
NamedP: "hr00"
443 595 m 258
 472 595 496 604 516 623 c 256
 536 642 546 665 546 692 c 256
 546 719 536 742 517 761 c 256
 498 780 475 790 448 790 c 256
 420 790 396 781 376 763 c 256
 356 745 346 723 346 698 c 256
 346 684 346 672 350 663 c 257
 351 653 354 646 358 643 c 257
 17 643 l 257
 17 595 l 257
 443 595 l 258
455 474 m 258
 455 481 458 486 463 490 c 256
 468 495 473 498 480 498 c 258
 638 498 l 257
 638 559 l 257
 455 559 l 258
 438 559 424 553 413 541 c 256
 401 529 395 515 395 498 c 258
 395 425 l 257
 284 425 l 257
 279 426 274 428 271 431 c 256
 268 436 266 440 266 444 c 258
 266 498 l 257
 205 498 l 257
 205 438 l 258
 205 423 211 405 223 385 c 257
 235 371 249 364 266 364 c 258
 398 364 l 258
 438 364 472 349 501 320 c 256
 530 290 544 254 544 213 c 256
 544 171 534 135 514 105 c 256
 494 76 470 61 441 61 c 256
 419 61 401 70 385 88 c 256
 370 105 361 126 361 151 c 258
 361 183 l 257
 301 183 l 257
 301 151 l 258
 301 126 293 105 276 88 c 256
 259 70 239 61 216 61 c 256
 193 61 173 69 156 84 c 256
 139 100 131 119 131 140 c 256
 131 162 137 181 149 196 c 256
 160 211 174 219 191 219 c 258
 253 219 l 257
 253 279 l 257
 10 279 l 257
 10 219 l 257
 101 219 l 257
 91 207 83 194 78 179 c 256
 73 165 70 150 70 134 c 256
 70 97 84 65 111 39 c 256
 139 12 172 0 210 0 c 256
 234 0 257 5 278 15 c 256
 298 24 314 38 325 55 c 257
 337 38 353 25 374 15 c 256
 394 6 416 0 441 0 c 256
 486 0 525 21 558 63 c 256
 589 104 605 154 605 213 c 256
 605 271 585 321 544 363 c 256
 518 390 488 408 455 417 c 257
 455 474 l 258
EndSplineSet
Ligature2: "'nukt' Nukta Forms in Telugu lookup 0 subtable" Ca Nukta
EndChar

StartChar: CaNuktaAA
Encoding: 57 -1 57
GlifName: C_aN_uktaA_A_
Width: 926
VWidth: 0
Flags: W
LayerCount: 2
Back
Fore
SplineSet
739 365 m 258
NamedP: "hr00"
 764 365 785 358 804 344 c 256
 821 330 830 313 830 293 c 257
 816 301 800 305 781 305 c 256
 753 305 729 294 709 273 c 256
 689 251 679 225 679 195 c 256
 679 165 689 139 710 118 c 256
 732 97 758 86 788 86 c 256
 821 86 850 100 874 128 c 256
 897 155 909 188 909 226 c 256
 909 281 892 329 859 368 c 256
 826 407 786 426 739 426 c 258
 84 426 l 257
 84 365 l 257
 314 365 l 257
 398 364 l 258
 438 364 472 349 501 320 c 256
 530 290 544 254 544 213 c 256
 544 171 534 135 514 105 c 256
 494 76 470 61 441 61 c 256
 419 61 401 70 385 88 c 256
 370 105 361 126 361 151 c 258
 361 183 l 257
 301 183 l 257
 301 151 l 258
 301 126 293 105 276 88 c 256
 259 70 239 61 216 61 c 256
 193 61 173 69 156 84 c 256
 139 100 131 119 131 140 c 256
 131 162 137 181 149 196 c 256
 160 211 174 219 191 219 c 258
 253 219 l 257
 253 279 l 257
 10 279 l 257
 10 219 l 257
 101 219 l 257
 91 207 83 194 78 179 c 256
 73 165 70 150 70 134 c 256
 70 97 84 65 111 39 c 256
 139 12 172 0 210 0 c 256
 234 0 257 5 278 15 c 256
 298 24 314 38 325 55 c 257
 337 38 353 25 374 15 c 256
 394 6 416 0 441 0 c 256
 486 0 525 21 558 63 c 256
 589 104 605 154 605 213 c 256
 605 271 585 321 544 363 c 257
 541 365 l 257
 739 365 l 258
NamedP: "hr00"
823 161 m 256
 813 152 801 148 788 148 c 256
 775 148 763 152 753 161 c 256
 744 170 739 182 739 195 c 256
 739 208 744 220 753 230 c 257
 763 239 775 244 788 244 c 256
 801 244 813 239 823 230 c 257
 832 220 836 208 836 195 c 256
 836 182 832 170 823 161 c 256
437 561 m 256
 426 561 416 565 407 574 c 256
 399 582 395 592 395 604 c 256
 395 619 399 632 408 643 c 256
 418 654 430 659 443 659 c 256
 456 659 468 654 477 643 c 256
 486 632 491 619 491 604 c 256
 491 592 486 582 475 574 c 257
 465 565 452 561 437 561 c 256
443 513 m 258
 472 513 496 522 516 541 c 256
 536 560 546 583 546 610 c 256
 546 637 536 660 517 679 c 256
 498 698 475 708 448 708 c 256
 420 708 396 699 376 681 c 256
 356 663 346 641 346 616 c 256
 346 602 346 590 350 581 c 257
 351 571 354 564 358 561 c 257
 17 561 l 257
 17 513 l 257
 443 513 l 258
EndSplineSet
Ligature2: "'abvs' Above Base Substitutions in Telugu lookup 9 subtable" Ca Nukta AAMatra
EndChar

StartChar: CaNuktaAU
Encoding: 58 -1 58
GlifName: C_aN_uktaA_U_
Width: 926
VWidth: 0
Flags: W
LayerCount: 2
Back
Fore
SplineSet
509 392 m 257
NamedP: "hr00"
 522 405 528 421 528 438 c 256
 528 442 527 446 524 450 c 256
 522 454 519 458 515 461 c 257
 728 461 l 258
 756 461 780 454 800 441 c 256
 820 429 830 414 830 395 c 257
 827 397 821 399 813 400 c 256
 804 401 794 401 781 401 c 256
 753 401 729 391 709 371 c 256
 689 350 679 326 679 298 c 256
 679 268 688 242 710 220 c 256
 732 198 758 189 788 189 c 256
 821 189 850 201 874 226 c 256
 897 251 909 281 909 316 c 256
 909 373 891 422 856 463 c 256
 821 503 778 523 728 523 c 258
 164 523 l 257
 164 461 l 257
 443 461 l 258
 448 461 452 459 456 456 c 256
 459 453 461 449 461 444 c 256
 461 439 459 434 454 430 c 256
 449 427 443 425 436 425 c 258
 228 425 l 257
 228 364 l 257
 398 364 l 258
 438 364 472 349 501 320 c 256
 530 290 544 254 544 213 c 256
 544 171 534 135 514 105 c 256
 494 76 470 61 441 61 c 256
 419 61 401 70 385 88 c 256
 370 105 361 126 361 151 c 258
 361 183 l 257
 301 183 l 257
 301 151 l 258
 301 126 293 105 276 88 c 256
 259 70 239 61 216 61 c 256
 193 61 173 69 156 84 c 256
 139 100 131 119 131 140 c 256
 131 162 137 181 149 196 c 256
 160 211 174 219 191 219 c 258
 253 219 l 257
 253 279 l 257
 10 279 l 257
 10 219 l 257
 101 219 l 257
 91 207 83 194 78 179 c 256
 73 165 70 150 70 134 c 256
 70 97 84 65 111 39 c 256
 139 12 172 0 210 0 c 256
 234 0 257 5 278 15 c 256
 298 24 314 38 325 55 c 257
 337 38 353 25 374 15 c 256
 394 6 416 0 441 0 c 256
 486 0 525 21 558 63 c 256
 589 104 605 154 605 213 c 256
 605 271 585 321 544 363 c 256
 533 374 521 384 509 392 c 257
NamedP: "hr00"
823 259 m 256
 813 248 801 243 788 243 c 256
 775 243 763 248 753 259 c 256
 744 270 739 283 739 298 c 256
 739 311 744 323 753 333 c 257
 763 342 775 346 788 346 c 256
 801 346 813 342 823 333 c 257
 832 323 836 311 836 298 c 256
 836 283 832 270 823 259 c 256
437 646 m 256
 426 646 416 650 407 659 c 256
 399 667 395 677 395 689 c 256
 395 704 399 717 408 728 c 256
 418 739 430 744 443 744 c 256
 456 744 468 739 477 728 c 256
 486 717 491 704 491 689 c 256
 491 677 486 667 475 659 c 257
 465 650 452 646 437 646 c 256
443 598 m 258
 472 598 496 607 516 626 c 256
 536 645 546 668 546 695 c 256
 546 722 536 745 517 764 c 256
 498 783 475 793 448 793 c 256
 420 793 396 784 376 766 c 256
 356 748 346 726 346 701 c 256
 346 687 346 675 350 666 c 257
 351 656 354 649 358 646 c 257
 17 646 l 257
 17 598 l 257
 443 598 l 258
EndSplineSet
Ligature2: "'abvs' Above Base Substitutions in Telugu lookup 16 subtable" CaNukta AuMatra
EndChar

StartChar: CaNuktaHalanth
Encoding: 59 -1 59
GlifName: C_aN_uktaH_alanth
Width: 622
VWidth: 0
Flags: W
LayerCount: 2
Back
Fore
SplineSet
333 425 m 258
NamedP: "hr00"
 324 425 317 428 311 434 c 256
 306 440 303 447 303 455 c 256
 303 464 306 471 313 478 c 257
 320 483 329 486 339 486 c 258
 470 486 l 257
 470 534 l 257
 326 534 l 258
 319 534 314 536 310 541 c 256
 305 546 303 552 303 559 c 256
 303 566 306 571 313 575 c 256
 320 580 329 583 339 583 c 258
 531 583 l 257
 531 644 l 257
 308 644 l 258
 289 644 274 636 261 621 c 256
 248 606 241 587 241 565 c 256
 241 554 243 544 248 534 c 256
 252 525 258 517 265 510 c 257
 258 503 252 495 248 485 c 256
 243 474 241 462 241 449 c 256
 241 426 250 406 268 389 c 256
 281 377 295 369 311 366 c 256
 315 365 320 364 325 364 c 258
 391 364 l 258
 434 364 470 349 499 320 c 256
 529 290 544 254 544 213 c 256
 544 171 534 135 514 105 c 256
 494 76 470 61 441 61 c 256
 419 61 401 70 385 88 c 256
 370 105 361 126 361 151 c 258
 361 183 l 257
 301 183 l 257
 301 151 l 258
 301 126 293 105 276 88 c 256
 259 70 239 61 216 61 c 256
 193 61 173 69 156 84 c 256
 139 100 131 119 131 140 c 256
 131 162 137 181 149 196 c 256
 160 211 174 219 191 219 c 258
 253 219 l 257
 253 279 l 257
 10 279 l 257
 10 219 l 257
 101 219 l 257
 91 207 83 194 78 179 c 256
 73 165 70 150 70 134 c 256
 70 97 84 65 111 39 c 256
 139 12 172 0 210 0 c 256
 234 0 257 5 278 15 c 256
 298 24 314 38 325 55 c 257
 337 38 353 25 374 15 c 256
 394 6 416 0 441 0 c 256
 486 0 525 21 558 63 c 256
 589 104 605 154 605 213 c 256
 605 271 585 321 543 363 c 256
 501 405 450 425 391 425 c 258
 333 425 l 258
NamedP: "hr00"
361 -122 m 257
 361 0 l 257
 301 0 l 257
 301 -122 l 257
 361 -122 l 257
437 752 m 256
 426 752 416 756 407 765 c 256
 399 773 395 783 395 795 c 256
 395 810 399 823 408 834 c 256
 418 845 430 850 443 850 c 256
 456 850 468 845 477 834 c 256
 486 823 491 810 491 795 c 256
 491 783 486 773 475 765 c 257
 465 756 452 752 437 752 c 256
443 704 m 258
 472 704 496 713 516 732 c 256
 536 751 546 774 546 801 c 256
 546 828 536 851 517 870 c 256
 498 889 475 899 448 899 c 256
 420 899 396 890 376 872 c 256
 356 854 346 832 346 807 c 256
 346 793 346 781 350 772 c 257
 351 762 354 755 358 752 c 257
 17 752 l 257
 17 704 l 257
 443 704 l 258
EndSplineSet
Ligature2: "'haln' Halant Forms in Telugu lookup 19 subtable" CaNukta Halanth
EndChar

StartChar: CaNuktaO
Encoding: 60 -1 60
GlifName: C_aN_uktaO_
Width: 926
VWidth: 0
Flags: W
LayerCount: 2
Back
Fore
SplineSet
236 425 m 258
NamedP: "hr00"
 228 425 221 428 214 433 c 256
 208 437 205 442 205 449 c 256
 205 459 213 468 230 475 c 256
 247 482 267 486 290 486 c 258
 435 486 l 258
 474 486 505 478 528 461 c 256
 551 444 563 422 563 395 c 258
 563 376 l 257
 624 376 l 257
 624 406 l 258
 624 423 631 438 646 450 c 256
 662 463 681 468 703 468 c 256
 740 468 771 460 798 443 c 256
 823 426 836 406 836 383 c 257
 829 388 820 393 811 396 c 256
 802 399 792 401 781 401 c 256
 753 401 729 390 709 369 c 256
 689 347 679 321 679 291 c 256
 679 261 690 235 713 214 c 256
 735 193 762 183 794 183 c 256
 825 183 852 197 875 226 c 256
 898 256 909 292 909 334 c 256
 909 388 889 434 849 471 c 256
 808 510 760 529 703 529 c 256
 676 529 652 525 631 516 c 256
 610 507 596 495 588 480 c 257
 573 501 552 517 525 529 c 256
 498 540 468 546 435 546 c 258
 290 546 l 258
 250 546 216 537 188 518 c 256
 159 499 145 476 145 449 c 256
 145 426 154 406 171 389 c 256
 190 371 211 364 236 364 c 258
 398 364 l 258
 438 364 472 349 501 320 c 256
 530 290 544 254 544 213 c 256
 544 171 534 135 514 105 c 256
 494 76 470 61 441 61 c 256
 419 61 401 70 385 88 c 256
 370 105 361 126 361 151 c 258
 361 183 l 257
 301 183 l 257
 301 151 l 258
 301 126 293 105 276 88 c 256
 259 70 239 61 216 61 c 256
 193 61 173 69 156 84 c 256
 139 100 131 119 131 140 c 256
 131 162 137 181 149 196 c 256
 160 211 174 219 191 219 c 258
 253 219 l 257
 253 279 l 257
 10 279 l 257
 10 219 l 257
 101 219 l 257
 91 207 83 194 78 179 c 256
 73 165 70 150 70 134 c 256
 70 97 84 65 111 39 c 256
 139 12 172 0 210 0 c 256
 234 0 257 5 278 15 c 256
 298 24 314 38 325 55 c 257
 337 38 353 25 374 15 c 256
 394 6 416 0 441 0 c 256
 486 0 525 21 558 63 c 256
 589 104 605 154 605 213 c 256
 605 271 585 321 544 363 c 256
 504 404 455 425 398 425 c 258
 236 425 l 258
NamedP: "hr00"
823 253 m 256
 813 242 801 236 788 236 c 256
 775 236 763 242 753 253 c 256
 744 264 739 276 739 291 c 256
 739 304 744 316 753 326 c 257
 763 335 775 340 788 340 c 256
 801 340 813 335 823 326 c 257
 832 316 836 304 836 291 c 256
 836 276 832 264 823 253 c 256
437 646 m 256
 426 646 416 650 407 659 c 256
 399 667 395 677 395 689 c 256
 395 704 399 717 408 728 c 256
 418 739 430 744 443 744 c 256
 456 744 468 739 477 728 c 256
 486 717 491 704 491 689 c 256
 491 677 486 667 475 659 c 257
 465 650 452 646 437 646 c 256
443 598 m 258
 472 598 496 607 516 626 c 256
 536 645 546 668 546 695 c 256
 546 722 536 745 517 764 c 256
 498 783 475 793 448 793 c 256
 420 793 396 784 376 766 c 256
 356 748 346 726 346 701 c 256
 346 687 346 675 350 666 c 257
 351 656 354 649 358 646 c 257
 17 646 l 257
 17 598 l 257
 443 598 l 258
EndSplineSet
Ligature2: "'abvs' Above Base Substitutions in Telugu lookup 14 subtable" CaNukta OMatra
EndChar

StartChar: CaNuktaOO
Encoding: 61 -1 61
GlifName: C_aN_uktaO_O_
Width: 926
VWidth: 0
Flags: W
LayerCount: 2
Back
Fore
SplineSet
236 425 m 258
NamedP: "hr00"
 226 425 217 428 210 433 c 256
 203 437 200 442 200 449 c 256
 200 459 208 468 225 475 c 256
 242 482 262 486 285 486 c 258
 435 486 l 258
 474 486 505 479 528 465 c 256
 551 450 563 431 563 406 c 258
 563 376 l 257
 624 376 l 257
 624 406 l 258
 624 423 633 437 650 450 c 257
 669 462 690 468 715 468 c 256
 746 468 772 460 795 444 c 256
 818 427 832 407 836 383 c 257
 829 388 820 393 811 396 c 256
 802 399 792 401 781 401 c 256
 753 401 729 390 709 369 c 256
 689 347 679 321 679 291 c 256
 679 261 689 235 710 214 c 256
 732 193 758 183 788 183 c 256
 825 183 854 197 876 224 c 256
 898 251 909 288 909 334 c 256
 909 380 896 420 871 455 c 256
 846 490 814 513 775 523 c 257
 775 546 l 258
 775 556 779 565 786 573 c 257
 794 580 803 583 813 583 c 256
 823 583 832 580 839 575 c 256
 846 571 849 566 849 559 c 257
 909 559 l 257
 909 582 899 602 880 619 c 256
 862 636 840 644 813 644 c 256
 786 644 763 636 744 619 c 256
 725 602 715 582 715 559 c 258
 715 529 l 257
 684 529 658 525 635 516 c 256
 612 507 596 495 588 480 c 257
 573 501 552 517 525 529 c 256
 498 540 468 546 435 546 c 258
 285 546 l 258
 245 546 210 537 181 518 c 256
 153 499 139 476 139 449 c 256
 139 426 149 406 168 389 c 256
 187 372 209 364 236 364 c 258
 398 364 l 258
 438 364 472 349 501 320 c 256
 530 290 544 254 544 213 c 256
 544 171 534 135 514 105 c 256
 494 76 470 61 441 61 c 256
 419 61 401 70 385 88 c 256
 370 105 361 126 361 151 c 258
 361 183 l 257
 301 183 l 257
 301 151 l 258
 301 126 293 105 276 88 c 256
 259 70 239 61 216 61 c 256
 193 61 173 69 156 84 c 256
 139 100 131 119 131 140 c 256
 131 162 137 181 149 196 c 256
 160 211 174 219 191 219 c 258
 253 219 l 257
 253 279 l 257
 10 279 l 257
 10 219 l 257
 101 219 l 257
 91 207 83 194 78 179 c 256
 73 165 70 150 70 134 c 256
 70 97 84 65 111 39 c 256
 139 12 172 0 210 0 c 256
 234 0 257 5 278 15 c 256
 298 24 314 38 325 55 c 257
 337 38 353 25 374 15 c 256
 394 6 416 0 441 0 c 256
 486 0 525 21 558 63 c 256
 589 104 605 154 605 213 c 256
 605 271 585 321 544 363 c 256
 504 404 455 425 398 425 c 258
 236 425 l 258
NamedP: "hr00"
823 253 m 256
 813 242 801 236 788 236 c 256
 775 236 763 242 753 253 c 256
 744 264 739 276 739 291 c 256
 739 304 744 316 753 326 c 257
 763 335 775 340 788 340 c 256
 801 340 813 335 823 326 c 257
 832 316 836 304 836 291 c 256
 836 276 832 264 823 253 c 256
437 646 m 256
 426 646 416 650 407 659 c 256
 399 667 395 677 395 689 c 256
 395 704 399 717 408 728 c 256
 418 739 430 744 443 744 c 256
 456 744 468 739 477 728 c 256
 486 717 491 704 491 689 c 256
 491 677 486 667 475 659 c 257
 465 650 452 646 437 646 c 256
443 598 m 258
 472 598 496 607 516 626 c 256
 536 645 546 668 546 695 c 256
 546 722 536 745 517 764 c 256
 498 783 475 793 448 793 c 256
 420 793 396 784 376 766 c 256
 356 748 346 726 346 701 c 256
 346 687 346 675 350 666 c 257
 351 656 354 649 358 646 c 257
 17 646 l 257
 17 598 l 257
 443 598 l 258
EndSplineSet
Ligature2: "'abvs' Above Base Substitutions in Telugu lookup 15 subtable" CaNukta OOMatra
EndChar

StartChar: CaNuktaU
Encoding: 62 -1 62
GlifName: C_aN_uktaU_
Width: 926
VWidth: 0
Flags: W
AnchorPoint: "Anchor-3" 0 0 basechar 0
LayerCount: 2
Back
Fore
SplineSet
596 139 m 257
NamedP: "hr00"
 602 162 605 186 605 213 c 256
 605 271 585 321 544 363 c 256
 518 390 488 408 455 418 c 257
 455 474 l 258
 455 481 458 486 463 490 c 256
 468 495 473 498 480 498 c 258
 638 498 l 257
 638 559 l 257
 455 559 l 258
 438 559 424 553 413 541 c 256
 401 529 395 515 395 498 c 258
 395 425 l 257
 284 425 l 257
 279 426 274 428 271 431 c 256
 268 436 266 440 266 444 c 258
 266 498 l 257
 205 498 l 257
 205 438 l 258
 205 423 211 405 223 385 c 257
 235 371 249 364 266 364 c 258
 398 364 l 258
 438 364 472 349 501 320 c 256
 530 290 544 254 544 213 c 256
 544 171 534 135 514 105 c 256
 494 76 470 61 441 61 c 256
 419 61 401 70 385 88 c 256
 370 105 361 126 361 151 c 258
 361 183 l 257
 301 183 l 257
 301 151 l 258
 301 126 293 105 276 88 c 256
 259 70 239 61 216 61 c 256
 193 61 173 69 156 84 c 256
 139 100 131 119 131 140 c 256
 131 162 137 181 149 196 c 256
 160 211 174 219 191 219 c 258
 253 219 l 257
 253 279 l 257
 10 279 l 257
 10 219 l 257
 101 219 l 257
 91 207 83 194 78 179 c 256
 73 165 70 150 70 134 c 256
 70 97 84 65 111 39 c 256
 139 12 172 0 210 0 c 256
 234 0 257 5 278 15 c 256
 298 24 314 38 325 55 c 257
 337 38 353 25 374 15 c 256
 394 6 416 0 441 0 c 256
 486 0 527 20 558 63 c 258
 568 77 l 257
 579 60 594 44 613 31 c 256
 644 10 677 0 714 0 c 256
 768 0 813 22 851 63 c 256
 889 105 909 154 909 213 c 256
 909 271 893 321 858 363 c 256
 824 404 781 425 733 425 c 258
 715 425 l 257
 715 364 l 257
 739 364 l 258
 769 364 795 349 816 320 c 256
 837 290 848 254 848 213 c 256
 848 171 836 135 809 105 c 256
 783 76 751 61 714 61 c 256
 681 61 653 73 628 96 c 256
 615 109 604 123 596 139 c 257
NamedP: "hr00"
437 646 m 256
 426 646 416 650 407 659 c 256
 399 667 395 677 395 689 c 256
 395 704 399 717 408 728 c 256
 418 739 430 744 443 744 c 256
 456 744 468 739 477 728 c 256
 486 717 491 704 491 689 c 256
 491 677 486 667 475 659 c 257
 465 650 452 646 437 646 c 256
443 598 m 258
 472 598 496 607 516 626 c 256
 536 645 546 668 546 695 c 256
 546 722 536 745 517 764 c 256
 498 783 475 793 448 793 c 256
 420 793 396 784 376 766 c 256
 356 748 346 726 346 701 c 256
 346 687 346 675 350 666 c 257
 351 656 354 649 358 646 c 257
 17 646 l 257
 17 598 l 257
 443 598 l 258
EndSplineSet
Ligature2: "'psts' Post Base Substitutions in Telugu lookup 17 subtable" CaNukta UMatra
EndChar

StartChar: CaNuktaUU
Encoding: 63 -1 63
GlifName: C_aN_uktaU_U_
Width: 1205
VWidth: 0
Flags: W
AnchorPoint: "Anchor-3" 0 0 basechar 0
LayerCount: 2
Back
Fore
SplineSet
595 137 m 257
NamedP: "hr00"
 602 160 605 186 605 213 c 256
 605 271 585 321 544 363 c 256
 518 390 488 408 455 418 c 257
 455 474 l 258
 455 481 458 486 463 490 c 256
 468 495 473 498 480 498 c 258
 638 498 l 257
 638 559 l 257
 455 559 l 258
 438 559 424 553 413 541 c 256
 401 529 395 515 395 498 c 258
 395 425 l 257
 284 425 l 257
 279 426 274 428 271 431 c 256
 268 436 266 440 266 444 c 258
 266 498 l 257
 205 498 l 257
 205 438 l 258
 205 423 211 405 223 385 c 257
 235 371 249 364 266 364 c 258
 398 364 l 258
 438 364 472 349 501 320 c 256
 530 290 544 254 544 213 c 256
 544 171 534 135 514 105 c 256
 494 76 470 61 441 61 c 256
 419 61 401 70 385 88 c 256
 370 105 361 126 361 151 c 258
 361 183 l 257
 301 183 l 257
 301 151 l 258
 301 126 293 105 276 88 c 256
 259 70 239 61 216 61 c 256
 193 61 173 69 156 84 c 256
 139 100 131 119 131 140 c 256
 131 162 137 181 149 196 c 256
 160 211 174 219 191 219 c 258
 253 219 l 257
 253 279 l 257
 10 279 l 257
 10 219 l 257
 101 219 l 257
 91 207 83 194 78 179 c 256
 73 165 70 150 70 134 c 256
 70 97 84 65 111 39 c 256
 139 12 172 0 210 0 c 256
 234 0 257 5 278 15 c 256
 298 24 314 38 325 55 c 257
 337 38 353 25 374 15 c 256
 394 6 416 0 441 0 c 256
 486 0 527 19 558 63 c 258
 565 73 l 257
 575 58 588 45 604 34 c 256
 635 11 672 0 714 0 c 256
 768 0 813 20 851 59 c 256
 889 99 909 145 909 200 c 256
 909 240 904 274 894 303 c 256
 885 332 871 352 854 364 c 257
 1018 364 l 258
 1042 364 1063 357 1080 343 c 256
 1097 328 1107 311 1109 291 c 257
 1096 300 1080 304 1060 304 c 256
 1032 304 1007 295 986 274 c 256
 965 253 956 229 956 200 c 256
 956 169 968 143 993 119 c 256
 1016 96 1045 85 1079 85 c 256
 1109 85 1135 99 1156 126 c 256
 1177 154 1188 187 1188 225 c 256
 1188 280 1171 327 1138 366 c 256
 1105 405 1065 425 1018 425 c 258
 701 425 l 257
 701 364 l 257
 744 364 l 258
 772 364 797 349 818 318 c 256
 838 287 848 249 848 206 c 256
 848 166 835 132 809 104 c 256
 782 75 751 61 714 61 c 256
 681 61 651 73 626 96 c 256
 613 109 603 122 595 137 c 257
NamedP: "hr00"
1101 160 m 256
 1091 151 1079 146 1066 146 c 256
 1053 146 1041 151 1031 160 c 256
 1022 169 1018 181 1018 194 c 256
 1018 207 1022 219 1031 229 c 257
 1041 238 1053 243 1066 243 c 256
 1079 243 1091 238 1101 229 c 257
 1110 219 1115 207 1115 194 c 256
 1115 181 1110 169 1101 160 c 256
437 646 m 256
 426 646 416 650 407 659 c 256
 399 667 395 677 395 689 c 256
 395 704 399 717 408 728 c 256
 418 739 430 744 443 744 c 256
 456 744 468 739 477 728 c 256
 486 717 491 704 491 689 c 256
 491 677 486 667 475 659 c 257
 465 650 452 646 437 646 c 256
443 598 m 258
 472 598 496 607 516 626 c 256
 536 645 546 668 546 695 c 256
 546 722 536 745 517 764 c 256
 498 783 475 793 448 793 c 256
 420 793 396 784 376 766 c 256
 356 748 346 726 346 701 c 256
 346 687 346 675 350 666 c 257
 351 656 354 649 358 646 c 257
 17 646 l 257
 17 598 l 257
 443 598 l 258
EndSplineSet
Ligature2: "'psts' Post Base Substitutions in Telugu lookup 17 subtable" CaNukta UUMatra
EndChar

StartChar: CaO
Encoding: 64 -1 64
GlifName: C_aO_
Width: 926
VWidth: 0
Flags: W
AnchorPoint: "Anchor-0" 0 0 basechar 0
LayerCount: 2
Back
Fore
SplineSet
236 425 m 258
NamedP: "hr00"
 228 425 221 428 214 433 c 256
 208 437 205 442 205 449 c 256
 205 459 213 468 230 475 c 256
 247 482 267 486 290 486 c 258
 435 486 l 258
 474 486 505 478 528 461 c 256
 551 444 563 422 563 395 c 258
 563 376 l 257
 624 376 l 257
 624 406 l 258
 624 423 631 438 646 450 c 256
 662 463 681 468 703 468 c 256
 740 468 771 460 798 443 c 256
 823 426 836 406 836 383 c 257
 829 388 820 393 811 396 c 256
 802 399 792 401 781 401 c 256
 753 401 729 390 709 369 c 256
 689 347 679 321 679 291 c 256
 679 261 690 235 713 214 c 256
 735 193 762 183 794 183 c 256
 825 183 852 197 875 226 c 256
 898 256 909 292 909 334 c 256
 909 388 889 434 849 471 c 256
 808 510 760 529 703 529 c 256
 676 529 652 525 631 516 c 256
 610 507 596 495 588 480 c 257
 573 501 552 517 525 529 c 256
 498 540 468 546 435 546 c 258
 290 546 l 258
 250 546 216 537 188 518 c 256
 159 499 145 476 145 449 c 256
 145 426 154 406 171 389 c 256
 190 371 211 364 236 364 c 258
 398 364 l 258
 438 364 472 349 501 320 c 256
 530 290 544 254 544 213 c 256
 544 171 534 135 514 105 c 256
 494 76 470 61 441 61 c 256
 419 61 401 70 385 88 c 256
 370 105 361 126 361 151 c 258
 361 183 l 257
 301 183 l 257
 301 151 l 258
 301 126 293 105 276 88 c 256
 259 70 239 61 216 61 c 256
 193 61 173 69 156 84 c 256
 139 100 131 119 131 140 c 256
 131 162 137 181 149 196 c 256
 160 211 174 219 191 219 c 258
 253 219 l 257
 253 279 l 257
 10 279 l 257
 10 219 l 257
 101 219 l 257
 91 207 83 194 78 179 c 256
 73 165 70 150 70 134 c 256
 70 97 84 65 111 39 c 256
 139 12 172 0 210 0 c 256
 234 0 257 5 278 15 c 256
 298 24 314 38 325 55 c 257
 337 38 353 25 374 15 c 256
 394 6 416 0 441 0 c 256
 486 0 525 21 558 63 c 256
 589 104 605 154 605 213 c 256
 605 271 585 321 544 363 c 256
 504 404 455 425 398 425 c 258
 236 425 l 258
NamedP: "hr00"
823 253 m 256
 813 242 801 236 788 236 c 256
 775 236 763 242 753 253 c 256
 744 264 739 276 739 291 c 256
 739 304 744 316 753 326 c 257
 763 335 775 340 788 340 c 256
 801 340 813 335 823 326 c 257
 832 316 836 304 836 291 c 256
 836 276 832 264 823 253 c 256
EndSplineSet
Ligature2: "'abvs' Above Base Substitutions in Telugu lookup 14 subtable" Ca OMatra
EndChar

StartChar: CaOO
Encoding: 65 -1 65
GlifName: C_aO_O_
Width: 926
VWidth: 0
Flags: W
AnchorPoint: "Anchor-0" 0 0 basechar 0
LayerCount: 2
Back
Fore
SplineSet
236 425 m 258
NamedP: "hr00"
 226 425 217 428 210 433 c 256
 203 437 200 442 200 449 c 256
 200 459 208 468 225 475 c 256
 242 482 262 486 285 486 c 258
 435 486 l 258
 474 486 505 479 528 465 c 256
 551 450 563 431 563 406 c 258
 563 376 l 257
 624 376 l 257
 624 406 l 258
 624 423 633 437 650 450 c 257
 669 462 690 468 715 468 c 256
 746 468 772 460 795 444 c 256
 818 427 832 407 836 383 c 257
 829 388 820 393 811 396 c 256
 802 399 792 401 781 401 c 256
 753 401 729 390 709 369 c 256
 689 347 679 321 679 291 c 256
 679 261 689 235 710 214 c 256
 732 193 758 183 788 183 c 256
 825 183 854 197 876 224 c 256
 898 251 909 288 909 334 c 256
 909 380 896 420 871 455 c 256
 846 490 814 513 775 523 c 257
 775 546 l 258
 775 556 779 565 786 573 c 257
 794 580 803 583 813 583 c 256
 823 583 832 580 839 575 c 256
 846 571 849 566 849 559 c 257
 909 559 l 257
 909 582 899 602 880 619 c 256
 862 636 840 644 813 644 c 256
 786 644 763 636 744 619 c 256
 725 602 715 582 715 559 c 258
 715 529 l 257
 684 529 658 525 635 516 c 256
 612 507 596 495 588 480 c 257
 573 501 552 517 525 529 c 256
 498 540 468 546 435 546 c 258
 285 546 l 258
 245 546 210 537 181 518 c 256
 153 499 139 476 139 449 c 256
 139 426 149 406 168 389 c 256
 187 372 209 364 236 364 c 258
 398 364 l 258
 438 364 472 349 501 320 c 256
 530 290 544 254 544 213 c 256
 544 171 534 135 514 105 c 256
 494 76 470 61 441 61 c 256
 419 61 401 70 385 88 c 256
 370 105 361 126 361 151 c 258
 361 183 l 257
 301 183 l 257
 301 151 l 258
 301 126 293 105 276 88 c 256
 259 70 239 61 216 61 c 256
 193 61 173 69 156 84 c 256
 139 100 131 119 131 140 c 256
 131 162 137 181 149 196 c 256
 160 211 174 219 191 219 c 258
 253 219 l 257
 253 279 l 257
 10 279 l 257
 10 219 l 257
 101 219 l 257
 91 207 83 194 78 179 c 256
 73 165 70 150 70 134 c 256
 70 97 84 65 111 39 c 256
 139 12 172 0 210 0 c 256
 234 0 257 5 278 15 c 256
 298 24 314 38 325 55 c 257
 337 38 353 25 374 15 c 256
 394 6 416 0 441 0 c 256
 486 0 525 21 558 63 c 256
 589 104 605 154 605 213 c 256
 605 271 585 321 544 363 c 256
 504 404 455 425 398 425 c 258
 236 425 l 258
NamedP: "hr00"
823 253 m 256
 813 242 801 236 788 236 c 256
 775 236 763 242 753 253 c 256
 744 264 739 276 739 291 c 256
 739 304 744 316 753 326 c 257
 763 335 775 340 788 340 c 256
 801 340 813 335 823 326 c 257
 832 316 836 304 836 291 c 256
 836 276 832 264 823 253 c 256
EndSplineSet
Ligature2: "'abvs' Above Base Substitutions in Telugu lookup 15 subtable" Ca OOMatra
EndChar

StartChar: CaOttu
Encoding: 66 -1 66
GlifName: C_aO_ttu
Width: 223
VWidth: 0
Flags: W
LayerCount: 2
Back
Fore
SplineSet
-87 -296 m 256
NamedP: "hr00"
 -70 -296 -54 -293 -40 -286 c 256
 -27 -279 -18 -271 -12 -261 c 257
 -9 -271 1 -279 17 -286 c 256
 34 -293 52 -296 73 -296 c 256
 107 -296 136 -280 161 -248 c 256
 184 -217 196 -180 196 -135 c 256
 196 -78 177 -30 141 12 c 256
 105 53 62 73 10 73 c 257
 10 21 l 257
 47 21 79 6 105 -25 c 256
 130 -56 143 -92 143 -135 c 256
 143 -164 136 -190 122 -211 c 256
 109 -232 92 -243 73 -243 c 256
 57 -243 43 -238 30 -229 c 256
 19 -220 14 -209 14 -196 c 258
 14 -182 l 257
 -39 -182 l 257
 -39 -196 l 258
 -39 -209 -43 -220 -52 -230 c 256
 -61 -239 -72 -243 -85 -243 c 256
 -98 -243 -109 -239 -119 -231 c 256
 -127 -223 -131 -213 -131 -202 c 256
 -131 -188 -124 -176 -111 -166 c 256
 -97 -155 -80 -149 -59 -149 c 257
 -59 -97 l 257
 -233 -97 l 257
 -233 -149 l 257
 -163 -149 l 257
 -169 -155 -174 -163 -178 -174 c 256
 -182 -185 -184 -196 -184 -209 c 256
 -184 -233 -174 -254 -154 -271 c 256
 -135 -288 -113 -296 -87 -296 c 256
NamedP: "hr00"
EndSplineSet
Ligature2: "'blwf' Below Base Forms in Telugu lookup 2 subtable" Ca Halanth
Ligature2: "'blwf' Below Base Forms in Telugu lookup 2 subtable" CaNukta Halanth
EndChar

StartChar: CaU
Encoding: 67 -1 67
GlifName: C_aU_
Width: 926
VWidth: 0
Flags: W
AnchorPoint: "Anchor-3" 0 0 basechar 0
AnchorPoint: "Anchor-0" 0 0 basechar 0
LayerCount: 2
Back
Fore
SplineSet
596 139 m 257
NamedP: "hr00"
 602 162 605 186 605 213 c 256
 605 271 585 321 544 363 c 256
 518 390 488 408 455 418 c 257
 455 474 l 258
 455 481 458 486 463 490 c 256
 468 495 473 498 480 498 c 258
 638 498 l 257
 638 559 l 257
 455 559 l 258
 438 559 424 553 413 541 c 256
 401 529 395 515 395 498 c 258
 395 425 l 257
 284 425 l 257
 279 426 274 428 271 431 c 256
 268 436 266 440 266 444 c 258
 266 498 l 257
 205 498 l 257
 205 438 l 258
 205 423 211 405 223 385 c 257
 235 371 249 364 266 364 c 258
 398 364 l 258
 438 364 472 349 501 320 c 256
 530 290 544 254 544 213 c 256
 544 171 534 135 514 105 c 256
 494 76 470 61 441 61 c 256
 419 61 401 70 385 88 c 256
 370 105 361 126 361 151 c 258
 361 183 l 257
 301 183 l 257
 301 151 l 258
 301 126 293 105 276 88 c 256
 259 70 239 61 216 61 c 256
 193 61 173 69 156 84 c 256
 139 100 131 119 131 140 c 256
 131 162 137 181 149 196 c 256
 160 211 174 219 191 219 c 258
 253 219 l 257
 253 279 l 257
 10 279 l 257
 10 219 l 257
 101 219 l 257
 91 207 83 194 78 179 c 256
 73 165 70 150 70 134 c 256
 70 97 84 65 111 39 c 256
 139 12 172 0 210 0 c 256
 234 0 257 5 278 15 c 256
 298 24 314 38 325 55 c 257
 337 38 353 25 374 15 c 256
 394 6 416 0 441 0 c 256
 486 0 527 20 558 63 c 258
 568 77 l 257
 579 60 594 44 613 31 c 256
 644 10 677 0 714 0 c 256
 768 0 813 22 851 63 c 256
 889 105 909 154 909 213 c 256
 909 271 893 321 858 363 c 256
 824 404 781 425 733 425 c 258
 715 425 l 257
 715 364 l 257
 739 364 l 258
 769 364 795 349 816 320 c 256
 837 290 848 254 848 213 c 256
 848 171 836 135 809 105 c 256
 783 76 751 61 714 61 c 256
 681 61 653 73 628 96 c 256
 615 109 604 123 596 139 c 257
NamedP: "hr00"
EndSplineSet
Ligature2: "'psts' Post Base Substitutions in Telugu lookup 17 subtable" Ca UMatra
EndChar

StartChar: CaUU
Encoding: 68 -1 68
GlifName: C_aU_U_
Width: 1205
VWidth: 0
Flags: W
AnchorPoint: "Anchor-3" 0 0 basechar 0
AnchorPoint: "Anchor-0" 0 0 basechar 0
LayerCount: 2
Back
Fore
SplineSet
595 137 m 257
NamedP: "hr00"
 602 160 605 186 605 213 c 256
 605 271 585 321 544 363 c 256
 518 390 488 408 455 418 c 257
 455 474 l 258
 455 481 458 486 463 490 c 256
 468 495 473 498 480 498 c 258
 638 498 l 257
 638 559 l 257
 455 559 l 258
 438 559 424 553 413 541 c 256
 401 529 395 515 395 498 c 258
 395 425 l 257
 284 425 l 257
 279 426 274 428 271 431 c 256
 268 436 266 440 266 444 c 258
 266 498 l 257
 205 498 l 257
 205 438 l 258
 205 423 211 405 223 385 c 257
 235 371 249 364 266 364 c 258
 398 364 l 258
 438 364 472 349 501 320 c 256
 530 290 544 254 544 213 c 256
 544 171 534 135 514 105 c 256
 494 76 470 61 441 61 c 256
 419 61 401 70 385 88 c 256
 370 105 361 126 361 151 c 258
 361 183 l 257
 301 183 l 257
 301 151 l 258
 301 126 293 105 276 88 c 256
 259 70 239 61 216 61 c 256
 193 61 173 69 156 84 c 256
 139 100 131 119 131 140 c 256
 131 162 137 181 149 196 c 256
 160 211 174 219 191 219 c 258
 253 219 l 257
 253 279 l 257
 10 279 l 257
 10 219 l 257
 101 219 l 257
 91 207 83 194 78 179 c 256
 73 165 70 150 70 134 c 256
 70 97 84 65 111 39 c 256
 139 12 172 0 210 0 c 256
 234 0 257 5 278 15 c 256
 298 24 314 38 325 55 c 257
 337 38 353 25 374 15 c 256
 394 6 416 0 441 0 c 256
 486 0 527 19 558 63 c 258
 565 73 l 257
 575 58 588 45 604 34 c 256
 635 11 672 0 714 0 c 256
 768 0 813 20 851 59 c 256
 889 99 909 145 909 200 c 256
 909 240 904 274 894 303 c 256
 885 332 871 352 854 364 c 257
 1018 364 l 258
 1042 364 1063 357 1080 343 c 256
 1097 328 1107 311 1109 291 c 257
 1096 300 1080 304 1060 304 c 256
 1032 304 1007 295 986 274 c 256
 965 253 956 229 956 200 c 256
 956 169 968 143 993 119 c 256
 1016 96 1045 85 1079 85 c 256
 1109 85 1135 99 1156 126 c 256
 1177 154 1188 187 1188 225 c 256
 1188 280 1171 327 1138 366 c 256
 1105 405 1065 425 1018 425 c 258
 701 425 l 257
 701 364 l 257
 744 364 l 258
 772 364 797 349 818 318 c 256
 838 287 848 249 848 206 c 256
 848 166 835 132 809 104 c 256
 782 75 751 61 714 61 c 256
 681 61 651 73 626 96 c 256
 613 109 603 122 595 137 c 257
NamedP: "hr00"
1101 160 m 256
 1091 151 1079 146 1066 146 c 256
 1053 146 1041 151 1031 160 c 256
 1022 169 1018 181 1018 194 c 256
 1018 207 1022 219 1031 229 c 257
 1041 238 1053 243 1066 243 c 256
 1079 243 1091 238 1101 229 c 257
 1110 219 1115 207 1115 194 c 256
 1115 181 1110 169 1101 160 c 256
EndSplineSet
Ligature2: "'psts' Post Base Substitutions in Telugu lookup 17 subtable" Ca UUMatra
EndChar

StartChar: Ccedilla
Encoding: 69 199 69
GlifName: C_cedilla
Width: 515
VWidth: 0
Flags: W
LayerCount: 2
Back
Fore
SplineSet
429 135 m 257
 482 81 l 257
 434 27 375 -2 305 -5 c 257
 293 -27 l 257
 326 -31 342 -49 342 -82 c 256
 342 -118 310 -148 266 -148 c 256
 244 -148 224 -144 207 -133 c 257
 225 -93 l 257
 234 -98 244 -100 253 -100 c 256
 271 -100 281 -88 281 -73 c 256
 281 -58 270 -44 253 -44 c 256
 245 -44 238 -46 232 -48 c 257
 255 -4 l 257
 127 13 36 112 36 251 c 256
 36 391 148 501 300 501 c 256
 375 501 438 473 489 417 c 257
 437 360 l 257
 390 405 354 420 298 420 c 256
 199 420 122 349 122 250 c 256
 122 151 200 75 291 75 c 256
 348 75 384 93 429 135 c 257
  PathStart: -2
EndSplineSet
EndChar

StartChar: Cha
Encoding: 70 3099 70
GlifName: C_ha
Width: 655
VWidth: 0
Flags: W
AnchorPoint: "Anchor-0" 0 0 basechar 0
LayerCount: 2
Back
Fore
SplineSet
455 474 m 258
NamedP: "hr00"
 455 481 458 486 463 490 c 256
 468 495 473 498 480 498 c 258
 638 498 l 257
 638 559 l 257
 455 559 l 258
 438 559 424 553 413 541 c 256
 401 529 395 515 395 498 c 258
 395 425 l 257
 284 425 l 257
 279 426 274 428 271 431 c 256
 268 436 266 440 266 444 c 258
 266 498 l 257
 205 498 l 257
 205 438 l 258
 205 423 211 405 223 385 c 257
 235 371 249 364 266 364 c 258
 398 364 l 258
 438 364 472 349 501 320 c 256
 530 290 544 254 544 213 c 256
 544 171 534 135 514 105 c 256
 494 76 470 61 441 61 c 256
 419 61 401 70 385 88 c 256
 370 105 361 126 361 151 c 258
 361 183 l 257
 301 183 l 257
 301 151 l 258
 301 126 293 105 276 88 c 256
 259 70 239 61 216 61 c 256
 193 61 173 69 156 84 c 256
 139 100 131 119 131 140 c 256
 131 162 137 181 149 196 c 256
 160 211 174 219 191 219 c 258
 253 219 l 257
 253 279 l 257
 10 279 l 257
 10 219 l 257
 101 219 l 257
 91 207 83 194 78 179 c 256
 73 165 70 150 70 134 c 256
 70 97 84 65 111 39 c 256
 139 12 172 0 210 0 c 256
 234 0 257 5 278 15 c 256
 298 24 314 38 325 55 c 257
 337 38 353 25 374 15 c 256
 394 6 416 0 441 0 c 256
 486 0 525 21 558 63 c 256
 589 104 605 154 605 213 c 256
 605 271 585 321 544 363 c 256
 518 390 488 408 455 417 c 257
 455 474 l 258
NamedP: "hr00"
361 -122 m 257
 361 0 l 257
 301 0 l 257
 301 -122 l 257
 361 -122 l 257
EndSplineSet
EndChar

StartChar: ChaAA
Encoding: 71 -1 71
GlifName: C_haA_A_
Width: 926
VWidth: 0
Flags: W
AnchorPoint: "Anchor-0" 0 0 basechar 0
LayerCount: 2
Back
Fore
SplineSet
739 365 m 258
NamedP: "hr00"
 764 365 785 358 804 344 c 256
 821 330 830 313 830 293 c 257
 816 301 800 305 781 305 c 256
 753 305 729 294 709 273 c 256
 689 251 679 225 679 195 c 256
 679 165 689 139 710 118 c 256
 732 97 758 86 788 86 c 256
 821 86 850 100 874 128 c 256
 897 155 909 188 909 226 c 256
 909 281 892 329 859 368 c 256
 826 407 786 426 739 426 c 258
 84 426 l 257
 84 365 l 257
 314 365 l 257
 398 364 l 258
 438 364 472 349 501 320 c 256
 530 290 544 254 544 213 c 256
 544 171 534 135 514 105 c 256
 494 76 470 61 441 61 c 256
 419 61 401 70 385 88 c 256
 370 105 361 126 361 151 c 258
 361 183 l 257
 301 183 l 257
 301 151 l 258
 301 126 293 105 276 88 c 256
 259 70 239 61 216 61 c 256
 193 61 173 69 156 84 c 256
 139 100 131 119 131 140 c 256
 131 162 137 181 149 196 c 256
 160 211 174 219 191 219 c 258
 253 219 l 257
 253 279 l 257
 10 279 l 257
 10 219 l 257
 101 219 l 257
 91 207 83 194 78 179 c 256
 73 165 70 150 70 134 c 256
 70 97 84 65 111 39 c 256
 139 12 172 0 210 0 c 256
 234 0 257 5 278 15 c 256
 298 24 314 38 325 55 c 257
 337 38 353 25 374 15 c 256
 394 6 416 0 441 0 c 256
 486 0 525 21 558 63 c 256
 589 104 605 154 605 213 c 256
 605 271 585 321 544 363 c 257
 541 365 l 257
 739 365 l 258
NamedP: "hr00"
361 -122 m 257
 361 0 l 257
 301 0 l 257
 301 -122 l 257
 361 -122 l 257
823 161 m 256
 813 152 801 148 788 148 c 256
 775 148 763 152 753 161 c 256
 744 170 739 182 739 195 c 256
 739 208 744 220 753 230 c 257
 763 239 775 244 788 244 c 256
 801 244 813 239 823 230 c 257
 832 220 836 208 836 195 c 256
 836 182 832 170 823 161 c 256
EndSplineSet
Ligature2: "'abvs' Above Base Substitutions in Telugu lookup 9 subtable" Cha AAMatra
EndChar

StartChar: ChaAU
Encoding: 72 -1 72
GlifName: C_haA_U_
Width: 926
VWidth: 0
Flags: W
AnchorPoint: "Anchor-0" 0 0 basechar 0
LayerCount: 2
Back
Fore
SplineSet
508 391 m 257
NamedP: "hr00"
 521 404 528 420 528 438 c 256
 528 442 527 446 524 450 c 256
 522 454 519 458 515 461 c 257
 728 461 l 258
 756 461 780 454 800 441 c 256
 820 429 830 414 830 395 c 257
 827 397 821 399 813 400 c 256
 804 401 794 401 781 401 c 256
 753 401 729 391 709 371 c 256
 689 350 679 326 679 298 c 256
 679 268 688 242 710 220 c 256
 732 198 758 189 788 189 c 256
 821 189 850 201 874 226 c 256
 897 251 909 281 909 316 c 256
 909 373 891 422 856 463 c 256
 821 503 778 523 728 523 c 258
 164 523 l 257
 164 461 l 257
 443 461 l 258
 448 461 452 459 456 456 c 256
 459 453 461 449 461 444 c 256
 461 439 459 434 454 430 c 256
 449 427 443 425 436 425 c 258
 228 425 l 257
 228 364 l 257
 391 364 l 258
 434 364 470 349 499 320 c 256
 529 290 544 254 544 213 c 256
 544 171 534 135 514 105 c 256
 494 76 470 61 441 61 c 256
 419 61 401 70 385 88 c 256
 370 105 361 126 361 151 c 258
 361 183 l 257
 301 183 l 257
 301 151 l 258
 301 126 293 105 276 88 c 256
 259 70 239 61 216 61 c 256
 193 61 173 69 156 84 c 256
 139 100 131 119 131 140 c 256
 131 162 137 181 149 196 c 256
 160 211 174 219 191 219 c 258
 253 219 l 257
 253 279 l 257
 10 279 l 257
 10 219 l 257
 101 219 l 257
 91 207 83 194 78 179 c 256
 73 165 70 150 70 134 c 256
 70 97 84 65 111 39 c 256
 139 12 172 0 210 0 c 256
 234 0 257 5 278 15 c 256
 298 24 314 38 325 55 c 257
 337 38 353 25 374 15 c 256
 394 6 416 0 441 0 c 256
 486 0 525 21 558 63 c 256
 589 104 605 154 605 213 c 256
 605 271 584 321 543 363 c 256
 532 374 520 383 508 391 c 257
NamedP: "hr00"
361 -122 m 257
 361 0 l 257
 301 0 l 257
 301 -122 l 257
 361 -122 l 257
823 259 m 256
 813 248 801 243 788 243 c 256
 775 243 763 248 753 259 c 256
 744 270 739 283 739 298 c 256
 739 311 744 323 753 333 c 257
 763 342 775 346 788 346 c 256
 801 346 813 342 823 333 c 257
 832 323 836 311 836 298 c 256
 836 283 832 270 823 259 c 256
EndSplineSet
Ligature2: "'abvs' Above Base Substitutions in Telugu lookup 16 subtable" Cha AuMatra
EndChar

StartChar: ChaE
Encoding: 73 -1 73
GlifName: C_haE_
Width: 622
VWidth: 0
Flags: W
AnchorPoint: "Anchor-1" 0 0 basechar 0
AnchorPoint: "Anchor-0" 0 0 basechar 0
LayerCount: 2
Back
Fore
SplineSet
521 382 m 257
NamedP: "hr00"
 526 385 530 389 534 394 c 256
 551 413 559 436 559 463 c 256
 559 490 551 512 534 531 c 256
 517 550 497 560 474 560 c 258
 83 560 l 257
 83 499 l 257
 461 499 l 258
 471 499 480 496 488 489 c 256
 495 482 498 473 498 463 c 256
 498 453 495 444 488 436 c 257
 480 429 471 426 461 426 c 258
 193 426 l 257
 193 365 l 257
 314 365 l 257
 317 364 321 364 325 364 c 258
 391 364 l 258
 434 364 470 349 499 320 c 256
 529 290 544 254 544 213 c 256
 544 171 534 135 514 105 c 256
 494 76 470 61 441 61 c 256
 419 61 401 70 385 88 c 256
 370 105 361 126 361 151 c 258
 361 183 l 257
 301 183 l 257
 301 151 l 258
 301 126 293 105 276 88 c 256
 259 70 239 61 216 61 c 256
 193 61 173 69 156 84 c 256
 139 100 131 119 131 140 c 256
 131 162 137 181 149 196 c 256
 160 211 174 219 191 219 c 258
 253 219 l 257
 253 279 l 257
 10 279 l 257
 10 219 l 257
 101 219 l 257
 91 207 83 194 78 179 c 256
 73 165 70 150 70 134 c 256
 70 97 84 65 111 39 c 256
 139 12 172 0 210 0 c 256
 234 0 257 5 278 15 c 256
 298 24 314 38 325 55 c 257
 337 38 353 25 374 15 c 256
 394 6 416 0 441 0 c 256
 486 0 525 21 558 63 c 256
 589 104 605 154 605 213 c 256
 605 271 584 321 543 363 c 256
 536 370 528 376 521 382 c 257
NamedP: "hr00"
361 -122 m 257
 361 0 l 257
 301 0 l 257
 301 -122 l 257
 361 -122 l 257
EndSplineSet
PairPos2: "'blwm' Below Base Mark in Telugu lookup 14 subtable" Titvam dx=0 dy=0 dh=18 dv=0 dx=-774 dy=-25 dh=0 dv=0
PairPos2: "'blwm' Below Base Mark in Telugu lookup 0 subtable" tvam dx=0 dy=0 dh=0 dv=0 dx=-830 dy=20 dh=0 dv=0
Ligature2: "'abvs' Above Base Substitutions in Telugu lookup 12 subtable" Cha uni0C46
EndChar

StartChar: ChaEE
Encoding: 74 -1 74
GlifName: C_haE_E_
Width: 622
VWidth: 0
Flags: W
AnchorPoint: "Anchor-0" 0 0 basechar 0
LayerCount: 2
Back
Fore
SplineSet
523 383 m 257
NamedP: "hr00"
 527 386 531 390 534 394 c 256
 551 413 559 436 559 463 c 256
 559 490 551 512 534 531 c 256
 517 550 497 560 474 560 c 257
 474 584 l 258
 474 591 476 596 481 601 c 256
 486 606 491 609 498 609 c 258
 546 609 l 257
 546 669 l 257
 474 669 l 258
 457 669 443 663 430 651 c 256
 419 640 413 626 413 609 c 258
 413 560 l 257
 83 560 l 257
 83 499 l 257
 461 499 l 258
 471 499 480 496 488 489 c 256
 495 482 498 473 498 463 c 256
 498 453 495 444 488 436 c 257
 480 429 471 426 461 426 c 258
 193 426 l 257
 193 365 l 257
 398 365 l 258
 438 365 472 349 501 320 c 256
 530 290 544 254 544 213 c 256
 544 171 534 135 514 105 c 256
 494 76 470 61 441 61 c 256
 419 61 401 70 385 88 c 256
 370 105 361 126 361 151 c 258
 361 183 l 257
 301 183 l 257
 301 151 l 258
 301 126 293 105 276 88 c 256
 259 70 239 61 216 61 c 256
 193 61 173 69 156 84 c 256
 139 100 131 119 131 140 c 256
 131 162 137 181 149 196 c 256
 160 211 174 219 191 219 c 258
 253 219 l 257
 253 279 l 257
 10 279 l 257
 10 219 l 257
 101 219 l 257
 91 207 83 194 78 179 c 256
 73 165 70 150 70 134 c 256
 70 97 84 65 111 39 c 256
 139 12 172 0 210 0 c 256
 234 0 257 5 278 15 c 256
 298 24 314 38 325 55 c 257
 337 38 353 25 374 15 c 256
 394 6 416 0 441 0 c 256
 486 0 525 21 558 63 c 256
 589 104 605 154 605 213 c 256
 605 271 587 323 544 363 c 258
 523 383 l 257
NamedP: "hr00"
361 -122 m 257
 361 0 l 257
 301 0 l 257
 301 -122 l 257
 361 -122 l 257
EndSplineSet
Ligature2: "'abvs' Above Base Substitutions in Telugu lookup 13 subtable" Cha EEMatra
EndChar

StartChar: ChaHalanth
Encoding: 75 -1 75
GlifName: C_haH_alanth
Width: 622
VWidth: 0
Flags: W
AnchorPoint: "Anchor-0" 0 0 basechar 0
LayerCount: 2
Back
Fore
SplineSet
333 425 m 258
NamedP: "hr00"
 324 425 317 428 311 434 c 256
 306 440 303 447 303 455 c 256
 303 464 306 471 313 478 c 257
 320 483 329 486 339 486 c 258
 470 486 l 257
 470 534 l 257
 326 534 l 258
 319 534 314 536 310 541 c 256
 305 546 303 552 303 559 c 256
 303 566 306 571 313 575 c 256
 320 580 329 583 339 583 c 258
 531 583 l 257
 531 644 l 257
 308 644 l 258
 289 644 274 636 261 621 c 256
 248 606 241 587 241 565 c 256
 241 554 243 544 248 534 c 256
 252 525 258 517 265 510 c 257
 258 503 252 495 248 485 c 256
 243 474 241 462 241 449 c 256
 241 426 250 406 268 389 c 256
 281 377 295 369 311 366 c 256
 315 365 320 364 325 364 c 258
 391 364 l 258
 434 364 470 349 499 320 c 256
 529 290 544 254 544 213 c 256
 544 171 534 135 514 105 c 256
 494 76 470 61 441 61 c 256
 419 61 401 70 385 88 c 256
 370 105 361 126 361 151 c 258
 361 183 l 257
 301 183 l 257
 301 151 l 258
 301 126 293 105 276 88 c 256
 259 70 239 61 216 61 c 256
 193 61 173 69 156 84 c 256
 139 100 131 119 131 140 c 256
 131 162 137 181 149 196 c 256
 160 211 174 219 191 219 c 258
 253 219 l 257
 253 279 l 257
 10 279 l 257
 10 219 l 257
 101 219 l 257
 91 207 83 194 78 179 c 256
 73 165 70 150 70 134 c 256
 70 97 84 65 111 39 c 256
 139 12 172 0 210 0 c 256
 234 0 257 5 278 15 c 256
 298 24 314 38 325 55 c 257
 337 38 353 25 374 15 c 256
 394 6 416 0 441 0 c 256
 486 0 525 21 558 63 c 256
 589 104 605 154 605 213 c 256
 605 271 585 321 543 363 c 256
 501 405 450 425 391 425 c 258
 333 425 l 258
NamedP: "hr00"
361 -122 m 257
 361 0 l 257
 301 0 l 257
 301 -122 l 257
 361 -122 l 257
EndSplineSet
Ligature2: "'haln' Halant Forms in Telugu lookup 19 subtable" Cha Halanth
EndChar

StartChar: ChaI
Encoding: 76 -1 76
GlifName: C_haI_
Width: 633
VWidth: 0
Flags: W
AnchorPoint: "Anchor-0" 0 0 basechar 0
LayerCount: 2
Back
Fore
SplineSet
374 -122 m 257
NamedP: "hr00"
 374 0 l 257
 314 0 l 257
 314 -122 l 257
 374 -122 l 257
NamedP: "hr00"
113 38 m 256
 142 13 176 0 216 0 c 256
 241 0 265 5 286 16 c 256
 308 27 325 42 338 61 c 257
 350 42 368 27 393 16 c 256
 416 5 442 0 471 0 c 256
 511 0 545 18 574 55 c 256
 602 92 616 136 616 189 c 256
 616 272 593 335 546 380 c 256
 499 426 434 449 350 449 c 258
 240 449 l 258
 203 449 172 441 145 423 c 256
 119 406 106 384 106 359 c 256
 106 336 116 318 135 303 c 256
 154 287 177 279 204 279 c 256
 231 279 254 286 273 299 c 256
 292 312 301 328 301 346 c 256
 301 363 297 377 289 389 c 257
 303 393 321 395 344 395 c 256
 408 395 460 377 499 340 c 256
 537 303 556 255 556 194 c 256
 556 157 547 126 530 100 c 256
 512 74 490 61 465 61 c 256
 440 61 418 68 400 84 c 256
 382 99 374 119 374 140 c 258
 374 183 l 257
 314 183 l 257
 314 151 l 258
 314 126 305 105 288 88 c 256
 269 70 248 61 223 61 c 256
 200 61 180 68 163 81 c 256
 146 94 138 109 138 128 c 256
 138 146 144 161 155 174 c 256
 167 187 181 194 198 194 c 258
 240 194 l 257
 240 255 l 257
 10 255 l 257
 10 194 l 257
 95 194 l 257
 87 187 81 177 76 165 c 256
 72 154 70 141 70 128 c 256
 70 93 84 63 113 38 c 256
225 336 m 257
 219 331 212 328 204 328 c 256
 194 328 185 331 178 336 c 257
 171 343 168 350 168 359 c 256
 168 367 171 374 178 380 c 256
 185 386 194 389 204 389 c 256
 212 389 219 386 225 380 c 256
 231 374 234 367 234 359 c 256
 234 350 231 343 225 336 c 257
EndSplineSet
Ligature2: "'abvs' Above Base Substitutions in Telugu lookup 10 subtable" Cha Imatra
EndChar

StartChar: ChaII
Encoding: 77 -1 77
GlifName: C_haI_I_
Width: 633
VWidth: 0
Flags: W
AnchorPoint: "Anchor-0" 0 0 basechar 0
LayerCount: 2
Back
Fore
SplineSet
374 -122 m 257
NamedP: "hr00"
 374 0 l 257
 314 0 l 257
 314 -122 l 257
 374 -122 l 257
NamedP: "hr00"
113 38 m 256
 142 13 176 0 216 0 c 256
 241 0 265 5 286 16 c 256
 308 27 325 42 338 61 c 257
 350 42 368 27 393 16 c 256
 416 5 442 0 471 0 c 256
 511 0 545 18 574 55 c 256
 602 92 616 136 616 189 c 256
 616 272 591 335 540 380 c 256
 489 426 418 449 325 449 c 256
 292 449 265 447 246 444 c 257
 242 451 240 459 240 468 c 256
 240 478 244 487 253 494 c 256
 261 501 271 504 283 504 c 256
 293 504 302 501 309 495 c 256
 316 489 319 482 319 474 c 257
 380 474 l 257
 380 499 371 521 350 539 c 256
 330 557 305 565 276 565 c 256
 249 565 227 556 209 539 c 256
 190 520 180 499 180 474 c 256
 180 461 182 449 186 438 c 257
 163 432 144 421 129 405 c 256
 114 389 106 372 106 353 c 256
 106 333 116 314 136 300 c 256
 157 285 182 279 210 279 c 256
 235 279 257 286 275 299 c 256
 292 312 301 328 301 346 c 256
 301 363 297 377 289 389 c 257
 303 393 321 395 344 395 c 256
 408 395 460 377 499 340 c 256
 537 303 556 255 556 194 c 256
 556 157 547 126 530 100 c 256
 512 74 490 61 465 61 c 256
 440 61 418 68 400 84 c 256
 382 99 374 119 374 140 c 258
 374 183 l 257
 314 183 l 257
 314 151 l 258
 314 126 305 105 288 88 c 256
 269 70 248 61 223 61 c 256
 200 61 180 68 163 81 c 256
 146 94 138 109 138 128 c 256
 138 146 144 161 155 174 c 256
 167 187 181 194 198 194 c 258
 240 194 l 257
 240 255 l 257
 10 255 l 257
 10 194 l 257
 95 194 l 257
 87 187 81 177 76 165 c 256
 72 154 70 141 70 128 c 256
 70 93 84 63 113 38 c 256
225 336 m 257
 219 331 212 328 204 328 c 256
 194 328 185 331 178 336 c 257
 171 343 168 350 168 359 c 256
 168 367 171 374 178 380 c 256
 185 386 194 389 204 389 c 256
 212 389 219 386 225 380 c 256
 231 374 234 367 234 359 c 256
 234 350 231 343 225 336 c 257
EndSplineSet
Ligature2: "'abvs' Above Base Substitutions in Telugu lookup 11 subtable" Cha IIMatra
EndChar

StartChar: ChaO
Encoding: 78 -1 78
GlifName: C_haO_
Width: 926
VWidth: 0
Flags: W
AnchorPoint: "Anchor-0" 0 0 basechar 0
LayerCount: 2
Back
Fore
SplineSet
236 425 m 258
NamedP: "hr00"
 228 425 221 428 214 433 c 256
 208 437 205 442 205 449 c 256
 205 459 213 468 230 475 c 256
 247 482 267 486 290 486 c 258
 435 486 l 258
 474 486 505 478 528 461 c 256
 551 444 563 422 563 395 c 258
 563 376 l 257
 624 376 l 257
 624 406 l 258
 624 423 631 438 646 450 c 256
 662 463 681 468 703 468 c 256
 740 468 771 460 798 443 c 256
 823 426 836 406 836 383 c 257
 829 388 820 393 811 396 c 256
 802 399 792 401 781 401 c 256
 753 401 729 390 709 369 c 256
 689 347 679 321 679 291 c 256
 679 261 690 235 713 214 c 256
 735 193 762 183 794 183 c 256
 825 183 852 197 875 226 c 256
 898 256 909 292 909 334 c 256
 909 388 889 434 849 471 c 256
 808 510 760 529 703 529 c 256
 676 529 652 525 631 516 c 256
 610 507 596 495 588 480 c 257
 573 501 552 517 525 529 c 256
 498 540 468 546 435 546 c 258
 290 546 l 258
 250 546 216 537 188 518 c 256
 159 499 145 476 145 449 c 256
 145 426 154 406 171 389 c 256
 190 371 211 364 236 364 c 258
 391 364 l 258
 434 364 470 349 499 320 c 256
 529 290 544 254 544 213 c 256
 544 171 534 135 514 105 c 256
 494 76 470 61 441 61 c 256
 419 61 401 70 385 88 c 256
 370 105 361 126 361 151 c 258
 361 183 l 257
 301 183 l 257
 301 151 l 258
 301 126 293 105 276 88 c 256
 259 70 239 61 216 61 c 256
 193 61 173 69 156 84 c 256
 139 100 131 119 131 140 c 256
 131 162 137 181 149 196 c 256
 160 211 174 219 191 219 c 258
 253 219 l 257
 253 279 l 257
 10 279 l 257
 10 219 l 257
 101 219 l 257
 91 207 83 194 78 179 c 256
 73 165 70 150 70 134 c 256
 70 97 84 65 111 39 c 256
 139 12 172 0 210 0 c 256
 234 0 257 5 278 15 c 256
 298 24 314 38 325 55 c 257
 337 38 353 25 374 15 c 256
 394 6 416 0 441 0 c 256
 486 0 525 21 558 63 c 256
 589 104 605 154 605 213 c 256
 605 271 585 321 543 363 c 256
 501 405 450 425 391 425 c 258
 236 425 l 258
NamedP: "hr00"
361 -122 m 257
 361 0 l 257
 301 0 l 257
 301 -122 l 257
 361 -122 l 257
823 253 m 256
 813 242 801 236 788 236 c 256
 775 236 763 242 753 253 c 256
 744 264 739 276 739 291 c 256
 739 304 744 316 753 326 c 257
 763 335 775 340 788 340 c 256
 801 340 813 335 823 326 c 257
 832 316 836 304 836 291 c 256
 836 276 832 264 823 253 c 256
EndSplineSet
Ligature2: "'abvs' Above Base Substitutions in Telugu lookup 14 subtable" Cha OMatra
EndChar

StartChar: ChaOO
Encoding: 79 -1 79
GlifName: C_haO_O_
Width: 926
VWidth: 0
Flags: W
AnchorPoint: "Anchor-0" 0 0 basechar 0
LayerCount: 2
Back
Fore
SplineSet
236 425 m 258
NamedP: "hr00"
 226 425 217 428 210 433 c 256
 203 437 200 442 200 449 c 256
 200 459 208 468 225 475 c 256
 242 482 262 486 285 486 c 258
 435 486 l 258
 474 486 505 479 528 465 c 256
 551 450 563 431 563 406 c 258
 563 376 l 257
 624 376 l 257
 624 406 l 258
 624 423 633 437 650 450 c 257
 669 462 690 468 715 468 c 256
 746 468 772 460 795 444 c 256
 818 427 832 407 836 383 c 257
 829 388 820 393 811 396 c 256
 802 399 792 401 781 401 c 256
 753 401 729 390 709 369 c 256
 689 347 679 321 679 291 c 256
 679 261 689 235 710 214 c 256
 732 193 758 183 788 183 c 256
 825 183 854 197 876 224 c 256
 898 251 909 288 909 334 c 256
 909 380 896 420 871 455 c 256
 846 490 814 513 775 523 c 257
 775 546 l 258
 775 556 779 565 786 573 c 257
 794 580 803 583 813 583 c 256
 823 583 832 580 839 575 c 256
 846 571 849 566 849 559 c 257
 909 559 l 257
 909 582 899 602 880 619 c 256
 862 636 840 644 813 644 c 256
 786 644 763 636 744 619 c 256
 725 602 715 582 715 559 c 258
 715 529 l 257
 684 529 658 525 635 516 c 256
 612 507 596 495 588 480 c 257
 573 501 552 517 525 529 c 256
 498 540 468 546 435 546 c 258
 285 546 l 258
 245 546 210 537 181 518 c 256
 153 499 139 476 139 449 c 256
 139 426 149 406 168 389 c 256
 187 372 209 364 236 364 c 258
 391 364 l 258
 434 364 470 349 499 320 c 256
 529 290 544 254 544 213 c 256
 544 171 534 135 514 105 c 256
 494 76 470 61 441 61 c 256
 419 61 401 70 385 88 c 256
 370 105 361 126 361 151 c 258
 361 183 l 257
 301 183 l 257
 301 151 l 258
 301 126 293 105 276 88 c 256
 259 70 239 61 216 61 c 256
 193 61 173 69 156 84 c 256
 139 100 131 119 131 140 c 256
 131 162 137 181 149 196 c 256
 160 211 174 219 191 219 c 258
 253 219 l 257
 253 279 l 257
 10 279 l 257
 10 219 l 257
 101 219 l 257
 91 207 83 194 78 179 c 256
 73 165 70 150 70 134 c 256
 70 97 84 65 111 39 c 256
 139 12 172 0 210 0 c 256
 234 0 257 5 278 15 c 256
 298 24 314 38 325 55 c 257
 337 38 353 25 374 15 c 256
 394 6 416 0 441 0 c 256
 486 0 525 21 558 63 c 256
 589 104 605 154 605 213 c 256
 605 271 585 321 543 363 c 256
 501 405 450 425 391 425 c 258
 236 425 l 258
NamedP: "hr00"
361 -122 m 257
 361 0 l 257
 301 0 l 257
 301 -122 l 257
 361 -122 l 257
823 253 m 256
 813 242 801 236 788 236 c 256
 775 236 763 242 753 253 c 256
 744 264 739 276 739 291 c 256
 739 304 744 316 753 326 c 257
 763 335 775 340 788 340 c 256
 801 340 813 335 823 326 c 257
 832 316 836 304 836 291 c 256
 836 276 832 264 823 253 c 256
EndSplineSet
Ligature2: "'abvs' Above Base Substitutions in Telugu lookup 15 subtable" Cha OOMatra
EndChar

StartChar: ChaOttu
Encoding: 80 -1 80
GlifName: C_haO_ttu
Width: 223
VWidth: 0
Flags: W
LayerCount: 2
Back
Fore
SplineSet
-39 -381 m 257
NamedP: "hr00"
 14 -381 l 257
 14 -303 l 257
 -39 -303 l 257
 -39 -379 l 257
 -39 -381 l 257
NamedP: "hr00"
-87 -296 m 256
 -70 -296 -54 -293 -40 -286 c 256
 -27 -279 -18 -271 -12 -261 c 257
 -9 -271 1 -279 17 -286 c 256
 34 -293 52 -296 73 -296 c 256
 107 -296 136 -280 161 -248 c 256
 184 -217 196 -180 196 -135 c 256
 196 -78 177 -30 141 12 c 256
 105 53 62 73 10 73 c 257
 10 21 l 257
 47 21 79 6 105 -25 c 256
 130 -56 143 -92 143 -135 c 256
 143 -164 136 -190 122 -211 c 256
 109 -232 92 -243 73 -243 c 256
 57 -243 43 -238 30 -229 c 256
 19 -220 14 -209 14 -196 c 258
 14 -182 l 257
 -39 -182 l 257
 -39 -196 l 258
 -39 -209 -43 -220 -52 -230 c 256
 -61 -239 -72 -243 -85 -243 c 256
 -98 -243 -109 -239 -119 -231 c 256
 -127 -223 -131 -213 -131 -202 c 256
 -131 -188 -124 -176 -111 -166 c 256
 -97 -155 -80 -149 -59 -149 c 257
 -59 -97 l 257
 -233 -97 l 257
 -233 -149 l 257
 -163 -149 l 257
 -169 -155 -174 -163 -178 -174 c 256
 -182 -185 -184 -196 -184 -209 c 256
 -184 -233 -174 -254 -154 -271 c 256
 -135 -288 -113 -296 -87 -296 c 256
EndSplineSet
Ligature2: "'blwf' Below Base Forms in Telugu lookup 2 subtable" Cha Halanth
EndChar

StartChar: ChaU
Encoding: 81 -1 81
GlifName: C_haU_
Width: 926
VWidth: 0
Flags: W
AnchorPoint: "Anchor-3" 0 0 basechar 0
AnchorPoint: "Anchor-0" 0 0 basechar 0
LayerCount: 2
Back
Fore
SplineSet
596 139 m 257
NamedP: "hr00"
 602 162 605 186 605 213 c 256
 605 271 585 321 544 363 c 256
 518 390 488 408 455 418 c 257
 455 474 l 258
 455 481 458 486 463 490 c 256
 468 495 473 498 480 498 c 258
 638 498 l 257
 638 559 l 257
 455 559 l 258
 438 559 424 553 413 541 c 256
 401 529 395 515 395 498 c 258
 395 425 l 257
 284 425 l 257
 279 426 274 428 271 431 c 256
 268 436 266 440 266 444 c 258
 266 498 l 257
 205 498 l 257
 205 438 l 258
 205 423 211 405 223 385 c 257
 235 371 249 364 266 364 c 258
 398 364 l 258
 438 364 472 349 501 320 c 256
 530 290 544 254 544 213 c 256
 544 171 534 135 514 105 c 256
 494 76 470 61 441 61 c 256
 419 61 401 70 385 88 c 256
 370 105 361 126 361 151 c 258
 361 183 l 257
 301 183 l 257
 301 151 l 258
 301 126 293 105 276 88 c 256
 259 70 239 61 216 61 c 256
 193 61 173 69 156 84 c 256
 139 100 131 119 131 140 c 256
 131 162 137 181 149 196 c 256
 160 211 174 219 191 219 c 258
 253 219 l 257
 253 279 l 257
 10 279 l 257
 10 219 l 257
 101 219 l 257
 91 207 83 194 78 179 c 256
 73 165 70 150 70 134 c 256
 70 97 84 65 111 39 c 256
 139 12 172 0 210 0 c 256
 234 0 257 5 278 15 c 256
 298 24 314 38 325 55 c 257
 337 38 353 25 374 15 c 256
 394 6 416 0 441 0 c 256
 486 0 527 20 558 63 c 258
 568 77 l 257
 579 60 594 44 613 31 c 256
 644 10 677 0 714 0 c 256
 768 0 813 22 851 63 c 256
 889 105 909 154 909 213 c 256
 909 271 893 321 858 363 c 256
 824 404 781 425 733 425 c 258
 715 425 l 257
 715 364 l 257
 739 364 l 258
 769 364 795 349 816 320 c 256
 837 290 848 254 848 213 c 256
 848 171 836 135 809 105 c 256
 783 76 751 61 714 61 c 256
 681 61 653 73 628 96 c 256
 615 109 604 123 596 139 c 257
NamedP: "hr00"
361 -122 m 257
 361 0 l 257
 301 0 l 257
 301 -122 l 257
 361 -122 l 257
EndSplineSet
Ligature2: "'psts' Post Base Substitutions in Telugu lookup 17 subtable" Cha UMatra
EndChar

StartChar: ChaUU
Encoding: 82 -1 82
GlifName: C_haU_U_
Width: 1205
VWidth: 0
Flags: W
AnchorPoint: "Anchor-3" 0 0 basechar 0
AnchorPoint: "Anchor-0" 0 0 basechar 0
LayerCount: 2
Back
Fore
SplineSet
595 137 m 257
NamedP: "hr00"
 602 160 605 186 605 213 c 256
 605 271 585 321 544 363 c 256
 518 390 488 408 455 418 c 257
 455 474 l 258
 455 481 458 486 463 490 c 256
 468 495 473 498 480 498 c 258
 638 498 l 257
 638 559 l 257
 455 559 l 258
 438 559 424 553 413 541 c 256
 401 529 395 515 395 498 c 258
 395 425 l 257
 284 425 l 257
 279 426 274 428 271 431 c 256
 268 436 266 440 266 444 c 258
 266 498 l 257
 205 498 l 257
 205 438 l 258
 205 423 211 405 223 385 c 257
 235 371 249 364 266 364 c 258
 398 364 l 258
 438 364 472 349 501 320 c 256
 530 290 544 254 544 213 c 256
 544 171 534 135 514 105 c 256
 494 76 470 61 441 61 c 256
 419 61 401 70 385 88 c 256
 370 105 361 126 361 151 c 258
 361 183 l 257
 301 183 l 257
 301 151 l 258
 301 126 293 105 276 88 c 256
 259 70 239 61 216 61 c 256
 193 61 173 69 156 84 c 256
 139 100 131 119 131 140 c 256
 131 162 137 181 149 196 c 256
 160 211 174 219 191 219 c 258
 253 219 l 257
 253 279 l 257
 10 279 l 257
 10 219 l 257
 101 219 l 257
 91 207 83 194 78 179 c 256
 73 165 70 150 70 134 c 256
 70 97 84 65 111 39 c 256
 139 12 172 0 210 0 c 256
 234 0 257 5 278 15 c 256
 298 24 314 38 325 55 c 257
 337 38 353 25 374 15 c 256
 394 6 416 0 441 0 c 256
 486 0 527 19 558 63 c 258
 565 73 l 257
 575 58 588 45 604 34 c 256
 635 11 672 0 714 0 c 256
 768 0 813 20 851 59 c 256
 889 99 909 145 909 200 c 256
 909 240 904 274 894 303 c 256
 885 332 871 352 854 364 c 257
 1018 364 l 258
 1042 364 1063 357 1080 343 c 256
 1097 328 1107 311 1109 291 c 257
 1096 300 1080 304 1060 304 c 256
 1032 304 1007 295 986 274 c 256
 965 253 956 229 956 200 c 256
 956 169 968 143 993 119 c 256
 1016 96 1045 85 1079 85 c 256
 1109 85 1135 99 1156 126 c 256
 1177 154 1188 187 1188 225 c 256
 1188 280 1171 327 1138 366 c 256
 1105 405 1065 425 1018 425 c 258
 701 425 l 257
 701 364 l 257
 744 364 l 258
 772 364 797 349 818 318 c 256
 838 287 848 249 848 206 c 256
 848 166 835 132 809 104 c 256
 782 75 751 61 714 61 c 256
 681 61 651 73 626 96 c 256
 613 109 603 122 595 137 c 257
NamedP: "hr00"
361 -122 m 257
 361 0 l 257
 301 0 l 257
 301 -122 l 257
 361 -122 l 257
1101 160 m 256
 1091 151 1079 146 1066 146 c 256
 1053 146 1041 151 1031 160 c 256
 1022 169 1018 181 1018 194 c 256
 1018 207 1022 219 1031 229 c 257
 1041 238 1053 243 1066 243 c 256
 1079 243 1091 238 1101 229 c 257
 1110 219 1115 207 1115 194 c 256
 1115 181 1110 169 1101 160 c 256
EndSplineSet
Ligature2: "'psts' Post Base Substitutions in Telugu lookup 17 subtable" Cha UUMatra
EndChar

StartChar: D
Encoding: 83 68 83
GlifName: D_
Width: 547
VWidth: 0
Flags: W
LayerCount: 2
Back
Fore
SplineSet
236 489 m 258
 412 489 509 399 509 247 c 256
 509 95 419 0 230 0 c 258
 68 0 l 257
 68 489 l 257
 236 489 l 258
233 413 m 258
 151 413 l 257
 151 78 l 257
 242 78 l 258
 361 78 426 135 426 245 c 256
 426 357 361 413 233 413 c 258
  PathStart: -2
EndSplineSet
EndChar

StartChar: DDa
Encoding: 84 3105 84
GlifName: D_D_a
Width: 635
VWidth: 0
Flags: W
AnchorPoint: "Anchor-0" 0 0 basechar 0
LayerCount: 2
Back
Fore
SplineSet
435 474 m 258
NamedP: "hr00"
 435 481 438 486 443 490 c 256
 448 495 453 498 460 498 c 258
 618 498 l 257
 618 559 l 257
 435 559 l 258
 418 559 404 553 393 541 c 256
 381 529 375 515 375 498 c 258
 375 425 l 257
 264 425 l 257
 259 426 254 428 251 431 c 256
 248 436 246 440 246 444 c 258
 246 498 l 257
 185 498 l 257
 185 438 l 258
 185 431 186 424 189 417 c 257
 154 407 122 387 94 358 c 256
 51 313 30 258 30 194 c 256
 30 141 46 95 79 56 c 256
 110 19 149 0 195 0 c 256
 221 0 245 6 266 15 c 256
 288 25 306 38 319 55 c 257
 329 38 345 25 368 15 c 256
 391 5 418 0 448 0 c 256
 489 0 524 13 553 39 c 256
 582 66 596 97 596 134 c 256
 596 164 585 190 563 211 c 256
 540 232 513 243 480 243 c 256
 452 243 427 235 406 218 c 256
 386 201 376 181 376 158 c 257
 441 158 l 257
 441 165 445 170 453 175 c 256
 460 180 469 183 480 183 c 256
 495 183 508 178 518 169 c 256
 529 159 534 147 534 134 c 256
 534 114 526 97 509 83 c 256
 492 68 472 61 448 61 c 256
 420 61 397 69 378 86 c 256
 359 103 349 123 349 146 c 258
 349 183 l 257
 289 183 l 257
 289 140 l 258
 289 119 280 100 261 84 c 256
 243 69 221 61 195 61 c 256
 167 61 142 74 121 100 c 256
 101 126 91 157 91 194 c 256
 91 241 107 281 138 314 c 256
 168 347 205 364 248 364 c 258
 530 364 l 257
 530 425 l 257
 435 425 l 257
 435 474 l 258
NamedP: "hr00"
EndSplineSet
EndChar

StartChar: DDaAA
Encoding: 85 -1 85
GlifName: D_D_aA_A_
Width: 906
VWidth: 0
Flags: W
AnchorPoint: "Anchor-0" 0 0 basechar 0
LayerCount: 2
Back
Fore
SplineSet
719 365 m 258
NamedP: "hr00"
 744 365 765 358 784 344 c 256
 801 330 810 313 810 293 c 257
 796 301 780 305 761 305 c 256
 733 305 709 294 689 273 c 256
 669 251 659 225 659 195 c 256
 659 165 669 139 690 118 c 256
 712 97 738 86 768 86 c 256
 801 86 830 100 854 128 c 256
 877 155 889 188 889 226 c 256
 889 281 872 329 839 368 c 256
 806 407 766 426 719 426 c 258
 64 426 l 257
 64 365 l 257
 101 365 l 257
 94 358 l 258
 50 314 30 258 30 194 c 256
 30 141 46 95 79 56 c 256
 110 19 149 0 195 0 c 256
 221 0 245 6 266 15 c 256
 288 25 306 38 319 55 c 257
 329 38 345 25 368 15 c 256
 391 5 418 0 448 0 c 256
 489 0 524 13 553 39 c 256
 582 66 596 97 596 134 c 256
 596 164 585 190 563 211 c 256
 540 232 513 243 480 243 c 256
 452 243 427 235 406 218 c 256
 386 201 376 181 376 158 c 257
 441 158 l 257
 441 165 445 170 453 175 c 256
 460 180 469 183 480 183 c 256
 495 183 508 178 518 169 c 256
 529 159 534 147 534 134 c 256
 534 114 526 97 509 83 c 256
 492 68 472 61 448 61 c 256
 420 61 397 69 378 86 c 256
 359 103 349 123 349 146 c 258
 349 183 l 257
 289 183 l 257
 289 140 l 258
 289 119 280 100 261 84 c 256
 243 69 221 61 195 61 c 256
 167 61 142 74 121 100 c 256
 101 126 91 157 91 194 c 256
 91 241 107 281 138 314 c 256
 168 347 205 364 248 364 c 258
 530 364 l 257
 530 365 l 257
 719 365 l 258
NamedP: "hr00"
803 161 m 256
 793 152 781 148 768 148 c 256
 755 148 743 152 733 161 c 256
 724 170 719 182 719 195 c 256
 719 208 724 220 733 230 c 257
 743 239 755 244 768 244 c 256
 781 244 793 239 803 230 c 257
 812 220 816 208 816 195 c 256
 816 182 812 170 803 161 c 256
EndSplineSet
Ligature2: "'abvs' Above Base Substitutions in Telugu lookup 9 subtable" DDa AAMatra
EndChar

StartChar: DDaAU
Encoding: 86 -1 86
GlifName: D_D_aA_U_
Width: 906
VWidth: 0
Flags: W
AnchorPoint: "Anchor-0" 0 0 basechar 0
LayerCount: 2
Back
Fore
SplineSet
530 364 m 257
NamedP: "hr00"
 530 425 l 257
 506 425 l 257
 507 429 508 433 508 438 c 256
 508 442 507 446 504 450 c 256
 502 454 499 458 495 461 c 257
 708 461 l 258
 736 461 760 454 780 441 c 256
 800 429 810 414 810 395 c 257
 807 397 801 399 793 400 c 256
 784 401 774 401 761 401 c 256
 733 401 709 391 689 371 c 256
 669 350 659 326 659 298 c 256
 659 268 668 242 690 220 c 256
 712 198 738 189 768 189 c 256
 801 189 830 201 854 226 c 256
 877 251 889 281 889 316 c 256
 889 373 871 422 836 463 c 256
 801 503 758 523 708 523 c 258
 144 523 l 257
 144 461 l 257
 423 461 l 258
 428 461 432 459 436 456 c 256
 439 453 441 449 441 444 c 256
 441 439 439 434 434 430 c 256
 429 427 423 425 417 425 c 258
 208 425 l 257
 208 421 l 257
 165 413 127 392 94 358 c 256
 51 313 30 258 30 194 c 256
 30 141 46 95 79 56 c 256
 110 19 149 0 195 0 c 256
 221 0 245 6 266 15 c 256
 288 25 306 38 319 55 c 257
 329 38 345 25 368 15 c 256
 391 5 418 0 448 0 c 256
 489 0 524 13 553 39 c 256
 582 66 596 97 596 134 c 256
 596 164 585 190 563 211 c 256
 540 232 513 243 480 243 c 256
 452 243 427 235 406 218 c 256
 386 201 376 181 376 158 c 257
 441 158 l 257
 441 165 445 170 453 175 c 256
 460 180 469 183 480 183 c 256
 495 183 508 178 518 169 c 256
 529 159 534 147 534 134 c 256
 534 114 526 97 509 83 c 256
 492 68 472 61 448 61 c 256
 420 61 397 69 378 86 c 256
 359 103 349 123 349 146 c 258
 349 183 l 257
 289 183 l 257
 289 140 l 258
 289 119 280 100 261 84 c 256
 243 69 221 61 195 61 c 256
 167 61 142 74 121 100 c 256
 101 126 91 157 91 194 c 256
 91 241 107 281 138 314 c 256
 168 347 205 364 248 364 c 258
 530 364 l 257
NamedP: "hr00"
803 259 m 256
 793 248 781 243 768 243 c 256
 755 243 743 248 733 259 c 256
 724 270 719 283 719 298 c 256
 719 311 724 323 733 333 c 257
 743 342 755 346 768 346 c 256
 781 346 793 342 803 333 c 257
 812 323 816 311 816 298 c 256
 816 283 812 270 803 259 c 256
EndSplineSet
Ligature2: "'abvs' Above Base Substitutions in Telugu lookup 16 subtable" DDa AuMatra
EndChar

StartChar: DDaE
Encoding: 87 -1 87
GlifName: D_D_aE_
Width: 613
VWidth: 0
Flags: W
AnchorPoint: "Anchor-1" 0 0 basechar 0
AnchorPoint: "Anchor-0" 0 0 basechar 0
LayerCount: 2
Back
Fore
SplineSet
530 419 m 257
NamedP: "hr00"
 536 432 539 447 539 463 c 256
 539 490 531 512 514 531 c 256
 497 550 477 560 454 560 c 258
 63 560 l 257
 63 499 l 257
 441 499 l 258
 451 499 460 496 468 489 c 256
 475 482 478 473 478 463 c 256
 478 453 475 444 468 436 c 257
 460 429 451 426 441 426 c 258
 173 426 l 257
 173 412 l 257
 144 401 117 383 94 358 c 256
 51 313 30 258 30 194 c 256
 30 141 46 95 79 56 c 256
 110 19 149 0 195 0 c 256
 221 0 245 6 266 15 c 256
 288 25 306 38 319 55 c 257
 329 38 345 25 368 15 c 256
 391 5 418 0 448 0 c 256
 489 0 524 13 553 39 c 256
 582 66 596 97 596 134 c 256
 596 164 585 190 563 211 c 256
 540 232 513 243 480 243 c 256
 452 243 427 235 406 218 c 256
 386 201 376 181 376 158 c 257
 441 158 l 257
 441 165 445 170 453 175 c 256
 460 180 469 183 480 183 c 256
 495 183 508 178 518 169 c 256
 529 159 534 147 534 134 c 256
 534 114 526 97 509 83 c 256
 492 68 472 61 448 61 c 256
 420 61 397 69 378 86 c 256
 359 103 349 123 349 146 c 258
 349 183 l 257
 289 183 l 257
 289 140 l 258
 289 119 280 100 261 84 c 256
 243 69 221 61 195 61 c 256
 167 61 142 74 121 100 c 256
 101 126 91 157 91 194 c 256
 91 241 107 281 138 314 c 256
 168 347 205 364 248 364 c 258
 530 364 l 257
 530 419 l 257
NamedP: "hr00"
EndSplineSet
PairPos2: "'blwm' Below Base Mark in Telugu lookup 14 subtable" Titvam dx=0 dy=0 dh=18 dv=0 dx=-774 dy=-25 dh=0 dv=0
PairPos2: "'blwm' Below Base Mark in Telugu lookup 0 subtable" tvam dx=0 dy=0 dh=0 dv=0 dx=-830 dy=20 dh=0 dv=0
Ligature2: "'abvs' Above Base Substitutions in Telugu lookup 12 subtable" DDa uni0C46
EndChar

StartChar: DDaEE
Encoding: 88 -1 88
GlifName: D_D_aE_E_
Width: 613
VWidth: 0
Flags: W
AnchorPoint: "Anchor-0" 0 0 basechar 0
LayerCount: 2
Back
Fore
SplineSet
530 419 m 257
NamedP: "hr00"
 536 432 539 447 539 463 c 256
 539 490 531 512 514 531 c 256
 497 550 477 560 454 560 c 257
 454 584 l 258
 454 591 456 596 461 601 c 256
 466 606 471 609 478 609 c 258
 526 609 l 257
 526 669 l 257
 454 669 l 258
 437 669 423 663 410 651 c 256
 399 640 393 626 393 609 c 258
 393 560 l 257
 63 560 l 257
 63 499 l 257
 441 499 l 258
 451 499 460 496 468 489 c 256
 475 482 478 473 478 463 c 256
 478 453 475 444 468 436 c 257
 460 429 451 426 441 426 c 258
 173 426 l 257
 173 412 l 257
 144 401 117 383 94 358 c 256
 51 313 30 258 30 194 c 256
 30 141 46 95 79 56 c 256
 110 19 149 0 195 0 c 256
 221 0 245 6 266 15 c 256
 288 25 306 38 319 55 c 257
 329 38 345 25 368 15 c 256
 391 5 418 0 448 0 c 256
 489 0 524 13 553 39 c 256
 582 66 596 97 596 134 c 256
 596 164 585 190 563 211 c 256
 540 232 513 243 480 243 c 256
 452 243 427 235 406 218 c 256
 386 201 376 181 376 158 c 257
 441 158 l 257
 441 165 445 170 453 175 c 256
 460 180 469 183 480 183 c 256
 495 183 508 178 518 169 c 256
 529 159 534 147 534 134 c 256
 534 114 526 97 509 83 c 256
 492 68 472 61 448 61 c 256
 420 61 397 69 378 86 c 256
 359 103 349 123 349 146 c 258
 349 183 l 257
 289 183 l 257
 289 140 l 258
 289 119 280 100 261 84 c 256
 243 69 221 61 195 61 c 256
 167 61 142 74 121 100 c 256
 101 126 91 157 91 194 c 256
 91 241 107 281 138 314 c 256
 168 347 205 364 248 364 c 258
 530 364 l 257
 530 419 l 257
NamedP: "hr00"
EndSplineSet
Ligature2: "'abvs' Above Base Substitutions in Telugu lookup 13 subtable" DDa EEMatra
EndChar

StartChar: DDaHalanth
Encoding: 89 -1 89
GlifName: D_D_aH_alanth
Width: 613
VWidth: 0
Flags: W
AnchorPoint: "Anchor-0" 0 0 basechar 0
LayerCount: 2
Back
Fore
SplineSet
253 425 m 258
NamedP: "hr00"
 248 425 243 427 240 430 c 256
 237 434 235 439 235 444 c 256
 235 452 238 459 244 465 c 256
 250 471 257 474 265 474 c 258
 465 474 l 257
 465 534 l 257
 265 534 l 258
 257 534 250 536 244 541 c 256
 238 546 235 552 235 559 c 256
 235 566 238 571 244 575 c 256
 250 580 257 583 265 583 c 258
 550 583 l 257
 550 644 l 257
 240 644 l 258
 222 644 207 637 194 623 c 256
 181 608 174 591 174 571 c 256
 174 560 177 550 184 539 c 256
 190 528 199 519 210 510 c 257
 199 503 190 493 184 481 c 257
 177 470 174 457 174 444 c 256
 174 433 176 423 180 414 c 257
 148 403 119 385 94 358 c 256
 51 313 30 258 30 194 c 256
 30 141 46 95 79 56 c 256
 110 19 149 0 195 0 c 256
 221 0 245 6 266 15 c 256
 288 25 306 38 319 55 c 257
 329 38 345 25 368 15 c 256
 391 5 418 0 448 0 c 256
 489 0 524 13 553 39 c 256
 582 66 596 97 596 134 c 256
 596 164 585 190 563 211 c 256
 540 232 513 243 480 243 c 256
 452 243 427 235 406 218 c 256
 386 201 376 181 376 158 c 257
 441 158 l 257
 441 165 445 170 453 175 c 256
 460 180 469 183 480 183 c 256
 495 183 508 178 518 169 c 256
 529 159 534 147 534 134 c 256
 534 114 526 97 509 83 c 256
 492 68 472 61 448 61 c 256
 420 61 397 69 378 86 c 256
 359 103 349 123 349 146 c 258
 349 183 l 257
 289 183 l 257
 289 140 l 258
 289 119 280 100 261 84 c 256
 243 69 221 61 195 61 c 256
 167 61 142 74 121 100 c 256
 101 126 91 157 91 194 c 256
 91 241 107 281 138 314 c 256
 168 347 205 364 248 364 c 258
 530 364 l 257
 530 425 l 257
 253 425 l 258
NamedP: "hr00"
EndSplineSet
Ligature2: "'haln' Halant Forms in Telugu lookup 19 subtable" DDa Halanth
EndChar

StartChar: DDaI
Encoding: 90 -1 90
GlifName: D_D_aI_
Width: 613
VWidth: 0
Flags: W
AnchorPoint: "Anchor-0" 0 0 basechar 0
LayerCount: 2
Back
Fore
SplineSet
444 425 m 257
NamedP: "hr00"
 461 447 470 472 470 499 c 256
 470 536 455 567 424 594 c 256
 393 620 356 633 313 633 c 256
 280 633 251 624 226 606 c 256
 203 588 191 566 191 541 c 256
 191 520 200 501 218 485 c 256
 236 470 258 463 283 463 c 256
 311 463 335 471 355 488 c 256
 375 505 385 525 385 548 c 257
 392 543 399 537 404 528 c 256
 408 519 410 510 410 499 c 256
 410 479 400 462 381 448 c 256
 362 433 340 426 313 426 c 258
 253 426 l 257
 253 425 l 257
 248 425 l 258
 188 425 137 403 94 358 c 256
 51 313 30 258 30 194 c 256
 30 141 46 95 79 56 c 256
 110 19 149 0 195 0 c 256
 221 0 245 6 266 15 c 256
 288 25 306 38 319 55 c 257
 329 38 345 25 368 15 c 256
 391 5 418 0 448 0 c 256
 489 0 524 13 553 39 c 256
 582 66 596 97 596 134 c 256
 596 164 585 190 563 211 c 256
 540 232 513 243 480 243 c 256
 452 243 427 235 406 218 c 256
 386 201 376 181 376 158 c 257
 441 158 l 257
 441 165 445 170 453 175 c 256
 460 180 469 183 480 183 c 256
 495 183 508 178 518 169 c 256
 529 159 534 147 534 134 c 256
 534 114 526 97 509 83 c 256
 492 68 472 61 448 61 c 256
 420 61 397 69 378 86 c 256
 359 103 349 123 349 146 c 258
 349 183 l 257
 289 183 l 257
 289 140 l 258
 289 119 280 100 261 84 c 256
 243 69 221 61 195 61 c 256
 167 61 142 74 121 100 c 256
 101 126 91 157 91 194 c 256
 91 241 107 281 138 314 c 256
 168 347 205 364 248 364 c 258
 530 364 l 257
 530 425 l 257
 444 425 l 257
NamedP: "hr00"
318 520 m 256
 310 514 300 511 289 511 c 256
 279 511 270 514 263 520 c 256
 256 526 253 533 253 541 c 256
 253 550 256 557 263 564 c 256
 270 570 279 573 289 573 c 256
 300 573 310 570 318 564 c 256
 326 557 330 550 330 541 c 256
 330 533 326 526 318 520 c 256
EndSplineSet
Ligature2: "'abvs' Above Base Substitutions in Telugu lookup 10 subtable" DDa Imatra
EndChar

StartChar: DDaII
Encoding: 91 -1 91
GlifName: D_D_aI_I_
Width: 613
VWidth: 0
Flags: W
AnchorPoint: "Anchor-0" 0 0 basechar 0
LayerCount: 2
Back
Fore
SplineSet
439 425 m 257
NamedP: "hr00"
 456 447 464 472 464 499 c 256
 464 536 450 567 421 594 c 256
 393 620 359 633 319 633 c 257
 315 640 313 649 313 658 c 256
 313 666 316 673 323 679 c 256
 330 685 339 688 349 688 c 256
 360 688 370 685 379 679 c 256
 387 673 391 666 391 658 c 257
 453 658 l 257
 453 683 443 704 423 721 c 256
 402 739 377 748 349 748 c 256
 322 748 299 739 280 721 c 256
 261 704 251 683 251 658 c 256
 251 649 253 638 258 626 c 257
 237 623 219 613 205 596 c 256
 192 581 185 562 185 541 c 256
 185 520 195 501 214 485 c 256
 233 470 256 463 283 463 c 256
 310 463 332 471 350 488 c 256
 369 505 379 525 379 548 c 257
 386 543 393 537 398 528 c 256
 402 519 404 510 404 499 c 256
 404 479 395 462 378 448 c 256
 359 433 338 426 313 426 c 258
 246 426 l 257
 246 425 l 257
 187 425 136 403 94 358 c 256
 51 313 30 258 30 194 c 256
 30 141 46 95 79 56 c 256
 110 19 149 0 195 0 c 256
 221 0 245 6 266 15 c 256
 288 25 306 38 319 55 c 257
 329 38 345 25 368 15 c 256
 391 5 418 0 448 0 c 256
 489 0 524 13 553 39 c 256
 582 66 596 97 596 134 c 256
 596 164 585 190 563 211 c 256
 540 232 513 243 480 243 c 256
 452 243 427 235 406 218 c 256
 386 201 376 181 376 158 c 257
 441 158 l 257
 441 165 445 170 453 175 c 256
 460 180 469 183 480 183 c 256
 495 183 508 178 518 169 c 256
 529 159 534 147 534 134 c 256
 534 114 526 97 509 83 c 256
 492 68 472 61 448 61 c 256
 420 61 397 69 378 86 c 256
 359 103 349 123 349 146 c 258
 349 183 l 257
 289 183 l 257
 289 140 l 258
 289 119 280 100 261 84 c 256
 243 69 221 61 195 61 c 256
 167 61 142 74 121 100 c 256
 101 126 91 157 91 194 c 256
 91 241 107 281 138 314 c 256
 168 347 205 364 248 364 c 258
 530 364 l 257
 530 425 l 257
 439 425 l 257
NamedP: "hr00"
311 520 m 256
 304 514 294 511 283 511 c 256
 273 511 264 514 256 520 c 256
 249 526 246 533 246 541 c 256
 246 550 249 557 256 564 c 257
 264 570 273 573 283 573 c 256
 294 573 304 570 311 564 c 256
 320 557 324 550 324 541 c 256
 324 533 320 526 311 520 c 256
EndSplineSet
Ligature2: "'abvs' Above Base Substitutions in Telugu lookup 11 subtable" DDa IIMatra
EndChar

StartChar: DDaO
Encoding: 92 -1 92
GlifName: D_D_aO_
Width: 906
VWidth: 0
Flags: W
AnchorPoint: "Anchor-0" 0 0 basechar 0
LayerCount: 2
Back
Fore
SplineSet
518 364 m 257
NamedP: "hr00"
 518 425 l 257
 216 425 l 258
 208 425 201 428 194 433 c 256
 188 437 185 442 185 449 c 256
 185 459 193 468 210 475 c 256
 227 482 247 486 270 486 c 258
 415 486 l 258
 454 486 485 478 508 461 c 256
 531 444 543 422 543 395 c 258
 543 376 l 257
 604 376 l 257
 604 406 l 258
 604 423 611 438 626 450 c 256
 642 463 661 468 683 468 c 256
 720 468 751 460 778 443 c 256
 803 426 816 406 816 383 c 257
 809 388 800 393 791 396 c 256
 782 399 772 401 761 401 c 256
 733 401 709 390 689 369 c 256
 669 347 659 321 659 291 c 256
 659 261 670 235 693 214 c 256
 715 193 742 183 774 183 c 256
 805 183 832 197 855 226 c 256
 878 256 889 292 889 334 c 256
 889 388 869 434 829 471 c 256
 788 510 740 529 683 529 c 256
 656 529 632 525 611 516 c 256
 590 507 576 495 568 480 c 257
 553 501 532 517 505 529 c 256
 478 540 448 546 415 546 c 258
 270 546 l 258
 230 546 196 537 168 518 c 256
 139 499 125 476 125 449 c 256
 125 430 131 412 143 397 c 257
 126 387 109 374 94 358 c 256
 51 313 30 258 30 194 c 256
 30 141 46 95 79 56 c 256
 110 19 149 0 195 0 c 256
 221 0 245 6 266 15 c 256
 288 25 306 38 319 55 c 257
 329 38 345 25 368 15 c 256
 391 5 418 0 448 0 c 256
 489 0 524 13 553 39 c 256
 582 66 596 97 596 134 c 256
 596 164 585 190 563 211 c 256
 540 232 513 243 480 243 c 256
 452 243 427 235 406 218 c 256
 386 201 376 181 376 158 c 257
 441 158 l 257
 441 165 445 170 453 175 c 256
 460 180 469 183 480 183 c 256
 495 183 508 178 518 169 c 256
 529 159 534 147 534 134 c 256
 534 114 526 97 509 83 c 256
 492 68 472 61 448 61 c 256
 420 61 397 69 378 86 c 256
 359 103 349 123 349 146 c 258
 349 183 l 257
 289 183 l 257
 289 140 l 258
 289 119 280 100 261 84 c 256
 243 69 221 61 195 61 c 256
 167 61 142 74 121 100 c 256
 101 126 91 157 91 194 c 256
 91 241 107 281 138 314 c 256
 168 347 205 364 248 364 c 258
 518 364 l 257
NamedP: "hr00"
803 253 m 256
 793 242 781 236 768 236 c 256
 755 236 743 242 733 253 c 256
 724 264 719 276 719 291 c 256
 719 304 724 316 733 326 c 257
 743 335 755 340 768 340 c 256
 781 340 793 335 803 326 c 257
 812 316 816 304 816 291 c 256
 816 276 812 264 803 253 c 256
EndSplineSet
Ligature2: "'abvs' Above Base Substitutions in Telugu lookup 14 subtable" DDa OMatra
EndChar

StartChar: DDaOO
Encoding: 93 -1 93
GlifName: D_D_aO_O_
Width: 906
VWidth: 0
Flags: W
AnchorPoint: "Anchor-0" 0 0 basechar 0
LayerCount: 2
Back
Fore
SplineSet
518 364 m 257
NamedP: "hr00"
 518 425 l 257
 216 425 l 258
 206 425 197 428 190 433 c 256
 183 437 180 442 180 449 c 256
 180 459 188 468 205 475 c 256
 222 482 242 486 265 486 c 258
 415 486 l 258
 454 486 485 479 508 465 c 256
 531 450 543 431 543 406 c 258
 543 376 l 257
 604 376 l 257
 604 406 l 258
 604 423 613 437 630 450 c 257
 649 462 670 468 695 468 c 256
 726 468 752 460 775 444 c 256
 798 427 812 407 816 383 c 257
 809 388 800 393 791 396 c 256
 782 399 772 401 761 401 c 256
 733 401 709 390 689 369 c 256
 669 347 659 321 659 291 c 256
 659 261 669 235 690 214 c 256
 712 193 738 183 768 183 c 256
 805 183 834 197 856 224 c 256
 878 251 889 288 889 334 c 256
 889 380 876 420 851 455 c 256
 826 490 794 513 755 523 c 257
 755 546 l 258
 755 556 759 565 766 573 c 257
 774 580 783 583 793 583 c 256
 803 583 812 580 819 575 c 256
 826 571 829 566 829 559 c 257
 889 559 l 257
 889 582 879 602 860 619 c 256
 842 636 820 644 793 644 c 256
 766 644 743 636 724 619 c 256
 705 602 695 582 695 559 c 258
 695 529 l 257
 664 529 638 525 615 516 c 256
 592 507 576 495 568 480 c 257
 553 501 532 517 505 529 c 256
 478 540 448 546 415 546 c 258
 265 546 l 258
 225 546 190 537 161 518 c 256
 133 499 119 476 119 449 c 256
 119 428 126 411 140 396 c 257
 123 386 108 373 94 358 c 256
 51 313 30 258 30 194 c 256
 30 141 46 95 79 56 c 256
 110 19 149 0 195 0 c 256
 221 0 245 6 266 15 c 256
 288 25 306 38 319 55 c 257
 329 38 345 25 368 15 c 256
 391 5 418 0 448 0 c 256
 489 0 524 13 553 39 c 256
 582 66 596 97 596 134 c 256
 596 164 585 190 563 211 c 256
 540 232 513 243 480 243 c 256
 452 243 427 235 406 218 c 256
 386 201 376 181 376 158 c 257
 441 158 l 257
 441 165 445 170 453 175 c 256
 460 180 469 183 480 183 c 256
 495 183 508 178 518 169 c 256
 529 159 534 147 534 134 c 256
 534 114 526 97 509 83 c 256
 492 68 472 61 448 61 c 256
 420 61 397 69 378 86 c 256
 359 103 349 123 349 146 c 258
 349 183 l 257
 289 183 l 257
 289 140 l 258
 289 119 280 100 261 84 c 256
 243 69 221 61 195 61 c 256
 167 61 142 74 121 100 c 256
 101 126 91 157 91 194 c 256
 91 241 107 281 138 314 c 256
 168 347 205 364 248 364 c 258
 518 364 l 257
NamedP: "hr00"
803 253 m 256
 793 242 781 236 768 236 c 256
 755 236 743 242 733 253 c 256
 724 264 719 276 719 291 c 256
 719 304 724 316 733 326 c 257
 743 335 755 340 768 340 c 256
 781 340 793 335 803 326 c 257
 812 316 816 304 816 291 c 256
 816 276 812 264 803 253 c 256
EndSplineSet
Ligature2: "'abvs' Above Base Substitutions in Telugu lookup 15 subtable" DDa OOMatra
EndChar

StartChar: DDaOttu
Encoding: 94 -1 94
GlifName: D_D_aO_ttu
Width: 27
VWidth: 0
Flags: W
AnchorPoint: "Anchor-0" -47 30 mark 0
LayerCount: 2
Back
Fore
SplineSet
192 -303 m 256
NamedP: "hr00"
 211 -303 228 -300 244 -294 c 256
 260 -288 272 -280 280 -270 c 257
 289 -280 300 -288 315 -294 c 256
 331 -300 348 -303 367 -303 c 256
 391 -303 411 -295 428 -278 c 256
 445 -261 454 -241 454 -216 c 256
 454 -192 445 -172 428 -155 c 256
 411 -138 391 -129 367 -129 c 258
 348 -129 l 257
 348 -183 l 257
 360 -183 l 258
 369 -183 377 -186 384 -193 c 256
 391 -200 394 -207 394 -216 c 256
 394 -225 390 -233 383 -240 c 256
 374 -247 365 -250 354 -250 c 256
 341 -250 331 -245 322 -236 c 256
 313 -227 308 -217 308 -204 c 258
 308 -183 l 257
 254 -183 l 257
 254 -196 l 258
 254 -213 249 -227 238 -239 c 256
 228 -250 215 -256 200 -256 c 256
 182 -256 166 -248 153 -233 c 256
 140 -217 133 -198 133 -175 c 256
 133 -151 142 -131 160 -114 c 256
 179 -97 202 -89 228 -89 c 258
 400 -89 l 257
 400 -36 l 257
 228 -36 l 258
 187 -36 152 -50 123 -78 c 256
 94 -105 79 -137 79 -175 c 256
 79 -210 90 -240 112 -265 c 256
 134 -290 161 -303 192 -303 c 256
NamedP: "hr00"
EndSplineSet
Ligature2: "'blwf' Below Base Forms in Telugu lookup 2 subtable" DDa Halanth
EndChar

StartChar: DDaU
Encoding: 95 -1 95
GlifName: D_D_aU_
Width: 913
VWidth: 0
Flags: W
AnchorPoint: "Anchor-3" 0 0 basechar 0
AnchorPoint: "Anchor-0" 0 0 basechar 0
LayerCount: 2
Back
Fore
SplineSet
594 110 m 257
NamedP: "hr00"
 595 117 596 125 596 134 c 256
 596 164 585 190 563 211 c 256
 540 232 513 243 480 243 c 256
 452 243 427 235 406 218 c 256
 386 201 376 181 376 158 c 257
 441 158 l 257
 441 165 445 170 453 175 c 256
 460 180 469 183 480 183 c 256
 495 183 508 178 518 169 c 256
 529 159 534 147 534 134 c 256
 534 114 526 97 509 83 c 256
 492 68 472 61 448 61 c 256
 420 61 397 69 378 86 c 256
 359 103 349 123 349 146 c 258
 349 183 l 257
 289 183 l 257
 289 140 l 258
 289 119 280 100 261 84 c 256
 243 69 221 61 195 61 c 256
 167 61 142 74 121 100 c 256
 101 126 91 157 91 194 c 256
 91 241 107 281 138 314 c 256
 168 347 205 364 248 364 c 258
 530 364 l 257
 530 425 l 257
 435 425 l 257
 435 474 l 258
 435 481 438 486 443 490 c 256
 448 495 453 498 460 498 c 258
 618 498 l 257
 618 559 l 257
 435 559 l 258
 418 559 404 553 393 541 c 256
 381 529 375 515 375 498 c 258
 375 425 l 257
 264 425 l 257
 259 426 254 428 251 431 c 256
 248 436 246 440 246 444 c 258
 246 498 l 257
 185 498 l 257
 185 438 l 258
 185 430 186 423 189 418 c 257
 154 408 122 388 94 358 c 256
 51 313 30 258 30 194 c 256
 30 141 46 95 79 56 c 256
 110 19 149 0 195 0 c 256
 221 0 245 6 266 15 c 256
 288 25 306 38 319 55 c 257
 329 38 345 25 368 15 c 256
 391 5 418 0 448 0 c 256
 489 0 524 13 553 39 c 256
 560 45 565 51 570 58 c 257
 579 48 589 39 600 31 c 256
 631 10 664 0 701 0 c 256
 756 0 801 21 839 63 c 256
 876 104 896 154 896 213 c 256
 896 271 880 321 845 363 c 256
 811 404 769 425 720 425 c 258
 703 425 l 257
 703 364 l 257
 726 364 l 258
 756 364 783 349 804 320 c 256
 826 290 835 254 835 213 c 256
 835 171 823 135 796 105 c 256
 770 76 738 61 701 61 c 256
 676 61 651 69 626 84 c 256
 615 91 604 100 594 110 c 257
NamedP: "hr00"
EndSplineSet
Ligature2: "'psts' Post Base Substitutions in Telugu lookup 17 subtable" DDa UMatra
EndChar

StartChar: DDaUU
Encoding: 96 -1 96
GlifName: D_D_aU_U_
Width: 1201
VWidth: 0
Flags: W
AnchorPoint: "Anchor-3" 0 0 basechar 0
AnchorPoint: "Anchor-0" 0 0 basechar 0
LayerCount: 2
Back
Fore
SplineSet
595 118 m 257
NamedP: "hr00"
 596 123 596 129 596 134 c 256
 596 164 585 190 563 211 c 256
 540 232 513 243 480 243 c 256
 452 243 427 235 406 218 c 256
 386 201 376 181 376 158 c 257
 441 158 l 257
 441 165 445 170 453 175 c 256
 460 180 469 183 480 183 c 256
 495 183 508 178 518 169 c 256
 529 159 534 147 534 134 c 256
 534 114 526 97 509 83 c 256
 492 68 472 61 448 61 c 256
 420 61 397 69 378 86 c 256
 359 103 349 123 349 146 c 258
 349 183 l 257
 289 183 l 257
 289 140 l 258
 289 119 280 100 261 84 c 256
 243 69 221 61 195 61 c 256
 167 61 142 74 121 100 c 256
 101 126 91 157 91 194 c 256
 91 241 107 281 138 314 c 256
 168 347 205 364 248 364 c 258
 530 364 l 257
 530 425 l 257
 435 425 l 257
 435 474 l 258
 435 481 438 486 443 490 c 256
 448 495 453 498 460 498 c 258
 618 498 l 257
 618 559 l 257
 435 559 l 258
 418 559 404 553 393 541 c 256
 381 529 375 515 375 498 c 258
 375 425 l 257
 264 425 l 257
 259 426 254 428 251 431 c 256
 248 436 246 440 246 444 c 258
 246 498 l 257
 185 498 l 257
 185 438 l 258
 185 430 186 423 189 418 c 257
 154 408 122 388 94 358 c 256
 51 313 30 258 30 194 c 256
 30 141 46 95 79 56 c 256
 110 19 149 0 195 0 c 256
 221 0 245 6 266 15 c 256
 288 25 306 38 319 55 c 257
 329 38 345 25 368 15 c 256
 391 5 418 0 448 0 c 256
 489 0 524 13 553 39 c 256
 560 46 566 52 571 59 c 257
 580 50 589 41 600 34 c 256
 632 11 669 0 710 0 c 256
 764 0 810 20 848 59 c 256
 886 98 905 145 905 200 c 256
 905 240 900 274 890 303 c 256
 881 332 867 352 850 364 c 257
 1014 364 l 258
 1038 364 1059 357 1076 343 c 256
 1094 328 1104 311 1105 291 c 257
 1092 300 1076 304 1056 304 c 256
 1028 304 1004 295 983 274 c 256
 962 253 953 229 953 200 c 256
 953 169 965 142 989 119 c 256
 1012 96 1041 85 1075 85 c 256
 1105 85 1132 99 1153 126 c 256
 1175 154 1184 187 1184 225 c 256
 1184 280 1167 327 1134 366 c 256
 1101 405 1061 425 1014 425 c 258
 698 425 l 257
 698 364 l 257
 740 364 l 258
 769 364 793 349 814 318 c 256
 834 287 844 249 844 206 c 256
 844 166 831 132 805 104 c 256
 778 75 747 61 710 61 c 256
 683 61 657 69 633 84 c 256
 618 93 606 105 595 118 c 257
NamedP: "hr00"
1098 160 m 256
 1088 151 1076 146 1063 146 c 256
 1050 146 1038 151 1028 160 c 256
 1019 169 1014 181 1014 194 c 256
 1014 207 1019 219 1028 229 c 257
 1038 238 1050 243 1063 243 c 256
 1076 243 1088 238 1098 229 c 257
 1107 219 1111 207 1111 194 c 256
 1111 181 1107 169 1098 160 c 256
EndSplineSet
Ligature2: "'psts' Post Base Substitutions in Telugu lookup 17 subtable" DDa UUMatra
EndChar

StartChar: DDha
Encoding: 97 3106 97
GlifName: D_D_ha
Width: 635
VWidth: 0
Flags: W
AnchorPoint: "Anchor-0" 0 0 basechar 0
LayerCount: 2
Back
Fore
SplineSet
435 474 m 258
NamedP: "hr00"
 435 481 438 486 443 490 c 256
 448 495 453 498 460 498 c 258
 618 498 l 257
 618 559 l 257
 435 559 l 258
 418 559 404 553 393 541 c 256
 381 529 375 515 375 498 c 258
 375 425 l 257
 264 425 l 257
 259 426 254 428 251 431 c 256
 248 436 246 440 246 444 c 258
 246 498 l 257
 185 498 l 257
 185 438 l 258
 185 431 186 424 189 417 c 257
 154 407 122 387 94 358 c 256
 51 313 30 258 30 194 c 256
 30 141 46 95 79 56 c 256
 110 19 149 0 195 0 c 256
 221 0 245 6 266 15 c 256
 288 25 306 38 319 55 c 257
 329 38 345 25 368 15 c 256
 391 5 418 0 448 0 c 256
 489 0 524 13 553 39 c 256
 582 66 596 97 596 134 c 256
 596 164 585 190 563 211 c 256
 540 232 513 243 480 243 c 256
 452 243 427 235 406 218 c 256
 386 201 376 181 376 158 c 257
 441 158 l 257
 441 165 445 170 453 175 c 256
 460 180 469 183 480 183 c 256
 495 183 508 178 518 169 c 256
 529 159 534 147 534 134 c 256
 534 114 526 97 509 83 c 256
 492 68 472 61 448 61 c 256
 420 61 397 69 378 86 c 256
 359 103 349 123 349 146 c 258
 349 183 l 257
 289 183 l 257
 289 140 l 258
 289 119 280 100 261 84 c 256
 243 69 221 61 195 61 c 256
 167 61 142 74 121 100 c 256
 101 126 91 157 91 194 c 256
 91 241 107 281 138 314 c 256
 168 347 205 364 248 364 c 258
 530 364 l 257
 530 425 l 257
 435 425 l 257
 435 474 l 258
NamedP: "hr00"
351 -122 m 257
 351 0 l 257
 286 0 l 257
 286 -122 l 257
 351 -122 l 257
EndSplineSet
EndChar

StartChar: DDhaAA
Encoding: 98 -1 98
GlifName: D_D_haA_A_
Width: 906
VWidth: 0
Flags: W
AnchorPoint: "Anchor-0" 0 0 basechar 0
LayerCount: 2
Back
Fore
SplineSet
719 365 m 258
NamedP: "hr00"
 744 365 765 358 784 344 c 256
 801 330 810 313 810 293 c 257
 796 301 780 305 761 305 c 256
 733 305 709 294 689 273 c 256
 669 251 659 225 659 195 c 256
 659 165 669 139 690 118 c 256
 712 97 738 86 768 86 c 256
 801 86 830 100 854 128 c 256
 877 155 889 188 889 226 c 256
 889 281 872 329 839 368 c 256
 806 407 766 426 719 426 c 258
 64 426 l 257
 64 365 l 257
 101 365 l 257
 99 362 97 360 94 358 c 257
 51 313 30 258 30 194 c 256
 30 141 46 95 79 56 c 256
 110 19 149 0 195 0 c 256
 221 0 245 6 266 15 c 256
 288 25 306 38 319 55 c 257
 329 38 345 25 368 15 c 256
 391 5 418 0 448 0 c 256
 489 0 524 13 553 39 c 256
 582 66 596 97 596 134 c 256
 596 164 585 190 563 211 c 256
 540 232 513 243 480 243 c 256
 452 243 427 235 406 218 c 256
 386 201 376 181 376 158 c 257
 441 158 l 257
 441 165 445 170 453 175 c 256
 460 180 469 183 480 183 c 256
 495 183 508 178 518 169 c 256
 529 159 534 147 534 134 c 256
 534 114 526 97 509 83 c 256
 492 68 472 61 448 61 c 256
 420 61 397 69 378 86 c 256
 359 103 349 123 349 146 c 258
 349 183 l 257
 289 183 l 257
 289 140 l 258
 289 119 280 100 261 84 c 256
 243 69 221 61 195 61 c 256
 167 61 142 74 121 100 c 256
 101 126 91 157 91 194 c 256
 91 241 107 281 138 314 c 256
 168 347 205 364 248 364 c 258
 530 364 l 257
 530 365 l 257
 719 365 l 258
NamedP: "hr00"
351 -122 m 257
 351 0 l 257
 286 0 l 257
 286 -122 l 257
 351 -122 l 257
803 161 m 256
 793 152 781 148 768 148 c 256
 755 148 743 152 733 161 c 256
 724 170 719 182 719 195 c 256
 719 208 724 220 733 230 c 257
 743 239 755 244 768 244 c 256
 781 244 793 239 803 230 c 257
 812 220 816 208 816 195 c 256
 816 182 812 170 803 161 c 256
EndSplineSet
Ligature2: "'abvs' Above Base Substitutions in Telugu lookup 9 subtable" DDha AAMatra
EndChar

StartChar: DDhaAU
Encoding: 99 -1 99
GlifName: D_D_haA_U_
Width: 906
VWidth: 0
Flags: W
AnchorPoint: "Anchor-0" 0 0 basechar 0
LayerCount: 2
Back
Fore
SplineSet
530 364 m 257
NamedP: "hr00"
 530 425 l 257
 506 425 l 257
 507 429 508 433 508 438 c 256
 508 442 507 446 504 450 c 256
 502 454 499 458 495 461 c 257
 708 461 l 258
 736 461 760 454 780 441 c 256
 800 429 810 414 810 395 c 257
 807 397 801 399 793 400 c 256
 784 401 774 401 761 401 c 256
 733 401 709 391 689 371 c 256
 669 350 659 326 659 298 c 256
 659 268 668 242 690 220 c 256
 712 198 738 189 768 189 c 256
 801 189 830 201 854 226 c 256
 877 251 889 281 889 316 c 256
 889 373 871 422 836 463 c 256
 801 503 758 523 708 523 c 258
 144 523 l 257
 144 461 l 257
 423 461 l 258
 428 461 432 459 436 456 c 256
 439 453 441 449 441 444 c 256
 441 439 439 434 434 430 c 256
 429 427 423 425 417 425 c 258
 208 425 l 257
 208 421 l 257
 165 413 127 392 94 358 c 256
 51 313 30 258 30 194 c 256
 30 141 46 95 79 56 c 256
 110 19 149 0 195 0 c 256
 221 0 245 6 266 15 c 256
 288 25 306 38 319 55 c 257
 329 38 345 25 368 15 c 256
 391 5 418 0 448 0 c 256
 489 0 524 13 553 39 c 256
 582 66 596 97 596 134 c 256
 596 164 585 190 563 211 c 256
 540 232 513 243 480 243 c 256
 452 243 427 235 406 218 c 256
 386 201 376 181 376 158 c 257
 441 158 l 257
 441 165 445 170 453 175 c 256
 460 180 469 183 480 183 c 256
 495 183 508 178 518 169 c 256
 529 159 534 147 534 134 c 256
 534 114 526 97 509 83 c 256
 492 68 472 61 448 61 c 256
 420 61 397 69 378 86 c 256
 359 103 349 123 349 146 c 258
 349 183 l 257
 289 183 l 257
 289 140 l 258
 289 119 280 100 261 84 c 256
 243 69 221 61 195 61 c 256
 167 61 142 74 121 100 c 256
 101 126 91 157 91 194 c 256
 91 241 107 281 138 314 c 256
 168 347 205 364 248 364 c 258
 530 364 l 257
NamedP: "hr00"
351 -122 m 257
 351 0 l 257
 286 0 l 257
 286 -122 l 257
 351 -122 l 257
803 259 m 256
 793 248 781 243 768 243 c 256
 755 243 743 248 733 259 c 256
 724 270 719 283 719 298 c 256
 719 311 724 323 733 333 c 257
 743 342 755 346 768 346 c 256
 781 346 793 342 803 333 c 257
 812 323 816 311 816 298 c 256
 816 283 812 270 803 259 c 256
EndSplineSet
Ligature2: "'abvs' Above Base Substitutions in Telugu lookup 16 subtable" DDha AuMatra
EndChar

StartChar: DDhaE
Encoding: 100 -1 100
GlifName: D_D_haE_
Width: 613
VWidth: 0
Flags: W
AnchorPoint: "Anchor-1" 0 0 basechar 0
AnchorPoint: "Anchor-0" 0 0 basechar 0
LayerCount: 2
Back
Fore
SplineSet
530 419 m 257
NamedP: "hr00"
 536 432 539 447 539 463 c 256
 539 490 531 512 514 531 c 256
 497 550 477 560 454 560 c 258
 63 560 l 257
 63 499 l 257
 441 499 l 258
 451 499 460 496 468 489 c 256
 475 482 478 473 478 463 c 256
 478 453 475 444 468 436 c 257
 460 429 451 426 441 426 c 258
 173 426 l 257
 173 412 l 257
 144 401 117 383 94 358 c 256
 51 313 30 258 30 194 c 256
 30 141 46 95 79 56 c 256
 110 19 149 0 195 0 c 256
 221 0 245 6 266 15 c 256
 288 25 306 38 319 55 c 257
 329 38 345 25 368 15 c 256
 391 5 418 0 448 0 c 256
 489 0 524 13 553 39 c 256
 582 66 596 97 596 134 c 256
 596 164 585 190 563 211 c 256
 540 232 513 243 480 243 c 256
 452 243 427 235 406 218 c 256
 386 201 376 181 376 158 c 257
 441 158 l 257
 441 165 445 170 453 175 c 256
 460 180 469 183 480 183 c 256
 495 183 508 178 518 169 c 256
 529 159 534 147 534 134 c 256
 534 114 526 97 509 83 c 256
 492 68 472 61 448 61 c 256
 420 61 397 69 378 86 c 256
 359 103 349 123 349 146 c 258
 349 183 l 257
 289 183 l 257
 289 140 l 258
 289 119 280 100 261 84 c 256
 243 69 221 61 195 61 c 256
 167 61 142 74 121 100 c 256
 101 126 91 157 91 194 c 256
 91 241 107 281 138 314 c 256
 168 347 205 364 248 364 c 258
 530 364 l 257
 530 419 l 257
NamedP: "hr00"
351 -122 m 257
 351 0 l 257
 286 0 l 257
 286 -122 l 257
 351 -122 l 257
EndSplineSet
PairPos2: "'blwm' Below Base Mark in Telugu lookup 14 subtable" Titvam dx=0 dy=0 dh=18 dv=0 dx=-774 dy=-25 dh=0 dv=0
PairPos2: "'blwm' Below Base Mark in Telugu lookup 0 subtable" tvam dx=0 dy=0 dh=0 dv=0 dx=-830 dy=20 dh=0 dv=0
Ligature2: "'abvs' Above Base Substitutions in Telugu lookup 12 subtable" DDha uni0C46
EndChar

StartChar: DDhaEE
Encoding: 101 -1 101
GlifName: D_D_haE_E_
Width: 613
VWidth: 0
Flags: W
AnchorPoint: "Anchor-0" 0 0 basechar 0
LayerCount: 2
Back
Fore
SplineSet
530 419 m 257
NamedP: "hr00"
 536 432 539 447 539 463 c 256
 539 490 531 512 514 531 c 256
 497 550 477 560 454 560 c 257
 454 584 l 258
 454 591 456 596 461 601 c 256
 466 606 471 609 478 609 c 258
 526 609 l 257
 526 669 l 257
 454 669 l 258
 437 669 423 663 410 651 c 256
 399 640 393 626 393 609 c 258
 393 560 l 257
 63 560 l 257
 63 499 l 257
 441 499 l 258
 451 499 460 496 468 489 c 256
 475 482 478 473 478 463 c 256
 478 453 475 444 468 436 c 257
 460 429 451 426 441 426 c 258
 173 426 l 257
 173 412 l 257
 144 401 117 383 94 358 c 256
 51 313 30 258 30 194 c 256
 30 141 46 95 79 56 c 256
 110 19 149 0 195 0 c 256
 221 0 245 6 266 15 c 256
 288 25 306 38 319 55 c 257
 329 38 345 25 368 15 c 256
 391 5 418 0 448 0 c 256
 489 0 524 13 553 39 c 256
 582 66 596 97 596 134 c 256
 596 164 585 190 563 211 c 256
 540 232 513 243 480 243 c 256
 452 243 427 235 406 218 c 256
 386 201 376 181 376 158 c 257
 441 158 l 257
 441 165 445 170 453 175 c 256
 460 180 469 183 480 183 c 256
 495 183 508 178 518 169 c 256
 529 159 534 147 534 134 c 256
 534 114 526 97 509 83 c 256
 492 68 472 61 448 61 c 256
 420 61 397 69 378 86 c 256
 359 103 349 123 349 146 c 258
 349 183 l 257
 289 183 l 257
 289 140 l 258
 289 119 280 100 261 84 c 256
 243 69 221 61 195 61 c 256
 167 61 142 74 121 100 c 256
 101 126 91 157 91 194 c 256
 91 241 107 281 138 314 c 256
 168 347 205 364 248 364 c 258
 530 364 l 257
 530 419 l 257
NamedP: "hr00"
351 -122 m 257
 351 0 l 257
 286 0 l 257
 286 -122 l 257
 351 -122 l 257
EndSplineSet
Ligature2: "'abvs' Above Base Substitutions in Telugu lookup 13 subtable" DDha EEMatra
EndChar

StartChar: DDhaHalanth
Encoding: 102 -1 102
GlifName: D_D_haH_alanth
Width: 613
VWidth: 0
Flags: W
AnchorPoint: "Anchor-0" 0 0 basechar 0
LayerCount: 2
Back
Fore
SplineSet
253 425 m 258
NamedP: "hr00"
 248 425 243 427 240 430 c 256
 237 434 235 439 235 444 c 256
 235 452 238 459 244 465 c 256
 250 471 257 474 265 474 c 258
 465 474 l 257
 465 534 l 257
 265 534 l 258
 257 534 250 536 244 541 c 256
 238 546 235 552 235 559 c 256
 235 566 238 571 244 575 c 256
 250 580 257 583 265 583 c 258
 550 583 l 257
 550 644 l 257
 240 644 l 258
 222 644 207 637 194 623 c 256
 181 608 174 591 174 571 c 256
 174 560 177 550 184 539 c 256
 190 528 199 519 210 510 c 257
 199 503 190 493 184 481 c 257
 177 470 174 457 174 444 c 256
 174 433 176 423 180 414 c 257
 148 403 119 385 94 358 c 256
 51 313 30 258 30 194 c 256
 30 141 46 95 79 56 c 256
 110 19 149 0 195 0 c 256
 221 0 245 6 266 15 c 256
 288 25 306 38 319 55 c 257
 329 38 345 25 368 15 c 256
 391 5 418 0 448 0 c 256
 489 0 524 13 553 39 c 256
 582 66 596 97 596 134 c 256
 596 164 585 190 563 211 c 256
 540 232 513 243 480 243 c 256
 452 243 427 235 406 218 c 256
 386 201 376 181 376 158 c 257
 441 158 l 257
 441 165 445 170 453 175 c 256
 460 180 469 183 480 183 c 256
 495 183 508 178 518 169 c 256
 529 159 534 147 534 134 c 256
 534 114 526 97 509 83 c 256
 492 68 472 61 448 61 c 256
 420 61 397 69 378 86 c 256
 359 103 349 123 349 146 c 258
 349 183 l 257
 289 183 l 257
 289 140 l 258
 289 119 280 100 261 84 c 256
 243 69 221 61 195 61 c 256
 167 61 142 74 121 100 c 256
 101 126 91 157 91 194 c 256
 91 241 107 281 138 314 c 256
 168 347 205 364 248 364 c 258
 530 364 l 257
 530 425 l 257
 253 425 l 258
NamedP: "hr00"
351 -122 m 257
 351 0 l 257
 286 0 l 257
 286 -122 l 257
 351 -122 l 257
EndSplineSet
Ligature2: "'haln' Halant Forms in Telugu lookup 19 subtable" DDha Halanth
EndChar

StartChar: DDhaI
Encoding: 103 -1 103
GlifName: D_D_haI_
Width: 613
VWidth: 0
Flags: W
AnchorPoint: "Anchor-0" 0 0 basechar 0
LayerCount: 2
Back
Fore
SplineSet
444 425 m 257
NamedP: "hr00"
 461 447 470 472 470 499 c 256
 470 536 455 567 424 594 c 256
 393 620 356 633 313 633 c 256
 280 633 251 624 226 606 c 256
 203 588 191 566 191 541 c 256
 191 520 200 501 218 485 c 256
 236 470 258 463 283 463 c 256
 311 463 335 471 355 488 c 256
 375 505 385 525 385 548 c 257
 392 543 399 537 404 528 c 256
 408 519 410 510 410 499 c 256
 410 479 400 462 381 448 c 256
 362 433 340 426 313 426 c 258
 253 426 l 257
 253 425 l 257
 248 425 l 258
 188 425 137 403 94 358 c 256
 51 313 30 258 30 194 c 256
 30 141 46 95 79 56 c 256
 110 19 149 0 195 0 c 256
 221 0 245 6 266 15 c 256
 288 25 306 38 319 55 c 257
 329 38 345 25 368 15 c 256
 391 5 418 0 448 0 c 256
 489 0 524 13 553 39 c 256
 582 66 596 97 596 134 c 256
 596 164 585 190 563 211 c 256
 540 232 513 243 480 243 c 256
 452 243 427 235 406 218 c 256
 386 201 376 181 376 158 c 257
 441 158 l 257
 441 165 445 170 453 175 c 256
 460 180 469 183 480 183 c 256
 495 183 508 178 518 169 c 256
 529 159 534 147 534 134 c 256
 534 114 526 97 509 83 c 256
 492 68 472 61 448 61 c 256
 420 61 397 69 378 86 c 256
 359 103 349 123 349 146 c 258
 349 183 l 257
 289 183 l 257
 289 140 l 258
 289 119 280 100 261 84 c 256
 243 69 221 61 195 61 c 256
 167 61 142 74 121 100 c 256
 101 126 91 157 91 194 c 256
 91 241 107 281 138 314 c 256
 168 347 205 364 248 364 c 258
 530 364 l 257
 530 425 l 257
 444 425 l 257
NamedP: "hr00"
351 -122 m 257
 351 0 l 257
 286 0 l 257
 286 -122 l 257
 351 -122 l 257
318 520 m 256
 310 514 300 511 289 511 c 256
 279 511 270 514 263 520 c 256
 256 526 253 533 253 541 c 256
 253 550 256 557 263 564 c 256
 270 570 279 573 289 573 c 256
 300 573 310 570 318 564 c 256
 326 557 330 550 330 541 c 256
 330 533 326 526 318 520 c 256
EndSplineSet
Ligature2: "'abvs' Above Base Substitutions in Telugu lookup 10 subtable" DDha Imatra
EndChar

StartChar: DDhaII
Encoding: 104 -1 104
GlifName: D_D_haI_I_
Width: 613
VWidth: 0
Flags: W
AnchorPoint: "Anchor-0" 0 0 basechar 0
LayerCount: 2
Back
Fore
SplineSet
439 425 m 257
NamedP: "hr00"
 456 447 464 472 464 499 c 256
 464 536 450 567 421 594 c 256
 393 620 359 633 319 633 c 257
 315 640 313 649 313 658 c 256
 313 666 316 673 323 679 c 256
 330 685 339 688 349 688 c 256
 360 688 370 685 379 679 c 256
 387 673 391 666 391 658 c 257
 453 658 l 257
 453 683 443 704 423 721 c 256
 402 739 377 748 349 748 c 256
 322 748 299 739 280 721 c 256
 261 704 251 683 251 658 c 256
 251 649 253 638 258 626 c 257
 237 623 219 613 205 596 c 256
 192 581 185 562 185 541 c 256
 185 520 195 501 214 485 c 256
 233 470 256 463 283 463 c 256
 310 463 332 471 350 488 c 256
 369 505 379 525 379 548 c 257
 386 543 393 537 398 528 c 256
 402 519 404 510 404 499 c 256
 404 479 395 462 378 448 c 256
 359 433 338 426 313 426 c 258
 246 426 l 257
 246 425 l 257
 187 425 136 403 94 358 c 256
 51 313 30 258 30 194 c 256
 30 141 46 95 79 56 c 256
 110 19 149 0 195 0 c 256
 221 0 245 6 266 15 c 256
 288 25 306 38 319 55 c 257
 329 38 345 25 368 15 c 256
 391 5 418 0 448 0 c 256
 489 0 524 13 553 39 c 256
 582 66 596 97 596 134 c 256
 596 164 585 190 563 211 c 256
 540 232 513 243 480 243 c 256
 452 243 427 235 406 218 c 256
 386 201 376 181 376 158 c 257
 441 158 l 257
 441 165 445 170 453 175 c 256
 460 180 469 183 480 183 c 256
 495 183 508 178 518 169 c 256
 529 159 534 147 534 134 c 256
 534 114 526 97 509 83 c 256
 492 68 472 61 448 61 c 256
 420 61 397 69 378 86 c 256
 359 103 349 123 349 146 c 258
 349 183 l 257
 289 183 l 257
 289 140 l 258
 289 119 280 100 261 84 c 256
 243 69 221 61 195 61 c 256
 167 61 142 74 121 100 c 256
 101 126 91 157 91 194 c 256
 91 241 107 281 138 314 c 256
 168 347 205 364 248 364 c 258
 530 364 l 257
 530 425 l 257
 439 425 l 257
NamedP: "hr00"
351 -122 m 257
 351 0 l 257
 286 0 l 257
 286 -122 l 257
 351 -122 l 257
311 520 m 256
 304 514 294 511 283 511 c 256
 273 511 264 514 256 520 c 256
 249 526 246 533 246 541 c 256
 246 550 249 557 256 564 c 257
 264 570 273 573 283 573 c 256
 294 573 304 570 311 564 c 256
 320 557 324 550 324 541 c 256
 324 533 320 526 311 520 c 256
EndSplineSet
Ligature2: "'abvs' Above Base Substitutions in Telugu lookup 11 subtable" DDha IIMatra
EndChar

StartChar: DDhaO
Encoding: 105 -1 105
GlifName: D_D_haO_
Width: 906
VWidth: 0
Flags: W
AnchorPoint: "Anchor-0" 0 0 basechar 0
LayerCount: 2
Back
Fore
SplineSet
518 364 m 257
NamedP: "hr00"
 518 425 l 257
 216 425 l 258
 208 425 201 428 194 433 c 256
 188 437 185 442 185 449 c 256
 185 459 193 468 210 475 c 256
 227 482 247 486 270 486 c 258
 415 486 l 258
 454 486 485 478 508 461 c 256
 531 444 543 422 543 395 c 258
 543 376 l 257
 604 376 l 257
 604 406 l 258
 604 423 611 438 626 450 c 256
 642 463 661 468 683 468 c 256
 720 468 751 460 778 443 c 256
 803 426 816 406 816 383 c 257
 809 388 800 393 791 396 c 256
 782 399 772 401 761 401 c 256
 733 401 709 390 689 369 c 256
 669 347 659 321 659 291 c 256
 659 261 670 235 693 214 c 256
 715 193 742 183 774 183 c 256
 805 183 832 197 855 226 c 256
 878 256 889 292 889 334 c 256
 889 388 869 434 829 471 c 256
 788 510 740 529 683 529 c 256
 656 529 632 525 611 516 c 256
 590 507 576 495 568 480 c 257
 553 501 532 517 505 529 c 256
 478 540 448 546 415 546 c 258
 270 546 l 258
 230 546 196 537 168 518 c 256
 139 499 125 476 125 449 c 256
 125 430 131 412 143 397 c 257
 126 387 109 374 94 358 c 256
 51 313 30 258 30 194 c 256
 30 141 46 95 79 56 c 256
 110 19 149 0 195 0 c 256
 221 0 245 6 266 15 c 256
 288 25 306 38 319 55 c 257
 329 38 345 25 368 15 c 256
 391 5 418 0 448 0 c 256
 489 0 524 13 553 39 c 256
 582 66 596 97 596 134 c 256
 596 164 585 190 563 211 c 256
 540 232 513 243 480 243 c 256
 452 243 427 235 406 218 c 256
 386 201 376 181 376 158 c 257
 441 158 l 257
 441 165 445 170 453 175 c 256
 460 180 469 183 480 183 c 256
 495 183 508 178 518 169 c 256
 529 159 534 147 534 134 c 256
 534 114 526 97 509 83 c 256
 492 68 472 61 448 61 c 256
 420 61 397 69 378 86 c 256
 359 103 349 123 349 146 c 258
 349 183 l 257
 289 183 l 257
 289 140 l 258
 289 119 280 100 261 84 c 256
 243 69 221 61 195 61 c 256
 167 61 142 74 121 100 c 256
 101 126 91 157 91 194 c 256
 91 241 107 281 138 314 c 256
 168 347 205 364 248 364 c 258
 518 364 l 257
NamedP: "hr00"
351 -122 m 257
 351 0 l 257
 286 0 l 257
 286 -122 l 257
 351 -122 l 257
803 253 m 256
 793 242 781 236 768 236 c 256
 755 236 743 242 733 253 c 256
 724 264 719 276 719 291 c 256
 719 304 724 316 733 326 c 257
 743 335 755 340 768 340 c 256
 781 340 793 335 803 326 c 257
 812 316 816 304 816 291 c 256
 816 276 812 264 803 253 c 256
EndSplineSet
Ligature2: "'abvs' Above Base Substitutions in Telugu lookup 14 subtable" DDha OMatra
EndChar

StartChar: DDhaOO
Encoding: 106 -1 106
GlifName: D_D_haO_O_
Width: 906
VWidth: 0
Flags: W
AnchorPoint: "Anchor-0" 0 0 basechar 0
LayerCount: 2
Back
Fore
SplineSet
518 364 m 257
NamedP: "hr00"
 518 425 l 257
 216 425 l 258
 206 425 197 428 190 433 c 256
 183 437 180 442 180 449 c 256
 180 459 188 468 205 475 c 256
 222 482 242 486 265 486 c 258
 415 486 l 258
 454 486 485 479 508 465 c 256
 531 450 543 431 543 406 c 258
 543 376 l 257
 604 376 l 257
 604 406 l 258
 604 423 613 437 630 450 c 257
 649 462 670 468 695 468 c 256
 726 468 752 460 775 444 c 256
 798 427 812 407 816 383 c 257
 809 388 800 393 791 396 c 256
 782 399 772 401 761 401 c 256
 733 401 709 390 689 369 c 256
 669 347 659 321 659 291 c 256
 659 261 669 235 690 214 c 256
 712 193 738 183 768 183 c 256
 805 183 834 197 856 224 c 256
 878 251 889 288 889 334 c 256
 889 380 876 420 851 455 c 256
 826 490 794 513 755 523 c 257
 755 546 l 258
 755 556 759 565 766 573 c 257
 774 580 783 583 793 583 c 256
 803 583 812 580 819 575 c 256
 826 571 829 566 829 559 c 257
 889 559 l 257
 889 582 879 602 860 619 c 256
 842 636 820 644 793 644 c 256
 766 644 743 636 724 619 c 256
 705 602 695 582 695 559 c 258
 695 529 l 257
 664 529 638 525 615 516 c 256
 592 507 576 495 568 480 c 257
 553 501 532 517 505 529 c 256
 478 540 448 546 415 546 c 258
 265 546 l 258
 225 546 190 537 161 518 c 256
 133 499 119 476 119 449 c 256
 119 428 126 411 140 396 c 257
 123 386 108 373 94 358 c 256
 51 313 30 258 30 194 c 256
 30 141 46 95 79 56 c 256
 110 19 149 0 195 0 c 256
 221 0 245 6 266 15 c 256
 288 25 306 38 319 55 c 257
 329 38 345 25 368 15 c 256
 391 5 418 0 448 0 c 256
 489 0 524 13 553 39 c 256
 582 66 596 97 596 134 c 256
 596 164 585 190 563 211 c 256
 540 232 513 243 480 243 c 256
 452 243 427 235 406 218 c 256
 386 201 376 181 376 158 c 257
 441 158 l 257
 441 165 445 170 453 175 c 256
 460 180 469 183 480 183 c 256
 495 183 508 178 518 169 c 256
 529 159 534 147 534 134 c 256
 534 114 526 97 509 83 c 256
 492 68 472 61 448 61 c 256
 420 61 397 69 378 86 c 256
 359 103 349 123 349 146 c 258
 349 183 l 257
 289 183 l 257
 289 140 l 258
 289 119 280 100 261 84 c 256
 243 69 221 61 195 61 c 256
 167 61 142 74 121 100 c 256
 101 126 91 157 91 194 c 256
 91 241 107 281 138 314 c 256
 168 347 205 364 248 364 c 258
 518 364 l 257
NamedP: "hr00"
351 -122 m 257
 351 0 l 257
 286 0 l 257
 286 -122 l 257
 351 -122 l 257
803 253 m 256
 793 242 781 236 768 236 c 256
 755 236 743 242 733 253 c 256
 724 264 719 276 719 291 c 256
 719 304 724 316 733 326 c 257
 743 335 755 340 768 340 c 256
 781 340 793 335 803 326 c 257
 812 316 816 304 816 291 c 256
 816 276 812 264 803 253 c 256
EndSplineSet
Ligature2: "'abvs' Above Base Substitutions in Telugu lookup 15 subtable" DDha OOMatra
EndChar

StartChar: DDhaOttu
Encoding: 107 -1 107
GlifName: D_D_haO_ttu
Width: 26
VWidth: 0
Flags: W
AnchorPoint: "Anchor-0" -47 30 mark 0
LayerCount: 2
Back
Fore
SplineSet
308 -396 m 257
NamedP: "hr00"
 308 -316 l 257
 254 -316 l 257
 254 -396 l 257
 308 -396 l 257
NamedP: "hr00"
192 -303 m 256
 211 -303 228 -300 244 -294 c 256
 259 -288 271 -280 280 -269 c 257
 289 -280 302 -288 317 -294 c 256
 332 -300 348 -303 367 -303 c 256
 391 -303 411 -295 428 -278 c 256
 445 -261 454 -241 454 -216 c 256
 454 -192 445 -172 428 -155 c 256
 411 -138 391 -129 367 -129 c 258
 348 -129 l 257
 348 -181 l 257
 360 -181 l 258
 369 -181 377 -184 384 -191 c 256
 391 -198 394 -206 394 -216 c 256
 394 -225 390 -233 383 -240 c 256
 374 -247 365 -250 354 -250 c 256
 341 -250 331 -245 322 -236 c 256
 313 -227 308 -216 308 -203 c 258
 308 -181 l 257
 254 -181 l 257
 254 -196 l 258
 254 -213 249 -227 238 -239 c 256
 228 -250 215 -256 200 -256 c 256
 182 -256 166 -248 153 -233 c 256
 140 -217 133 -198 133 -175 c 256
 133 -152 142 -132 160 -115 c 256
 179 -98 202 -90 228 -90 c 258
 400 -90 l 257
 400 -36 l 257
 228 -36 l 258
 187 -36 152 -50 123 -78 c 256
 94 -105 79 -137 79 -175 c 256
 79 -210 90 -240 112 -265 c 256
 134 -290 161 -303 192 -303 c 256
EndSplineSet
Ligature2: "'blwf' Below Base Forms in Telugu lookup 2 subtable" DDha Halanth
EndChar

StartChar: DDhaU
Encoding: 108 -1 108
GlifName: D_D_haU_
Width: 913
VWidth: 0
Flags: W
AnchorPoint: "Anchor-3" 0 0 basechar 0
AnchorPoint: "Anchor-0" 0 0 basechar 0
LayerCount: 2
Back
Fore
SplineSet
594 110 m 257
NamedP: "hr00"
 595 117 596 125 596 134 c 256
 596 164 585 190 563 211 c 256
 540 232 513 243 480 243 c 256
 452 243 427 235 406 218 c 256
 386 201 376 181 376 158 c 257
 441 158 l 257
 441 165 445 170 453 175 c 256
 460 180 469 183 480 183 c 256
 495 183 508 178 518 169 c 256
 529 159 534 147 534 134 c 256
 534 114 526 97 509 83 c 256
 492 68 472 61 448 61 c 256
 420 61 397 69 378 86 c 256
 359 103 349 123 349 146 c 258
 349 183 l 257
 289 183 l 257
 289 140 l 258
 289 119 280 100 261 84 c 256
 243 69 221 61 195 61 c 256
 167 61 142 74 121 100 c 256
 101 126 91 157 91 194 c 256
 91 241 107 281 138 314 c 256
 168 347 205 364 248 364 c 258
 530 364 l 257
 530 425 l 257
 435 425 l 257
 435 474 l 258
 435 481 438 486 443 490 c 256
 448 495 453 498 460 498 c 258
 618 498 l 257
 618 559 l 257
 435 559 l 258
 418 559 404 553 393 541 c 256
 381 529 375 515 375 498 c 258
 375 425 l 257
 264 425 l 257
 259 426 254 428 251 431 c 256
 248 436 246 440 246 444 c 258
 246 498 l 257
 185 498 l 257
 185 438 l 258
 185 430 186 423 189 418 c 257
 154 408 122 388 94 358 c 256
 51 313 30 258 30 194 c 256
 30 141 46 95 79 56 c 256
 110 19 149 0 195 0 c 256
 221 0 245 6 266 15 c 256
 288 25 306 38 319 55 c 257
 329 38 345 25 368 15 c 256
 391 5 418 0 448 0 c 256
 489 0 524 13 553 39 c 256
 560 45 565 51 570 58 c 257
 579 49 589 40 600 31 c 257
 631 10 664 0 701 0 c 256
 756 0 801 21 839 63 c 256
 876 104 896 154 896 213 c 256
 896 271 880 321 845 363 c 256
 811 404 769 425 720 425 c 258
 703 425 l 257
 703 364 l 257
 726 364 l 258
 756 364 783 349 804 320 c 256
 826 290 835 254 835 213 c 256
 835 171 823 135 796 105 c 256
 770 76 738 61 701 61 c 256
 676 61 651 69 626 84 c 256
 615 91 604 100 594 110 c 257
NamedP: "hr00"
351 -122 m 257
 351 0 l 257
 286 0 l 257
 286 -122 l 257
 351 -122 l 257
EndSplineSet
Ligature2: "'psts' Post Base Substitutions in Telugu lookup 17 subtable" DDha UMatra
EndChar

